solid OpenSCAD_Model
  facet normal 0.19509033303553228 -0.9807852782113347 0
    outer loop
      vertex 85.55233903974295 -56.29437005519867 0
      vertex 85.15463119745255 -56.373479068279266 1.8
      vertex 85.15463119745255 -56.373479068279266 0
    endloop
  endfacet
  facet normal 0.19509033303553228 -0.9807852782113347 0
    outer loop
      vertex 85.55233903974295 -56.29437005519867 0
      vertex 85.55233903974295 -56.29437005519867 1.8
      vertex 85.15463119745255 -56.373479068279266 1.8
    endloop
  endfacet
  facet normal 0.3214394486632104 -0.9469301351436078 0
    outer loop
      vertex 85.93631864339113 -56.16402655094862 0
      vertex 85.55233903974295 -56.29437005519867 1.8
      vertex 85.55233903974295 -56.29437005519867 0
    endloop
  endfacet
  facet normal 0.3214394486632104 -0.9469301351436078 0
    outer loop
      vertex 85.93631864339113 -56.16402655094862 0
      vertex 85.93631864339113 -56.16402655094862 1.8
      vertex 85.55233903974295 -56.29437005519867 1.8
    endloop
  endfacet
  facet normal 0.4422887092702752 -0.8968727321376394 0
    outer loop
      vertex 86.29999999701977 -55.984678745269775 0
      vertex 85.93631864339113 -56.16402655094862 1.8
      vertex 85.93631864339113 -56.16402655094862 0
    endloop
  endfacet
  facet normal 0.4422887092702752 -0.8968727321376394 0
    outer loop
      vertex 86.29999999701977 -55.984678745269775 0
      vertex 86.29999999701977 -55.984678745269775 1.8
      vertex 85.93631864339113 -56.16402655094862 1.8
    endloop
  endfacet
  facet normal 0.5555702233510336 -0.8314696187628762 0
    outer loop
      vertex 86.63716042786837 -55.759395353496075 0
      vertex 86.29999999701977 -55.984678745269775 1.8
      vertex 86.29999999701977 -55.984678745269775 0
    endloop
  endfacet
  facet normal 0.5555702233510336 -0.8314696187628762 0
    outer loop
      vertex 86.63716042786837 -55.759395353496075 0
      vertex 86.63716042786837 -55.759395353496075 1.8
      vertex 86.29999999701977 -55.984678745269775 1.8
    endloop
  endfacet
  facet normal 0.6593458232603261 -0.7518398003226239 0
    outer loop
      vertex 86.94203101843596 -55.49203101545572 0
      vertex 86.63716042786837 -55.759395353496075 1.8
      vertex 86.63716042786837 -55.759395353496075 0
    endloop
  endfacet
  facet normal 0.6593458232603261 -0.7518398003226239 0
    outer loop
      vertex 86.94203101843596 -55.49203101545572 0
      vertex 86.94203101843596 -55.49203101545572 1.8
      vertex 86.63716042786837 -55.759395353496075 1.8
    endloop
  endfacet
  facet normal 0.7518398003226239 -0.6593458232603261 0
    outer loop
      vertex 87.2093953564763 -55.187160424888134 0
      vertex 86.94203101843596 -55.49203101545572 1.8
      vertex 86.94203101843596 -55.49203101545572 0
    endloop
  endfacet
  facet normal 0.7518398003226239 -0.6593458232603261 0
    outer loop
      vertex 87.2093953564763 -55.187160424888134 0
      vertex 87.2093953564763 -55.187160424888134 1.8
      vertex 86.94203101843596 -55.49203101545572 1.8
    endloop
  endfacet
  facet normal 0.8314696187628762 -0.5555702233510336 0
    outer loop
      vertex 87.43467874825001 -54.849999994039536 0
      vertex 87.2093953564763 -55.187160424888134 1.8
      vertex 87.2093953564763 -55.187160424888134 0
    endloop
  endfacet
  facet normal 0.8314696187628762 -0.5555702233510336 0
    outer loop
      vertex 87.43467874825001 -54.849999994039536 0
      vertex 87.43467874825001 -54.849999994039536 1.8
      vertex 87.2093953564763 -55.187160424888134 1.8
    endloop
  endfacet
  facet normal 0.8968727321376394 -0.4422887092702752 0
    outer loop
      vertex 87.61402655392885 -54.4863186404109 0
      vertex 87.43467874825001 -54.849999994039536 1.8
      vertex 87.43467874825001 -54.849999994039536 0
    endloop
  endfacet
  facet normal 0.8968727321376394 -0.4422887092702752 0
    outer loop
      vertex 87.61402655392885 -54.4863186404109 0
      vertex 87.61402655392885 -54.4863186404109 1.8
      vertex 87.43467874825001 -54.849999994039536 1.8
    endloop
  endfacet
  facet normal 0.9469301351436078 -0.3214394486632104 0
    outer loop
      vertex 87.7443700581789 -54.102339036762714 0
      vertex 87.61402655392885 -54.4863186404109 1.8
      vertex 87.61402655392885 -54.4863186404109 0
    endloop
  endfacet
  facet normal 0.9469301351436078 -0.3214394486632104 0
    outer loop
      vertex 87.7443700581789 -54.102339036762714 0
      vertex 87.7443700581789 -54.102339036762714 1.8
      vertex 87.61402655392885 -54.4863186404109 1.8
    endloop
  endfacet
  facet normal 0.9807852782113347 -0.19509033303553228 0
    outer loop
      vertex 87.8234790712595 -53.70463119447231 0
      vertex 87.7443700581789 -54.102339036762714 1.8
      vertex 87.7443700581789 -54.102339036762714 0
    endloop
  endfacet
  facet normal 0.9807852782113347 -0.19509033303553228 0
    outer loop
      vertex 87.8234790712595 -53.70463119447231 0
      vertex 87.8234790712595 -53.70463119447231 1.8
      vertex 87.7443700581789 -54.102339036762714 1.8
    endloop
  endfacet
  facet normal 0.997858923176398 -0.06540313017921481 0
    outer loop
      vertex 87.85000000149012 -53.29999999701977 0
      vertex 87.8234790712595 -53.70463119447231 1.8
      vertex 87.8234790712595 -53.70463119447231 0
    endloop
  endfacet
  facet normal 0.997858923176398 -0.06540313017921481 0
    outer loop
      vertex 87.85000000149012 -53.29999999701977 0
      vertex 87.85000000149012 -53.29999999701977 1.8
      vertex 87.8234790712595 -53.70463119447231 1.8
    endloop
  endfacet
  facet normal 1 0 0
    outer loop
      vertex 87.85000000149012 53.29999999701977 0
      vertex 87.85000000149012 -53.29999999701977 1.8
      vertex 87.85000000149012 -53.29999999701977 0
    endloop
  endfacet
  facet normal 1 0 0
    outer loop
      vertex 87.85000000149012 53.29999999701977 0
      vertex 87.85000000149012 53.29999999701977 1.8
      vertex 87.85000000149012 -53.29999999701977 1.8
    endloop
  endfacet
  facet normal 0.997858923176398 0.06540313017921481 0
    outer loop
      vertex 87.8234790712595 53.70463119447231 0
      vertex 87.85000000149012 53.29999999701977 1.8
      vertex 87.85000000149012 53.29999999701977 0
    endloop
  endfacet
  facet normal 0.997858923176398 0.06540313017921481 0
    outer loop
      vertex 87.8234790712595 53.70463119447231 0
      vertex 87.8234790712595 53.70463119447231 1.8
      vertex 87.85000000149012 53.29999999701977 1.8
    endloop
  endfacet
  facet normal 0.9807852782113347 0.19509033303553228 0
    outer loop
      vertex 87.7443700581789 54.102339036762714 0
      vertex 87.8234790712595 53.70463119447231 1.8
      vertex 87.8234790712595 53.70463119447231 0
    endloop
  endfacet
  facet normal 0.9807852782113347 0.19509033303553228 0
    outer loop
      vertex 87.7443700581789 54.102339036762714 0
      vertex 87.7443700581789 54.102339036762714 1.8
      vertex 87.8234790712595 53.70463119447231 1.8
    endloop
  endfacet
  facet normal 0.9469301351436078 0.3214394486632104 0
    outer loop
      vertex 87.61402655392885 54.4863186404109 0
      vertex 87.7443700581789 54.102339036762714 1.8
      vertex 87.7443700581789 54.102339036762714 0
    endloop
  endfacet
  facet normal 0.9469301351436078 0.3214394486632104 0
    outer loop
      vertex 87.61402655392885 54.4863186404109 0
      vertex 87.61402655392885 54.4863186404109 1.8
      vertex 87.7443700581789 54.102339036762714 1.8
    endloop
  endfacet
  facet normal 0.8968727321376394 0.4422887092702752 0
    outer loop
      vertex 87.43467874825001 54.849999994039536 0
      vertex 87.61402655392885 54.4863186404109 1.8
      vertex 87.61402655392885 54.4863186404109 0
    endloop
  endfacet
  facet normal 0.8968727321376394 0.4422887092702752 0
    outer loop
      vertex 87.43467874825001 54.849999994039536 0
      vertex 87.43467874825001 54.849999994039536 1.8
      vertex 87.61402655392885 54.4863186404109 1.8
    endloop
  endfacet
  facet normal 0.8314696187628762 0.5555702233510336 0
    outer loop
      vertex 87.2093953564763 55.187160424888134 0
      vertex 87.43467874825001 54.849999994039536 1.8
      vertex 87.43467874825001 54.849999994039536 0
    endloop
  endfacet
  facet normal 0.8314696187628762 0.5555702233510336 0
    outer loop
      vertex 87.2093953564763 55.187160424888134 0
      vertex 87.2093953564763 55.187160424888134 1.8
      vertex 87.43467874825001 54.849999994039536 1.8
    endloop
  endfacet
  facet normal 0.7518398003226239 0.6593458232603261 0
    outer loop
      vertex 86.94203101843596 55.49203101545572 0
      vertex 87.2093953564763 55.187160424888134 1.8
      vertex 87.2093953564763 55.187160424888134 0
    endloop
  endfacet
  facet normal 0.7518398003226239 0.6593458232603261 0
    outer loop
      vertex 86.94203101843596 55.49203101545572 0
      vertex 86.94203101843596 55.49203101545572 1.8
      vertex 87.2093953564763 55.187160424888134 1.8
    endloop
  endfacet
  facet normal 0.6593458232603261 0.7518398003226239 0
    outer loop
      vertex 86.63716042786837 55.759395353496075 0
      vertex 86.94203101843596 55.49203101545572 1.8
      vertex 86.94203101843596 55.49203101545572 0
    endloop
  endfacet
  facet normal 0.6593458232603261 0.7518398003226239 0
    outer loop
      vertex 86.63716042786837 55.759395353496075 0
      vertex 86.63716042786837 55.759395353496075 1.8
      vertex 86.94203101843596 55.49203101545572 1.8
    endloop
  endfacet
  facet normal 0.5555702233510336 0.8314696187628762 0
    outer loop
      vertex 86.29999999701977 55.984678745269775 0
      vertex 86.63716042786837 55.759395353496075 1.8
      vertex 86.63716042786837 55.759395353496075 0
    endloop
  endfacet
  facet normal 0.5555702233510336 0.8314696187628762 0
    outer loop
      vertex 86.29999999701977 55.984678745269775 0
      vertex 86.29999999701977 55.984678745269775 1.8
      vertex 86.63716042786837 55.759395353496075 1.8
    endloop
  endfacet
  facet normal 0.4422887092702752 0.8968727321376394 0
    outer loop
      vertex 85.93631864339113 56.16402655094862 0
      vertex 86.29999999701977 55.984678745269775 1.8
      vertex 86.29999999701977 55.984678745269775 0
    endloop
  endfacet
  facet normal 0.4422887092702752 0.8968727321376394 0
    outer loop
      vertex 85.93631864339113 56.16402655094862 0
      vertex 85.93631864339113 56.16402655094862 1.8
      vertex 86.29999999701977 55.984678745269775 1.8
    endloop
  endfacet
  facet normal 0.3214394486632104 0.9469301351436078 0
    outer loop
      vertex 85.55233903974295 56.29437005519867 0
      vertex 85.93631864339113 56.16402655094862 1.8
      vertex 85.93631864339113 56.16402655094862 0
    endloop
  endfacet
  facet normal 0.3214394486632104 0.9469301351436078 0
    outer loop
      vertex 85.55233903974295 56.29437005519867 0
      vertex 85.55233903974295 56.29437005519867 1.8
      vertex 85.93631864339113 56.16402655094862 1.8
    endloop
  endfacet
  facet normal 0.19509033303553228 0.9807852782113347 0
    outer loop
      vertex 85.15463119745255 56.373479068279266 0
      vertex 85.55233903974295 56.29437005519867 1.8
      vertex 85.55233903974295 56.29437005519867 0
    endloop
  endfacet
  facet normal 0.19509033303553228 0.9807852782113347 0
    outer loop
      vertex 85.15463119745255 56.373479068279266 0
      vertex 85.15463119745255 56.373479068279266 1.8
      vertex 85.55233903974295 56.29437005519867 1.8
    endloop
  endfacet
  facet normal 0.06540313017921481 0.997858923176398 0
    outer loop
      vertex 84.75 56.399999998509884 0
      vertex 85.15463119745255 56.373479068279266 1.8
      vertex 85.15463119745255 56.373479068279266 0
    endloop
  endfacet
  facet normal 0.06540313017921481 0.997858923176398 0
    outer loop
      vertex 84.75 56.399999998509884 0
      vertex 84.75 56.399999998509884 1.8
      vertex 85.15463119745255 56.373479068279266 1.8
    endloop
  endfacet
  facet normal 0 1 0
    outer loop
      vertex -84.75 56.399999998509884 0
      vertex 84.75 56.399999998509884 1.8
      vertex 84.75 56.399999998509884 0
    endloop
  endfacet
  facet normal 0 1 0
    outer loop
      vertex -84.75 56.399999998509884 0
      vertex -84.75 56.399999998509884 1.8
      vertex 84.75 56.399999998509884 1.8
    endloop
  endfacet
  facet normal -0.06540313017921481 0.997858923176398 0
    outer loop
      vertex -85.15463119745255 56.373479068279266 0
      vertex -84.75 56.399999998509884 1.8
      vertex -84.75 56.399999998509884 0
    endloop
  endfacet
  facet normal -0.06540313017921481 0.997858923176398 0
    outer loop
      vertex -85.15463119745255 56.373479068279266 0
      vertex -85.15463119745255 56.373479068279266 1.8
      vertex -84.75 56.399999998509884 1.8
    endloop
  endfacet
  facet normal -0.19509033303553228 0.9807852782113347 0
    outer loop
      vertex -85.55233903974295 56.29437005519867 0
      vertex -85.15463119745255 56.373479068279266 1.8
      vertex -85.15463119745255 56.373479068279266 0
    endloop
  endfacet
  facet normal -0.19509033303553228 0.9807852782113347 0
    outer loop
      vertex -85.55233903974295 56.29437005519867 0
      vertex -85.55233903974295 56.29437005519867 1.8
      vertex -85.15463119745255 56.373479068279266 1.8
    endloop
  endfacet
  facet normal -0.3214394486632104 0.9469301351436078 0
    outer loop
      vertex -85.93631864339113 56.16402655094862 0
      vertex -85.55233903974295 56.29437005519867 1.8
      vertex -85.55233903974295 56.29437005519867 0
    endloop
  endfacet
  facet normal -0.3214394486632104 0.9469301351436078 0
    outer loop
      vertex -85.93631864339113 56.16402655094862 0
      vertex -85.93631864339113 56.16402655094862 1.8
      vertex -85.55233903974295 56.29437005519867 1.8
    endloop
  endfacet
  facet normal -0.4422887092702752 0.8968727321376394 0
    outer loop
      vertex -86.29999999701977 55.984678745269775 0
      vertex -85.93631864339113 56.16402655094862 1.8
      vertex -85.93631864339113 56.16402655094862 0
    endloop
  endfacet
  facet normal -0.4422887092702752 0.8968727321376394 0
    outer loop
      vertex -86.29999999701977 55.984678745269775 0
      vertex -86.29999999701977 55.984678745269775 1.8
      vertex -85.93631864339113 56.16402655094862 1.8
    endloop
  endfacet
  facet normal -0.5555702233510336 0.8314696187628762 0
    outer loop
      vertex -86.63716042786837 55.759395353496075 0
      vertex -86.29999999701977 55.984678745269775 1.8
      vertex -86.29999999701977 55.984678745269775 0
    endloop
  endfacet
  facet normal -0.5555702233510336 0.8314696187628762 0
    outer loop
      vertex -86.63716042786837 55.759395353496075 0
      vertex -86.63716042786837 55.759395353496075 1.8
      vertex -86.29999999701977 55.984678745269775 1.8
    endloop
  endfacet
  facet normal -0.6593458232603261 0.7518398003226239 0
    outer loop
      vertex -86.94203101843596 55.49203101545572 0
      vertex -86.63716042786837 55.759395353496075 1.8
      vertex -86.63716042786837 55.759395353496075 0
    endloop
  endfacet
  facet normal -0.6593458232603261 0.7518398003226239 0
    outer loop
      vertex -86.94203101843596 55.49203101545572 0
      vertex -86.94203101843596 55.49203101545572 1.8
      vertex -86.63716042786837 55.759395353496075 1.8
    endloop
  endfacet
  facet normal -0.7518398003226239 0.6593458232603261 0
    outer loop
      vertex -87.2093953564763 55.187160424888134 0
      vertex -86.94203101843596 55.49203101545572 1.8
      vertex -86.94203101843596 55.49203101545572 0
    endloop
  endfacet
  facet normal -0.7518398003226239 0.6593458232603261 0
    outer loop
      vertex -87.2093953564763 55.187160424888134 0
      vertex -87.2093953564763 55.187160424888134 1.8
      vertex -86.94203101843596 55.49203101545572 1.8
    endloop
  endfacet
  facet normal -0.8314696187628762 0.5555702233510336 0
    outer loop
      vertex -87.43467874825001 54.849999994039536 0
      vertex -87.2093953564763 55.187160424888134 1.8
      vertex -87.2093953564763 55.187160424888134 0
    endloop
  endfacet
  facet normal -0.8314696187628762 0.5555702233510336 0
    outer loop
      vertex -87.43467874825001 54.849999994039536 0
      vertex -87.43467874825001 54.849999994039536 1.8
      vertex -87.2093953564763 55.187160424888134 1.8
    endloop
  endfacet
  facet normal -0.8968727321376394 0.4422887092702752 0
    outer loop
      vertex -87.61402655392885 54.4863186404109 0
      vertex -87.43467874825001 54.849999994039536 1.8
      vertex -87.43467874825001 54.849999994039536 0
    endloop
  endfacet
  facet normal -0.8968727321376394 0.4422887092702752 0
    outer loop
      vertex -87.61402655392885 54.4863186404109 0
      vertex -87.61402655392885 54.4863186404109 1.8
      vertex -87.43467874825001 54.849999994039536 1.8
    endloop
  endfacet
  facet normal -0.9469301351436078 0.3214394486632104 0
    outer loop
      vertex -87.7443700581789 54.102339036762714 0
      vertex -87.61402655392885 54.4863186404109 1.8
      vertex -87.61402655392885 54.4863186404109 0
    endloop
  endfacet
  facet normal -0.9469301351436078 0.3214394486632104 0
    outer loop
      vertex -87.7443700581789 54.102339036762714 0
      vertex -87.7443700581789 54.102339036762714 1.8
      vertex -87.61402655392885 54.4863186404109 1.8
    endloop
  endfacet
  facet normal -0.9807852782113347 0.19509033303553228 0
    outer loop
      vertex -87.8234790712595 53.70463119447231 0
      vertex -87.7443700581789 54.102339036762714 1.8
      vertex -87.7443700581789 54.102339036762714 0
    endloop
  endfacet
  facet normal -0.9807852782113347 0.19509033303553228 0
    outer loop
      vertex -87.8234790712595 53.70463119447231 0
      vertex -87.8234790712595 53.70463119447231 1.8
      vertex -87.7443700581789 54.102339036762714 1.8
    endloop
  endfacet
  facet normal -0.997858923176398 0.06540313017921481 0
    outer loop
      vertex -87.85000000149012 53.29999999701977 0
      vertex -87.8234790712595 53.70463119447231 1.8
      vertex -87.8234790712595 53.70463119447231 0
    endloop
  endfacet
  facet normal -0.997858923176398 0.06540313017921481 0
    outer loop
      vertex -87.85000000149012 53.29999999701977 0
      vertex -87.85000000149012 53.29999999701977 1.8
      vertex -87.8234790712595 53.70463119447231 1.8
    endloop
  endfacet
  facet normal -1 0 0
    outer loop
      vertex -87.85000000149012 -53.29999999701977 0
      vertex -87.85000000149012 53.29999999701977 1.8
      vertex -87.85000000149012 53.29999999701977 0
    endloop
  endfacet
  facet normal -1 0 0
    outer loop
      vertex -87.85000000149012 -53.29999999701977 0
      vertex -87.85000000149012 -53.29999999701977 1.8
      vertex -87.85000000149012 53.29999999701977 1.8
    endloop
  endfacet
  facet normal -0.997858923176398 -0.06540313017921481 0
    outer loop
      vertex -87.8234790712595 -53.70463119447231 0
      vertex -87.85000000149012 -53.29999999701977 1.8
      vertex -87.85000000149012 -53.29999999701977 0
    endloop
  endfacet
  facet normal -0.997858923176398 -0.06540313017921481 0
    outer loop
      vertex -87.8234790712595 -53.70463119447231 0
      vertex -87.8234790712595 -53.70463119447231 1.8
      vertex -87.85000000149012 -53.29999999701977 1.8
    endloop
  endfacet
  facet normal -0.9807852782113347 -0.19509033303553228 0
    outer loop
      vertex -87.7443700581789 -54.102339036762714 0
      vertex -87.8234790712595 -53.70463119447231 1.8
      vertex -87.8234790712595 -53.70463119447231 0
    endloop
  endfacet
  facet normal -0.9807852782113347 -0.19509033303553228 0
    outer loop
      vertex -87.7443700581789 -54.102339036762714 0
      vertex -87.7443700581789 -54.102339036762714 1.8
      vertex -87.8234790712595 -53.70463119447231 1.8
    endloop
  endfacet
  facet normal -0.9469301351436078 -0.3214394486632104 0
    outer loop
      vertex -87.61402655392885 -54.4863186404109 0
      vertex -87.7443700581789 -54.102339036762714 1.8
      vertex -87.7443700581789 -54.102339036762714 0
    endloop
  endfacet
  facet normal -0.9469301351436078 -0.3214394486632104 0
    outer loop
      vertex -87.61402655392885 -54.4863186404109 0
      vertex -87.61402655392885 -54.4863186404109 1.8
      vertex -87.7443700581789 -54.102339036762714 1.8
    endloop
  endfacet
  facet normal -0.8968727321376394 -0.4422887092702752 0
    outer loop
      vertex -87.43467874825001 -54.849999994039536 0
      vertex -87.61402655392885 -54.4863186404109 1.8
      vertex -87.61402655392885 -54.4863186404109 0
    endloop
  endfacet
  facet normal -0.8968727321376394 -0.4422887092702752 0
    outer loop
      vertex -87.43467874825001 -54.849999994039536 0
      vertex -87.43467874825001 -54.849999994039536 1.8
      vertex -87.61402655392885 -54.4863186404109 1.8
    endloop
  endfacet
  facet normal -0.8314696187628762 -0.5555702233510336 0
    outer loop
      vertex -87.2093953564763 -55.187160424888134 0
      vertex -87.43467874825001 -54.849999994039536 1.8
      vertex -87.43467874825001 -54.849999994039536 0
    endloop
  endfacet
  facet normal -0.8314696187628762 -0.5555702233510336 0
    outer loop
      vertex -87.2093953564763 -55.187160424888134 0
      vertex -87.2093953564763 -55.187160424888134 1.8
      vertex -87.43467874825001 -54.849999994039536 1.8
    endloop
  endfacet
  facet normal -0.7518398003226239 -0.6593458232603261 0
    outer loop
      vertex -86.94203101843596 -55.49203101545572 0
      vertex -87.2093953564763 -55.187160424888134 1.8
      vertex -87.2093953564763 -55.187160424888134 0
    endloop
  endfacet
  facet normal -0.7518398003226239 -0.6593458232603261 0
    outer loop
      vertex -86.94203101843596 -55.49203101545572 0
      vertex -86.94203101843596 -55.49203101545572 1.8
      vertex -87.2093953564763 -55.187160424888134 1.8
    endloop
  endfacet
  facet normal -0.6593458232603261 -0.7518398003226239 0
    outer loop
      vertex -86.63716042786837 -55.759395353496075 0
      vertex -86.94203101843596 -55.49203101545572 1.8
      vertex -86.94203101843596 -55.49203101545572 0
    endloop
  endfacet
  facet normal -0.6593458232603261 -0.7518398003226239 0
    outer loop
      vertex -86.63716042786837 -55.759395353496075 0
      vertex -86.63716042786837 -55.759395353496075 1.8
      vertex -86.94203101843596 -55.49203101545572 1.8
    endloop
  endfacet
  facet normal -0.5555702233510336 -0.8314696187628762 0
    outer loop
      vertex -86.29999999701977 -55.984678745269775 0
      vertex -86.63716042786837 -55.759395353496075 1.8
      vertex -86.63716042786837 -55.759395353496075 0
    endloop
  endfacet
  facet normal -0.5555702233510336 -0.8314696187628762 0
    outer loop
      vertex -86.29999999701977 -55.984678745269775 0
      vertex -86.29999999701977 -55.984678745269775 1.8
      vertex -86.63716042786837 -55.759395353496075 1.8
    endloop
  endfacet
  facet normal -0.4422887092702752 -0.8968727321376394 0
    outer loop
      vertex -85.93631864339113 -56.16402655094862 0
      vertex -86.29999999701977 -55.984678745269775 1.8
      vertex -86.29999999701977 -55.984678745269775 0
    endloop
  endfacet
  facet normal -0.4422887092702752 -0.8968727321376394 0
    outer loop
      vertex -85.93631864339113 -56.16402655094862 0
      vertex -85.93631864339113 -56.16402655094862 1.8
      vertex -86.29999999701977 -55.984678745269775 1.8
    endloop
  endfacet
  facet normal -0.3214394486632104 -0.9469301351436078 0
    outer loop
      vertex -85.55233903974295 -56.29437005519867 0
      vertex -85.93631864339113 -56.16402655094862 1.8
      vertex -85.93631864339113 -56.16402655094862 0
    endloop
  endfacet
  facet normal -0.3214394486632104 -0.9469301351436078 0
    outer loop
      vertex -85.55233903974295 -56.29437005519867 0
      vertex -85.55233903974295 -56.29437005519867 1.8
      vertex -85.93631864339113 -56.16402655094862 1.8
    endloop
  endfacet
  facet normal -0.19509033303553228 -0.9807852782113347 0
    outer loop
      vertex -85.15463119745255 -56.373479068279266 0
      vertex -85.55233903974295 -56.29437005519867 1.8
      vertex -85.55233903974295 -56.29437005519867 0
    endloop
  endfacet
  facet normal -0.19509033303553228 -0.9807852782113347 0
    outer loop
      vertex -85.15463119745255 -56.373479068279266 0
      vertex -85.15463119745255 -56.373479068279266 1.8
      vertex -85.55233903974295 -56.29437005519867 1.8
    endloop
  endfacet
  facet normal -0.06540313017921481 -0.997858923176398 0
    outer loop
      vertex -84.75 -56.399999998509884 0
      vertex -85.15463119745255 -56.373479068279266 1.8
      vertex -85.15463119745255 -56.373479068279266 0
    endloop
  endfacet
  facet normal -0.06540313017921481 -0.997858923176398 0
    outer loop
      vertex -84.75 -56.399999998509884 0
      vertex -84.75 -56.399999998509884 1.8
      vertex -85.15463119745255 -56.373479068279266 1.8
    endloop
  endfacet
  facet normal 0 -1 0
    outer loop
      vertex 84.75 -56.399999998509884 0
      vertex -84.75 -56.399999998509884 1.8
      vertex -84.75 -56.399999998509884 0
    endloop
  endfacet
  facet normal 0 -1 0
    outer loop
      vertex 84.75 -56.399999998509884 0
      vertex 84.75 -56.399999998509884 1.8
      vertex -84.75 -56.399999998509884 1.8
    endloop
  endfacet
  facet normal 0.06540313017921481 -0.997858923176398 0
    outer loop
      vertex 85.15463119745255 -56.373479068279266 0
      vertex 84.75 -56.399999998509884 1.8
      vertex 84.75 -56.399999998509884 0
    endloop
  endfacet
  facet normal 0.06540313017921481 -0.997858923176398 0
    outer loop
      vertex 85.15463119745255 -56.373479068279266 0
      vertex 85.15463119745255 -56.373479068279266 1.8
      vertex 84.75 -56.399999998509884 1.8
    endloop
  endfacet
  facet normal 0.06540312465105791 0.9978589235387326 0
    outer loop
      vertex -83.81541026383638 -54.1819486618042 0
      vertex -83.81541026383638 -54.1819486618042 1.8
      vertex -83.53999999910593 -54.20000000298023 0
    endloop
  endfacet
  facet normal 0.06540312465105791 0.9978589235387326 0
    outer loop
      vertex -83.53999999910593 -54.20000000298023 1.8
      vertex -83.53999999910593 -54.20000000298023 0
      vertex -83.81541026383638 -54.1819486618042 1.8
    endloop
  endfacet
  facet normal 0.1950903315895825 0.9807852784989519 0
    outer loop
      vertex -84.0861081853509 -54.128103494644165 0
      vertex -84.0861081853509 -54.128103494644165 1.8
      vertex -83.81541026383638 -54.1819486618042 0
    endloop
  endfacet
  facet normal 0.1950903315895825 0.9807852784989519 0
    outer loop
      vertex -83.81541026383638 -54.1819486618042 1.8
      vertex -83.81541026383638 -54.1819486618042 0
      vertex -84.0861081853509 -54.128103494644165 1.8
    endloop
  endfacet
  facet normal 0.32143945423573905 0.9469301332519894 0
    outer loop
      vertex -84.34746204316616 -54.039385817945 0
      vertex -84.34746204316616 -54.039385817945 1.8
      vertex -84.0861081853509 -54.128103494644165 0
    endloop
  endfacet
  facet normal 0.32143945423573905 0.9469301332519894 0
    outer loop
      vertex -84.0861081853509 -54.128103494644165 1.8
      vertex -84.0861081853509 -54.128103494644165 0
      vertex -84.34746204316616 -54.039385817945 1.8
    endloop
  endfacet
  facet normal 0.44228869547713656 0.8968727389396629 0
    outer loop
      vertex -84.5949999988079 -53.91731360554695 0
      vertex -84.5949999988079 -53.91731360554695 1.8
      vertex -84.34746204316616 -54.039385817945 0
    endloop
  endfacet
  facet normal 0.44228869547713656 0.8968727389396629 0
    outer loop
      vertex -84.34746204316616 -54.039385817945 1.8
      vertex -84.34746204316616 -54.039385817945 0
      vertex -84.5949999988079 -53.91731360554695 1.8
    endloop
  endfacet
  facet normal 0.555570230159037 0.8314696142139139 0
    outer loop
      vertex -84.82448661327362 -53.76397555321455 0
      vertex -84.82448661327362 -53.76397555321455 1.8
      vertex -84.5949999988079 -53.91731360554695 0
    endloop
  endfacet
  facet normal 0.555570230159037 0.8314696142139139 0
    outer loop
      vertex -84.5949999988079 -53.91731360554695 1.8
      vertex -84.5949999988079 -53.91731360554695 0
      vertex -84.82448661327362 -53.76397555321455 1.8
    endloop
  endfacet
  facet normal 0.6593458299366579 0.7518397944676377 0
    outer loop
      vertex -85.03199530392885 -53.5819953083992 0
      vertex -85.03199530392885 -53.5819953083992 1.8
      vertex -84.82448661327362 -53.76397555321455 0
    endloop
  endfacet
  facet normal 0.6593458299366579 0.7518397944676377 0
    outer loop
      vertex -84.82448661327362 -53.76397555321455 1.8
      vertex -84.82448661327362 -53.76397555321455 0
      vertex -85.03199530392885 -53.5819953083992 1.8
    endloop
  endfacet
  facet normal 0.7518397944676377 0.6593458299366579 0
    outer loop
      vertex -85.2139755487442 -53.37448661774397 0
      vertex -85.2139755487442 -53.37448661774397 1.8
      vertex -85.03199530392885 -53.5819953083992 0
    endloop
  endfacet
  facet normal 0.7518397944676377 0.6593458299366579 0
    outer loop
      vertex -85.03199530392885 -53.5819953083992 1.8
      vertex -85.03199530392885 -53.5819953083992 0
      vertex -85.2139755487442 -53.37448661774397 1.8
    endloop
  endfacet
  facet normal 0.8314696142139139 0.555570230159037 0
    outer loop
      vertex -85.3673136010766 -53.145000003278255 0
      vertex -85.3673136010766 -53.145000003278255 1.8
      vertex -85.2139755487442 -53.37448661774397 0
    endloop
  endfacet
  facet normal 0.8314696142139139 0.555570230159037 0
    outer loop
      vertex -85.2139755487442 -53.37448661774397 1.8
      vertex -85.2139755487442 -53.37448661774397 0
      vertex -85.3673136010766 -53.145000003278255 1.8
    endloop
  endfacet
  facet normal 0.8968727389396629 0.44228869547713656 0
    outer loop
      vertex -85.48938581347466 -52.89746204763651 0
      vertex -85.48938581347466 -52.89746204763651 1.8
      vertex -85.3673136010766 -53.145000003278255 0
    endloop
  endfacet
  facet normal 0.8968727389396629 0.44228869547713656 0
    outer loop
      vertex -85.3673136010766 -53.145000003278255 1.8
      vertex -85.3673136010766 -53.145000003278255 0
      vertex -85.48938581347466 -52.89746204763651 1.8
    endloop
  endfacet
  facet normal 0.9469301332519894 0.32143945423573905 0
    outer loop
      vertex -85.57810349017382 -52.63610818982124 0
      vertex -85.57810349017382 -52.63610818982124 1.8
      vertex -85.48938581347466 -52.89746204763651 0
    endloop
  endfacet
  facet normal 0.9469301332519894 0.32143945423573905 0
    outer loop
      vertex -85.48938581347466 -52.89746204763651 1.8
      vertex -85.48938581347466 -52.89746204763651 0
      vertex -85.57810349017382 -52.63610818982124 1.8
    endloop
  endfacet
  facet normal 0.9807852784989519 0.1950903315895825 0
    outer loop
      vertex -85.63194865733385 -52.36541026830673 0
      vertex -85.63194865733385 -52.36541026830673 1.8
      vertex -85.57810349017382 -52.63610818982124 0
    endloop
  endfacet
  facet normal 0.9807852784989519 0.1950903315895825 0
    outer loop
      vertex -85.57810349017382 -52.63610818982124 1.8
      vertex -85.57810349017382 -52.63610818982124 0
      vertex -85.63194865733385 -52.36541026830673 1.8
    endloop
  endfacet
  facet normal 0.9978589235387326 0.06540312465105791 0
    outer loop
      vertex -85.64999999850988 -52.09000000357628 0
      vertex -85.64999999850988 -52.09000000357628 1.8
      vertex -85.63194865733385 -52.36541026830673 0
    endloop
  endfacet
  facet normal 0.9978589235387326 0.06540312465105791 0
    outer loop
      vertex -85.63194865733385 -52.36541026830673 1.8
      vertex -85.63194865733385 -52.36541026830673 0
      vertex -85.64999999850988 -52.09000000357628 1.8
    endloop
  endfacet
  facet normal 1 0 0
    outer loop
      vertex -85.64999999850988 52.09000000357628 0
      vertex -85.64999999850988 52.09000000357628 1.8
      vertex -85.64999999850988 -52.09000000357628 0
    endloop
  endfacet
  facet normal 1 0 0
    outer loop
      vertex -85.64999999850988 -52.09000000357628 1.8
      vertex -85.64999999850988 -52.09000000357628 0
      vertex -85.64999999850988 52.09000000357628 1.8
    endloop
  endfacet
  facet normal 0.9978589235387326 -0.06540312465105791 0
    outer loop
      vertex -85.63194865733385 52.36541026830673 0
      vertex -85.63194865733385 52.36541026830673 1.8
      vertex -85.64999999850988 52.09000000357628 0
    endloop
  endfacet
  facet normal 0.9978589235387326 -0.06540312465105791 0
    outer loop
      vertex -85.64999999850988 52.09000000357628 1.8
      vertex -85.64999999850988 52.09000000357628 0
      vertex -85.63194865733385 52.36541026830673 1.8
    endloop
  endfacet
  facet normal 0.9807852784989519 -0.1950903315895825 0
    outer loop
      vertex -85.57810349017382 52.63610818982124 0
      vertex -85.57810349017382 52.63610818982124 1.8
      vertex -85.63194865733385 52.36541026830673 0
    endloop
  endfacet
  facet normal 0.9807852784989519 -0.1950903315895825 0
    outer loop
      vertex -85.63194865733385 52.36541026830673 1.8
      vertex -85.63194865733385 52.36541026830673 0
      vertex -85.57810349017382 52.63610818982124 1.8
    endloop
  endfacet
  facet normal 0.9469301332519894 -0.32143945423573905 0
    outer loop
      vertex -85.48938581347466 52.89746204763651 0
      vertex -85.48938581347466 52.89746204763651 1.8
      vertex -85.57810349017382 52.63610818982124 0
    endloop
  endfacet
  facet normal 0.9469301332519894 -0.32143945423573905 0
    outer loop
      vertex -85.57810349017382 52.63610818982124 1.8
      vertex -85.57810349017382 52.63610818982124 0
      vertex -85.48938581347466 52.89746204763651 1.8
    endloop
  endfacet
  facet normal 0.8968727389396629 -0.44228869547713656 0
    outer loop
      vertex -85.3673136010766 53.145000003278255 0
      vertex -85.3673136010766 53.145000003278255 1.8
      vertex -85.48938581347466 52.89746204763651 0
    endloop
  endfacet
  facet normal 0.8968727389396629 -0.44228869547713656 0
    outer loop
      vertex -85.48938581347466 52.89746204763651 1.8
      vertex -85.48938581347466 52.89746204763651 0
      vertex -85.3673136010766 53.145000003278255 1.8
    endloop
  endfacet
  facet normal 0.8314696142139139 -0.555570230159037 0
    outer loop
      vertex -85.2139755487442 53.37448661774397 0
      vertex -85.2139755487442 53.37448661774397 1.8
      vertex -85.3673136010766 53.145000003278255 0
    endloop
  endfacet
  facet normal 0.8314696142139139 -0.555570230159037 0
    outer loop
      vertex -85.3673136010766 53.145000003278255 1.8
      vertex -85.3673136010766 53.145000003278255 0
      vertex -85.2139755487442 53.37448661774397 1.8
    endloop
  endfacet
  facet normal 0.7518397944676377 -0.6593458299366579 0
    outer loop
      vertex -85.03199530392885 53.5819953083992 0
      vertex -85.03199530392885 53.5819953083992 1.8
      vertex -85.2139755487442 53.37448661774397 0
    endloop
  endfacet
  facet normal 0.7518397944676377 -0.6593458299366579 0
    outer loop
      vertex -85.2139755487442 53.37448661774397 1.8
      vertex -85.2139755487442 53.37448661774397 0
      vertex -85.03199530392885 53.5819953083992 1.8
    endloop
  endfacet
  facet normal 0.6593458299366579 -0.7518397944676377 0
    outer loop
      vertex -84.82448661327362 53.76397555321455 0
      vertex -84.82448661327362 53.76397555321455 1.8
      vertex -85.03199530392885 53.5819953083992 0
    endloop
  endfacet
  facet normal 0.6593458299366579 -0.7518397944676377 0
    outer loop
      vertex -85.03199530392885 53.5819953083992 1.8
      vertex -85.03199530392885 53.5819953083992 0
      vertex -84.82448661327362 53.76397555321455 1.8
    endloop
  endfacet
  facet normal 0.555570230159037 -0.8314696142139139 0
    outer loop
      vertex -84.5949999988079 53.91731360554695 0
      vertex -84.5949999988079 53.91731360554695 1.8
      vertex -84.82448661327362 53.76397555321455 0
    endloop
  endfacet
  facet normal 0.555570230159037 -0.8314696142139139 0
    outer loop
      vertex -84.82448661327362 53.76397555321455 1.8
      vertex -84.82448661327362 53.76397555321455 0
      vertex -84.5949999988079 53.91731360554695 1.8
    endloop
  endfacet
  facet normal 0.44228869547713656 -0.8968727389396629 0
    outer loop
      vertex -84.34746204316616 54.039385817945 0
      vertex -84.34746204316616 54.039385817945 1.8
      vertex -84.5949999988079 53.91731360554695 0
    endloop
  endfacet
  facet normal 0.44228869547713656 -0.8968727389396629 0
    outer loop
      vertex -84.5949999988079 53.91731360554695 1.8
      vertex -84.5949999988079 53.91731360554695 0
      vertex -84.34746204316616 54.039385817945 1.8
    endloop
  endfacet
  facet normal 0.32143945423573905 -0.9469301332519894 0
    outer loop
      vertex -84.0861081853509 54.128103494644165 0
      vertex -84.0861081853509 54.128103494644165 1.8
      vertex -84.34746204316616 54.039385817945 0
    endloop
  endfacet
  facet normal 0.32143945423573905 -0.9469301332519894 0
    outer loop
      vertex -84.34746204316616 54.039385817945 1.8
      vertex -84.34746204316616 54.039385817945 0
      vertex -84.0861081853509 54.128103494644165 1.8
    endloop
  endfacet
  facet normal 0.1950903315895825 -0.9807852784989519 0
    outer loop
      vertex -83.81541026383638 54.1819486618042 0
      vertex -83.81541026383638 54.1819486618042 1.8
      vertex -84.0861081853509 54.128103494644165 0
    endloop
  endfacet
  facet normal 0.1950903315895825 -0.9807852784989519 0
    outer loop
      vertex -84.0861081853509 54.128103494644165 1.8
      vertex -84.0861081853509 54.128103494644165 0
      vertex -83.81541026383638 54.1819486618042 1.8
    endloop
  endfacet
  facet normal 0.06540312465105791 -0.9978589235387326 0
    outer loop
      vertex -83.53999999910593 54.20000000298023 0
      vertex -83.53999999910593 54.20000000298023 1.8
      vertex -83.81541026383638 54.1819486618042 0
    endloop
  endfacet
  facet normal 0.06540312465105791 -0.9978589235387326 0
    outer loop
      vertex -83.81541026383638 54.1819486618042 1.8
      vertex -83.81541026383638 54.1819486618042 0
      vertex -83.53999999910593 54.20000000298023 1.8
    endloop
  endfacet
  facet normal 0 -1 0
    outer loop
      vertex 83.53999999910593 54.20000000298023 0
      vertex 83.53999999910593 54.20000000298023 1.8
      vertex -83.53999999910593 54.20000000298023 0
    endloop
  endfacet
  facet normal 0 -1 0
    outer loop
      vertex -83.53999999910593 54.20000000298023 1.8
      vertex -83.53999999910593 54.20000000298023 0
      vertex 83.53999999910593 54.20000000298023 1.8
    endloop
  endfacet
  facet normal -0.06540312465105791 -0.9978589235387326 0
    outer loop
      vertex 83.81541026383638 54.1819486618042 0
      vertex 83.81541026383638 54.1819486618042 1.8
      vertex 83.53999999910593 54.20000000298023 0
    endloop
  endfacet
  facet normal -0.06540312465105791 -0.9978589235387326 0
    outer loop
      vertex 83.53999999910593 54.20000000298023 1.8
      vertex 83.53999999910593 54.20000000298023 0
      vertex 83.81541026383638 54.1819486618042 1.8
    endloop
  endfacet
  facet normal -0.1950903315895825 -0.9807852784989519 0
    outer loop
      vertex 84.0861081853509 54.128103494644165 0
      vertex 84.0861081853509 54.128103494644165 1.8
      vertex 83.81541026383638 54.1819486618042 0
    endloop
  endfacet
  facet normal -0.1950903315895825 -0.9807852784989519 0
    outer loop
      vertex 83.81541026383638 54.1819486618042 1.8
      vertex 83.81541026383638 54.1819486618042 0
      vertex 84.0861081853509 54.128103494644165 1.8
    endloop
  endfacet
  facet normal -0.32143945423573905 -0.9469301332519894 0
    outer loop
      vertex 84.34746204316616 54.039385817945 0
      vertex 84.34746204316616 54.039385817945 1.8
      vertex 84.0861081853509 54.128103494644165 0
    endloop
  endfacet
  facet normal -0.32143945423573905 -0.9469301332519894 0
    outer loop
      vertex 84.0861081853509 54.128103494644165 1.8
      vertex 84.0861081853509 54.128103494644165 0
      vertex 84.34746204316616 54.039385817945 1.8
    endloop
  endfacet
  facet normal -0.44228869547713656 -0.8968727389396629 0
    outer loop
      vertex 84.5949999988079 53.91731360554695 0
      vertex 84.5949999988079 53.91731360554695 1.8
      vertex 84.34746204316616 54.039385817945 0
    endloop
  endfacet
  facet normal -0.44228869547713656 -0.8968727389396629 0
    outer loop
      vertex 84.34746204316616 54.039385817945 1.8
      vertex 84.34746204316616 54.039385817945 0
      vertex 84.5949999988079 53.91731360554695 1.8
    endloop
  endfacet
  facet normal -0.555570230159037 -0.8314696142139139 0
    outer loop
      vertex 84.82448661327362 53.76397555321455 0
      vertex 84.82448661327362 53.76397555321455 1.8
      vertex 84.5949999988079 53.91731360554695 0
    endloop
  endfacet
  facet normal -0.555570230159037 -0.8314696142139139 0
    outer loop
      vertex 84.5949999988079 53.91731360554695 1.8
      vertex 84.5949999988079 53.91731360554695 0
      vertex 84.82448661327362 53.76397555321455 1.8
    endloop
  endfacet
  facet normal -0.6593458299366579 -0.7518397944676377 0
    outer loop
      vertex 85.03199530392885 53.5819953083992 0
      vertex 85.03199530392885 53.5819953083992 1.8
      vertex 84.82448661327362 53.76397555321455 0
    endloop
  endfacet
  facet normal -0.6593458299366579 -0.7518397944676377 0
    outer loop
      vertex 84.82448661327362 53.76397555321455 1.8
      vertex 84.82448661327362 53.76397555321455 0
      vertex 85.03199530392885 53.5819953083992 1.8
    endloop
  endfacet
  facet normal -0.7518397944676377 -0.6593458299366579 0
    outer loop
      vertex 85.2139755487442 53.37448661774397 0
      vertex 85.2139755487442 53.37448661774397 1.8
      vertex 85.03199530392885 53.5819953083992 0
    endloop
  endfacet
  facet normal -0.7518397944676377 -0.6593458299366579 0
    outer loop
      vertex 85.03199530392885 53.5819953083992 1.8
      vertex 85.03199530392885 53.5819953083992 0
      vertex 85.2139755487442 53.37448661774397 1.8
    endloop
  endfacet
  facet normal -0.8314696142139139 -0.555570230159037 0
    outer loop
      vertex 85.3673136010766 53.145000003278255 0
      vertex 85.3673136010766 53.145000003278255 1.8
      vertex 85.2139755487442 53.37448661774397 0
    endloop
  endfacet
  facet normal -0.8314696142139139 -0.555570230159037 0
    outer loop
      vertex 85.2139755487442 53.37448661774397 1.8
      vertex 85.2139755487442 53.37448661774397 0
      vertex 85.3673136010766 53.145000003278255 1.8
    endloop
  endfacet
  facet normal -0.8968727389396629 -0.44228869547713656 0
    outer loop
      vertex 85.48938581347466 52.89746204763651 0
      vertex 85.48938581347466 52.89746204763651 1.8
      vertex 85.3673136010766 53.145000003278255 0
    endloop
  endfacet
  facet normal -0.8968727389396629 -0.44228869547713656 0
    outer loop
      vertex 85.3673136010766 53.145000003278255 1.8
      vertex 85.3673136010766 53.145000003278255 0
      vertex 85.48938581347466 52.89746204763651 1.8
    endloop
  endfacet
  facet normal -0.9469301332519894 -0.32143945423573905 0
    outer loop
      vertex 85.57810349017382 52.63610818982124 0
      vertex 85.57810349017382 52.63610818982124 1.8
      vertex 85.48938581347466 52.89746204763651 0
    endloop
  endfacet
  facet normal -0.9469301332519894 -0.32143945423573905 0
    outer loop
      vertex 85.48938581347466 52.89746204763651 1.8
      vertex 85.48938581347466 52.89746204763651 0
      vertex 85.57810349017382 52.63610818982124 1.8
    endloop
  endfacet
  facet normal -0.9807852784989519 -0.1950903315895825 0
    outer loop
      vertex 85.63194865733385 52.36541026830673 0
      vertex 85.63194865733385 52.36541026830673 1.8
      vertex 85.57810349017382 52.63610818982124 0
    endloop
  endfacet
  facet normal -0.9807852784989519 -0.1950903315895825 0
    outer loop
      vertex 85.57810349017382 52.63610818982124 1.8
      vertex 85.57810349017382 52.63610818982124 0
      vertex 85.63194865733385 52.36541026830673 1.8
    endloop
  endfacet
  facet normal -0.9978589235387326 -0.06540312465105791 0
    outer loop
      vertex 85.64999999850988 52.09000000357628 0
      vertex 85.64999999850988 52.09000000357628 1.8
      vertex 85.63194865733385 52.36541026830673 0
    endloop
  endfacet
  facet normal -0.9978589235387326 -0.06540312465105791 0
    outer loop
      vertex 85.63194865733385 52.36541026830673 1.8
      vertex 85.63194865733385 52.36541026830673 0
      vertex 85.64999999850988 52.09000000357628 1.8
    endloop
  endfacet
  facet normal -1 0 0
    outer loop
      vertex 85.64999999850988 -52.09000000357628 0
      vertex 85.64999999850988 -52.09000000357628 1.8
      vertex 85.64999999850988 52.09000000357628 0
    endloop
  endfacet
  facet normal -1 0 0
    outer loop
      vertex 85.64999999850988 52.09000000357628 1.8
      vertex 85.64999999850988 52.09000000357628 0
      vertex 85.64999999850988 -52.09000000357628 1.8
    endloop
  endfacet
  facet normal -0.9978589235387326 0.06540312465105791 0
    outer loop
      vertex 85.63194865733385 -52.36541026830673 0
      vertex 85.63194865733385 -52.36541026830673 1.8
      vertex 85.64999999850988 -52.09000000357628 0
    endloop
  endfacet
  facet normal -0.9978589235387326 0.06540312465105791 0
    outer loop
      vertex 85.64999999850988 -52.09000000357628 1.8
      vertex 85.64999999850988 -52.09000000357628 0
      vertex 85.63194865733385 -52.36541026830673 1.8
    endloop
  endfacet
  facet normal -0.9807852784989519 0.1950903315895825 0
    outer loop
      vertex 85.57810349017382 -52.63610818982124 0
      vertex 85.57810349017382 -52.63610818982124 1.8
      vertex 85.63194865733385 -52.36541026830673 0
    endloop
  endfacet
  facet normal -0.9807852784989519 0.1950903315895825 0
    outer loop
      vertex 85.63194865733385 -52.36541026830673 1.8
      vertex 85.63194865733385 -52.36541026830673 0
      vertex 85.57810349017382 -52.63610818982124 1.8
    endloop
  endfacet
  facet normal -0.9469301332519894 0.32143945423573905 0
    outer loop
      vertex 85.48938581347466 -52.89746204763651 0
      vertex 85.48938581347466 -52.89746204763651 1.8
      vertex 85.57810349017382 -52.63610818982124 0
    endloop
  endfacet
  facet normal -0.9469301332519894 0.32143945423573905 0
    outer loop
      vertex 85.57810349017382 -52.63610818982124 1.8
      vertex 85.57810349017382 -52.63610818982124 0
      vertex 85.48938581347466 -52.89746204763651 1.8
    endloop
  endfacet
  facet normal -0.8968727389396629 0.44228869547713656 0
    outer loop
      vertex 85.3673136010766 -53.145000003278255 0
      vertex 85.3673136010766 -53.145000003278255 1.8
      vertex 85.48938581347466 -52.89746204763651 0
    endloop
  endfacet
  facet normal -0.8968727389396629 0.44228869547713656 0
    outer loop
      vertex 85.48938581347466 -52.89746204763651 1.8
      vertex 85.48938581347466 -52.89746204763651 0
      vertex 85.3673136010766 -53.145000003278255 1.8
    endloop
  endfacet
  facet normal -0.8314696142139139 0.555570230159037 0
    outer loop
      vertex 85.2139755487442 -53.37448661774397 0
      vertex 85.2139755487442 -53.37448661774397 1.8
      vertex 85.3673136010766 -53.145000003278255 0
    endloop
  endfacet
  facet normal -0.8314696142139139 0.555570230159037 0
    outer loop
      vertex 85.3673136010766 -53.145000003278255 1.8
      vertex 85.3673136010766 -53.145000003278255 0
      vertex 85.2139755487442 -53.37448661774397 1.8
    endloop
  endfacet
  facet normal -0.7518397944676377 0.6593458299366579 0
    outer loop
      vertex 85.03199530392885 -53.5819953083992 0
      vertex 85.03199530392885 -53.5819953083992 1.8
      vertex 85.2139755487442 -53.37448661774397 0
    endloop
  endfacet
  facet normal -0.7518397944676377 0.6593458299366579 0
    outer loop
      vertex 85.2139755487442 -53.37448661774397 1.8
      vertex 85.2139755487442 -53.37448661774397 0
      vertex 85.03199530392885 -53.5819953083992 1.8
    endloop
  endfacet
  facet normal -0.6593458299366579 0.7518397944676377 0
    outer loop
      vertex 84.82448661327362 -53.76397555321455 0
      vertex 84.82448661327362 -53.76397555321455 1.8
      vertex 85.03199530392885 -53.5819953083992 0
    endloop
  endfacet
  facet normal -0.6593458299366579 0.7518397944676377 0
    outer loop
      vertex 85.03199530392885 -53.5819953083992 1.8
      vertex 85.03199530392885 -53.5819953083992 0
      vertex 84.82448661327362 -53.76397555321455 1.8
    endloop
  endfacet
  facet normal -0.555570230159037 0.8314696142139139 0
    outer loop
      vertex 84.5949999988079 -53.91731360554695 0
      vertex 84.5949999988079 -53.91731360554695 1.8
      vertex 84.82448661327362 -53.76397555321455 0
    endloop
  endfacet
  facet normal -0.555570230159037 0.8314696142139139 0
    outer loop
      vertex 84.82448661327362 -53.76397555321455 1.8
      vertex 84.82448661327362 -53.76397555321455 0
      vertex 84.5949999988079 -53.91731360554695 1.8
    endloop
  endfacet
  facet normal -0.44228869547713656 0.8968727389396629 0
    outer loop
      vertex 84.34746204316616 -54.039385817945 0
      vertex 84.34746204316616 -54.039385817945 1.8
      vertex 84.5949999988079 -53.91731360554695 0
    endloop
  endfacet
  facet normal -0.44228869547713656 0.8968727389396629 0
    outer loop
      vertex 84.5949999988079 -53.91731360554695 1.8
      vertex 84.5949999988079 -53.91731360554695 0
      vertex 84.34746204316616 -54.039385817945 1.8
    endloop
  endfacet
  facet normal -0.32143945423573905 0.9469301332519894 0
    outer loop
      vertex 84.0861081853509 -54.128103494644165 0
      vertex 84.0861081853509 -54.128103494644165 1.8
      vertex 84.34746204316616 -54.039385817945 0
    endloop
  endfacet
  facet normal -0.32143945423573905 0.9469301332519894 0
    outer loop
      vertex 84.34746204316616 -54.039385817945 1.8
      vertex 84.34746204316616 -54.039385817945 0
      vertex 84.0861081853509 -54.128103494644165 1.8
    endloop
  endfacet
  facet normal -0.1950903315895825 0.9807852784989519 0
    outer loop
      vertex 83.81541026383638 -54.1819486618042 0
      vertex 83.81541026383638 -54.1819486618042 1.8
      vertex 84.0861081853509 -54.128103494644165 0
    endloop
  endfacet
  facet normal -0.1950903315895825 0.9807852784989519 0
    outer loop
      vertex 84.0861081853509 -54.128103494644165 1.8
      vertex 84.0861081853509 -54.128103494644165 0
      vertex 83.81541026383638 -54.1819486618042 1.8
    endloop
  endfacet
  facet normal -0.06540312465105791 0.9978589235387326 0
    outer loop
      vertex 83.53999999910593 -54.20000000298023 0
      vertex 83.53999999910593 -54.20000000298023 1.8
      vertex 83.81541026383638 -54.1819486618042 0
    endloop
  endfacet
  facet normal -0.06540312465105791 0.9978589235387326 0
    outer loop
      vertex 83.81541026383638 -54.1819486618042 1.8
      vertex 83.81541026383638 -54.1819486618042 0
      vertex 83.53999999910593 -54.20000000298023 1.8
    endloop
  endfacet
  facet normal 0 1 0
    outer loop
      vertex -83.53999999910593 -54.20000000298023 0
      vertex -83.53999999910593 -54.20000000298023 1.8
      vertex 83.53999999910593 -54.20000000298023 0
    endloop
  endfacet
  facet normal 0 1 0
    outer loop
      vertex 83.53999999910593 -54.20000000298023 1.8
      vertex 83.53999999910593 -54.20000000298023 0
      vertex -83.53999999910593 -54.20000000298023 1.8
    endloop
  endfacet
  facet normal 0 0 1
    outer loop
      vertex 85.63194865733385 52.36541026830673 1.8
      vertex 85.64999999850988 52.09000000357628 1.8
      vertex 87.85000000149012 53.29999999701977 1.8
    endloop
  endfacet
  facet normal 0 0 1
    outer loop
      vertex 85.57810349017382 52.63610818982124 1.8
      vertex 85.63194865733385 52.36541026830673 1.8
      vertex 87.85000000149012 53.29999999701977 1.8
    endloop
  endfacet
  facet normal 0 0 1
    outer loop
      vertex 85.48938581347466 52.89746204763651 1.8
      vertex 85.57810349017382 52.63610818982124 1.8
      vertex 87.85000000149012 53.29999999701977 1.8
    endloop
  endfacet
  facet normal 0 0 1
    outer loop
      vertex 87.85000000149012 -53.29999999701977 1.8
      vertex 87.85000000149012 53.29999999701977 1.8
      vertex 85.64999999850988 52.09000000357628 1.8
    endloop
  endfacet
  facet normal 0 0 1
    outer loop
      vertex 85.48938581347466 52.89746204763651 1.8
      vertex 87.85000000149012 53.29999999701977 1.8
      vertex 87.8234790712595 53.70463119447231 1.8
    endloop
  endfacet
  facet normal 0 0 1
    outer loop
      vertex 85.3673136010766 53.145000003278255 1.8
      vertex 85.48938581347466 52.89746204763651 1.8
      vertex 87.8234790712595 53.70463119447231 1.8
    endloop
  endfacet
  facet normal 0 0 1
    outer loop
      vertex 85.3673136010766 53.145000003278255 1.8
      vertex 87.8234790712595 53.70463119447231 1.8
      vertex 87.7443700581789 54.102339036762714 1.8
    endloop
  endfacet
  facet normal 0 0 1
    outer loop
      vertex 85.3673136010766 53.145000003278255 1.8
      vertex 87.7443700581789 54.102339036762714 1.8
      vertex 87.61402655392885 54.4863186404109 1.8
    endloop
  endfacet
  facet normal 0 0 1
    outer loop
      vertex 85.2139755487442 53.37448661774397 1.8
      vertex 85.3673136010766 53.145000003278255 1.8
      vertex 87.61402655392885 54.4863186404109 1.8
    endloop
  endfacet
  facet normal 0 0 1
    outer loop
      vertex 85.2139755487442 53.37448661774397 1.8
      vertex 87.61402655392885 54.4863186404109 1.8
      vertex 87.43467874825001 54.849999994039536 1.8
    endloop
  endfacet
  facet normal 0 0 1
    outer loop
      vertex 85.2139755487442 53.37448661774397 1.8
      vertex 87.43467874825001 54.849999994039536 1.8
      vertex 87.2093953564763 55.187160424888134 1.8
    endloop
  endfacet
  facet normal 0 0 1
    outer loop
      vertex 85.03199530392885 53.5819953083992 1.8
      vertex 85.2139755487442 53.37448661774397 1.8
      vertex 87.2093953564763 55.187160424888134 1.8
    endloop
  endfacet
  facet normal 0 0 1
    outer loop
      vertex 85.03199530392885 53.5819953083992 1.8
      vertex 87.2093953564763 55.187160424888134 1.8
      vertex 86.94203101843596 55.49203101545572 1.8
    endloop
  endfacet
  facet normal 0 0 1
    outer loop
      vertex 85.03199530392885 53.5819953083992 1.8
      vertex 86.94203101843596 55.49203101545572 1.8
      vertex 86.63716042786837 55.759395353496075 1.8
    endloop
  endfacet
  facet normal 0 0 1
    outer loop
      vertex 84.82448661327362 53.76397555321455 1.8
      vertex 85.03199530392885 53.5819953083992 1.8
      vertex 86.63716042786837 55.759395353496075 1.8
    endloop
  endfacet
  facet normal 0 0 1
    outer loop
      vertex 84.82448661327362 53.76397555321455 1.8
      vertex 86.63716042786837 55.759395353496075 1.8
      vertex 86.29999999701977 55.984678745269775 1.8
    endloop
  endfacet
  facet normal 0 0 1
    outer loop
      vertex 84.82448661327362 53.76397555321455 1.8
      vertex 86.29999999701977 55.984678745269775 1.8
      vertex 85.93631864339113 56.16402655094862 1.8
    endloop
  endfacet
  facet normal 0 0 1
    outer loop
      vertex 84.5949999988079 53.91731360554695 1.8
      vertex 84.82448661327362 53.76397555321455 1.8
      vertex 85.93631864339113 56.16402655094862 1.8
    endloop
  endfacet
  facet normal 0 0 1
    outer loop
      vertex 84.5949999988079 53.91731360554695 1.8
      vertex 85.93631864339113 56.16402655094862 1.8
      vertex 85.55233903974295 56.29437005519867 1.8
    endloop
  endfacet
  facet normal 0 0 1
    outer loop
      vertex 84.5949999988079 53.91731360554695 1.8
      vertex 85.55233903974295 56.29437005519867 1.8
      vertex 85.15463119745255 56.373479068279266 1.8
    endloop
  endfacet
  facet normal 0 0 1
    outer loop
      vertex 84.34746204316616 54.039385817945 1.8
      vertex 84.5949999988079 53.91731360554695 1.8
      vertex 85.15463119745255 56.373479068279266 1.8
    endloop
  endfacet
  facet normal 0 0 1
    outer loop
      vertex 84.34746204316616 54.039385817945 1.8
      vertex 85.15463119745255 56.373479068279266 1.8
      vertex 84.75 56.399999998509884 1.8
    endloop
  endfacet
  facet normal 0 0 1
    outer loop
      vertex 84.0861081853509 54.128103494644165 1.8
      vertex 84.34746204316616 54.039385817945 1.8
      vertex 84.75 56.399999998509884 1.8
    endloop
  endfacet
  facet normal 0 0 1
    outer loop
      vertex 83.81541026383638 54.1819486618042 1.8
      vertex 84.0861081853509 54.128103494644165 1.8
      vertex 84.75 56.399999998509884 1.8
    endloop
  endfacet
  facet normal 0 0 1
    outer loop
      vertex 87.85000000149012 -53.29999999701977 1.8
      vertex 85.64999999850988 52.09000000357628 1.8
      vertex 85.64999999850988 -52.09000000357628 1.8
    endloop
  endfacet
  facet normal 0 0 1
    outer loop
      vertex 87.85000000149012 -53.29999999701977 1.8
      vertex 85.64999999850988 -52.09000000357628 1.8
      vertex 85.63194865733385 -52.36541026830673 1.8
    endloop
  endfacet
  facet normal 0 0 1
    outer loop
      vertex 87.85000000149012 -53.29999999701977 1.8
      vertex 85.63194865733385 -52.36541026830673 1.8
      vertex 85.57810349017382 -52.63610818982124 1.8
    endloop
  endfacet
  facet normal 0 0 1
    outer loop
      vertex 87.85000000149012 -53.29999999701977 1.8
      vertex 85.57810349017382 -52.63610818982124 1.8
      vertex 85.48938581347466 -52.89746204763651 1.8
    endloop
  endfacet
  facet normal 0 0 1
    outer loop
      vertex 87.8234790712595 -53.70463119447231 1.8
      vertex 87.85000000149012 -53.29999999701977 1.8
      vertex 85.48938581347466 -52.89746204763651 1.8
    endloop
  endfacet
  facet normal 0 0 1
    outer loop
      vertex 87.8234790712595 -53.70463119447231 1.8
      vertex 85.48938581347466 -52.89746204763651 1.8
      vertex 85.3673136010766 -53.145000003278255 1.8
    endloop
  endfacet
  facet normal 0 0 1
    outer loop
      vertex 87.7443700581789 -54.102339036762714 1.8
      vertex 87.8234790712595 -53.70463119447231 1.8
      vertex 85.3673136010766 -53.145000003278255 1.8
    endloop
  endfacet
  facet normal 0 0 1
    outer loop
      vertex 87.61402655392885 -54.4863186404109 1.8
      vertex 87.7443700581789 -54.102339036762714 1.8
      vertex 85.3673136010766 -53.145000003278255 1.8
    endloop
  endfacet
  facet normal 0 0 1
    outer loop
      vertex 87.61402655392885 -54.4863186404109 1.8
      vertex 85.3673136010766 -53.145000003278255 1.8
      vertex 85.2139755487442 -53.37448661774397 1.8
    endloop
  endfacet
  facet normal 0 0 1
    outer loop
      vertex 87.43467874825001 -54.849999994039536 1.8
      vertex 87.61402655392885 -54.4863186404109 1.8
      vertex 85.2139755487442 -53.37448661774397 1.8
    endloop
  endfacet
  facet normal 0 0 1
    outer loop
      vertex 87.2093953564763 -55.187160424888134 1.8
      vertex 87.43467874825001 -54.849999994039536 1.8
      vertex 85.2139755487442 -53.37448661774397 1.8
    endloop
  endfacet
  facet normal 0 0 1
    outer loop
      vertex 87.2093953564763 -55.187160424888134 1.8
      vertex 85.2139755487442 -53.37448661774397 1.8
      vertex 85.03199530392885 -53.5819953083992 1.8
    endloop
  endfacet
  facet normal 0 0 1
    outer loop
      vertex 86.94203101843596 -55.49203101545572 1.8
      vertex 87.2093953564763 -55.187160424888134 1.8
      vertex 85.03199530392885 -53.5819953083992 1.8
    endloop
  endfacet
  facet normal 0 0 1
    outer loop
      vertex 86.63716042786837 -55.759395353496075 1.8
      vertex 86.94203101843596 -55.49203101545572 1.8
      vertex 85.03199530392885 -53.5819953083992 1.8
    endloop
  endfacet
  facet normal 0 0 1
    outer loop
      vertex 86.63716042786837 -55.759395353496075 1.8
      vertex 85.03199530392885 -53.5819953083992 1.8
      vertex 84.82448661327362 -53.76397555321455 1.8
    endloop
  endfacet
  facet normal 0 0 1
    outer loop
      vertex 86.29999999701977 -55.984678745269775 1.8
      vertex 86.63716042786837 -55.759395353496075 1.8
      vertex 84.82448661327362 -53.76397555321455 1.8
    endloop
  endfacet
  facet normal 0 0 1
    outer loop
      vertex 85.93631864339113 -56.16402655094862 1.8
      vertex 86.29999999701977 -55.984678745269775 1.8
      vertex 84.82448661327362 -53.76397555321455 1.8
    endloop
  endfacet
  facet normal 0 0 1
    outer loop
      vertex 85.93631864339113 -56.16402655094862 1.8
      vertex 84.82448661327362 -53.76397555321455 1.8
      vertex 84.5949999988079 -53.91731360554695 1.8
    endloop
  endfacet
  facet normal 0 0 1
    outer loop
      vertex 85.55233903974295 -56.29437005519867 1.8
      vertex 85.93631864339113 -56.16402655094862 1.8
      vertex 84.5949999988079 -53.91731360554695 1.8
    endloop
  endfacet
  facet normal 0 0 1
    outer loop
      vertex 85.15463119745255 -56.373479068279266 1.8
      vertex 85.55233903974295 -56.29437005519867 1.8
      vertex 84.5949999988079 -53.91731360554695 1.8
    endloop
  endfacet
  facet normal 0 0 1
    outer loop
      vertex 85.15463119745255 -56.373479068279266 1.8
      vertex 84.5949999988079 -53.91731360554695 1.8
      vertex 84.34746204316616 -54.039385817945 1.8
    endloop
  endfacet
  facet normal 0 0 1
    outer loop
      vertex 84.75 -56.399999998509884 1.8
      vertex 85.15463119745255 -56.373479068279266 1.8
      vertex 84.34746204316616 -54.039385817945 1.8
    endloop
  endfacet
  facet normal 0 0 1
    outer loop
      vertex 84.75 -56.399999998509884 1.8
      vertex 84.34746204316616 -54.039385817945 1.8
      vertex 84.0861081853509 -54.128103494644165 1.8
    endloop
  endfacet
  facet normal 0 0 1
    outer loop
      vertex 84.75 -56.399999998509884 1.8
      vertex 84.0861081853509 -54.128103494644165 1.8
      vertex 83.81541026383638 -54.1819486618042 1.8
    endloop
  endfacet
  facet normal 0 0 1
    outer loop
      vertex 83.53999999910593 54.20000000298023 1.8
      vertex 83.81541026383638 54.1819486618042 1.8
      vertex 84.75 56.399999998509884 1.8
    endloop
  endfacet
  facet normal 0 0 1
    outer loop
      vertex 83.53999999910593 54.20000000298023 1.8
      vertex 84.75 56.399999998509884 1.8
      vertex -84.75 56.399999998509884 1.8
    endloop
  endfacet
  facet normal 0 0 1
    outer loop
      vertex -83.53999999910593 54.20000000298023 1.8
      vertex 83.53999999910593 54.20000000298023 1.8
      vertex -84.75 56.399999998509884 1.8
    endloop
  endfacet
  facet normal 0 0 1
    outer loop
      vertex -83.81541026383638 54.1819486618042 1.8
      vertex -83.53999999910593 54.20000000298023 1.8
      vertex -84.75 56.399999998509884 1.8
    endloop
  endfacet
  facet normal 0 0 1
    outer loop
      vertex -84.0861081853509 54.128103494644165 1.8
      vertex -83.81541026383638 54.1819486618042 1.8
      vertex -84.75 56.399999998509884 1.8
    endloop
  endfacet
  facet normal 0 0 1
    outer loop
      vertex -84.34746204316616 54.039385817945 1.8
      vertex -84.0861081853509 54.128103494644165 1.8
      vertex -84.75 56.399999998509884 1.8
    endloop
  endfacet
  facet normal 0 0 1
    outer loop
      vertex -84.34746204316616 54.039385817945 1.8
      vertex -84.75 56.399999998509884 1.8
      vertex -85.15463119745255 56.373479068279266 1.8
    endloop
  endfacet
  facet normal 0 0 1
    outer loop
      vertex -84.5949999988079 53.91731360554695 1.8
      vertex -84.34746204316616 54.039385817945 1.8
      vertex -85.15463119745255 56.373479068279266 1.8
    endloop
  endfacet
  facet normal 0 0 1
    outer loop
      vertex -84.5949999988079 53.91731360554695 1.8
      vertex -85.15463119745255 56.373479068279266 1.8
      vertex -85.55233903974295 56.29437005519867 1.8
    endloop
  endfacet
  facet normal 0 0 1
    outer loop
      vertex -84.5949999988079 53.91731360554695 1.8
      vertex -85.55233903974295 56.29437005519867 1.8
      vertex -85.93631864339113 56.16402655094862 1.8
    endloop
  endfacet
  facet normal 0 0 1
    outer loop
      vertex -84.82448661327362 53.76397555321455 1.8
      vertex -84.5949999988079 53.91731360554695 1.8
      vertex -85.93631864339113 56.16402655094862 1.8
    endloop
  endfacet
  facet normal 0 0 1
    outer loop
      vertex -84.82448661327362 53.76397555321455 1.8
      vertex -85.93631864339113 56.16402655094862 1.8
      vertex -86.29999999701977 55.984678745269775 1.8
    endloop
  endfacet
  facet normal 0 0 1
    outer loop
      vertex -84.82448661327362 53.76397555321455 1.8
      vertex -86.29999999701977 55.984678745269775 1.8
      vertex -86.63716042786837 55.759395353496075 1.8
    endloop
  endfacet
  facet normal 0 0 1
    outer loop
      vertex -85.03199530392885 53.5819953083992 1.8
      vertex -84.82448661327362 53.76397555321455 1.8
      vertex -86.63716042786837 55.759395353496075 1.8
    endloop
  endfacet
  facet normal 0 0 1
    outer loop
      vertex -85.03199530392885 53.5819953083992 1.8
      vertex -86.63716042786837 55.759395353496075 1.8
      vertex -86.94203101843596 55.49203101545572 1.8
    endloop
  endfacet
  facet normal 0 0 1
    outer loop
      vertex -85.03199530392885 53.5819953083992 1.8
      vertex -86.94203101843596 55.49203101545572 1.8
      vertex -87.2093953564763 55.187160424888134 1.8
    endloop
  endfacet
  facet normal 0 0 1
    outer loop
      vertex -85.2139755487442 53.37448661774397 1.8
      vertex -85.03199530392885 53.5819953083992 1.8
      vertex -87.2093953564763 55.187160424888134 1.8
    endloop
  endfacet
  facet normal 0 0 1
    outer loop
      vertex -85.2139755487442 53.37448661774397 1.8
      vertex -87.2093953564763 55.187160424888134 1.8
      vertex -87.43467874825001 54.849999994039536 1.8
    endloop
  endfacet
  facet normal 0 0 1
    outer loop
      vertex -85.2139755487442 53.37448661774397 1.8
      vertex -87.43467874825001 54.849999994039536 1.8
      vertex -87.61402655392885 54.4863186404109 1.8
    endloop
  endfacet
  facet normal 0 0 1
    outer loop
      vertex -85.3673136010766 53.145000003278255 1.8
      vertex -85.2139755487442 53.37448661774397 1.8
      vertex -87.61402655392885 54.4863186404109 1.8
    endloop
  endfacet
  facet normal 0 0 1
    outer loop
      vertex -85.3673136010766 53.145000003278255 1.8
      vertex -87.61402655392885 54.4863186404109 1.8
      vertex -87.7443700581789 54.102339036762714 1.8
    endloop
  endfacet
  facet normal 0 0 1
    outer loop
      vertex -85.3673136010766 53.145000003278255 1.8
      vertex -87.7443700581789 54.102339036762714 1.8
      vertex -87.8234790712595 53.70463119447231 1.8
    endloop
  endfacet
  facet normal 0 0 1
    outer loop
      vertex -85.48938581347466 52.89746204763651 1.8
      vertex -85.3673136010766 53.145000003278255 1.8
      vertex -87.8234790712595 53.70463119447231 1.8
    endloop
  endfacet
  facet normal 0 0 1
    outer loop
      vertex -85.48938581347466 52.89746204763651 1.8
      vertex -87.8234790712595 53.70463119447231 1.8
      vertex -87.85000000149012 53.29999999701977 1.8
    endloop
  endfacet
  facet normal 0 0 1
    outer loop
      vertex -85.57810349017382 52.63610818982124 1.8
      vertex -85.48938581347466 52.89746204763651 1.8
      vertex -87.85000000149012 53.29999999701977 1.8
    endloop
  endfacet
  facet normal 0 0 1
    outer loop
      vertex -85.63194865733385 52.36541026830673 1.8
      vertex -85.57810349017382 52.63610818982124 1.8
      vertex -87.85000000149012 53.29999999701977 1.8
    endloop
  endfacet
  facet normal 0 0 1
    outer loop
      vertex -85.64999999850988 52.09000000357628 1.8
      vertex -85.63194865733385 52.36541026830673 1.8
      vertex -87.85000000149012 53.29999999701977 1.8
    endloop
  endfacet
  facet normal 0 0 1
    outer loop
      vertex -85.64999999850988 52.09000000357628 1.8
      vertex -87.85000000149012 53.29999999701977 1.8
      vertex -87.85000000149012 -53.29999999701977 1.8
    endloop
  endfacet
  facet normal 0 0 1
    outer loop
      vertex -85.64999999850988 -52.09000000357628 1.8
      vertex -85.64999999850988 52.09000000357628 1.8
      vertex -87.85000000149012 -53.29999999701977 1.8
    endloop
  endfacet
  facet normal 0 0 1
    outer loop
      vertex -85.63194865733385 -52.36541026830673 1.8
      vertex -85.64999999850988 -52.09000000357628 1.8
      vertex -87.85000000149012 -53.29999999701977 1.8
    endloop
  endfacet
  facet normal 0 0 1
    outer loop
      vertex -85.57810349017382 -52.63610818982124 1.8
      vertex -85.63194865733385 -52.36541026830673 1.8
      vertex -87.85000000149012 -53.29999999701977 1.8
    endloop
  endfacet
  facet normal 0 0 1
    outer loop
      vertex -85.48938581347466 -52.89746204763651 1.8
      vertex -85.57810349017382 -52.63610818982124 1.8
      vertex -87.85000000149012 -53.29999999701977 1.8
    endloop
  endfacet
  facet normal 0 0 1
    outer loop
      vertex -85.48938581347466 -52.89746204763651 1.8
      vertex -87.85000000149012 -53.29999999701977 1.8
      vertex -87.8234790712595 -53.70463119447231 1.8
    endloop
  endfacet
  facet normal 0 0 1
    outer loop
      vertex -85.3673136010766 -53.145000003278255 1.8
      vertex -85.48938581347466 -52.89746204763651 1.8
      vertex -87.8234790712595 -53.70463119447231 1.8
    endloop
  endfacet
  facet normal 0 0 1
    outer loop
      vertex -85.3673136010766 -53.145000003278255 1.8
      vertex -87.8234790712595 -53.70463119447231 1.8
      vertex -87.7443700581789 -54.102339036762714 1.8
    endloop
  endfacet
  facet normal 0 0 1
    outer loop
      vertex -85.3673136010766 -53.145000003278255 1.8
      vertex -87.7443700581789 -54.102339036762714 1.8
      vertex -87.61402655392885 -54.4863186404109 1.8
    endloop
  endfacet
  facet normal 0 0 1
    outer loop
      vertex -85.2139755487442 -53.37448661774397 1.8
      vertex -85.3673136010766 -53.145000003278255 1.8
      vertex -87.61402655392885 -54.4863186404109 1.8
    endloop
  endfacet
  facet normal 0 0 1
    outer loop
      vertex -85.2139755487442 -53.37448661774397 1.8
      vertex -87.61402655392885 -54.4863186404109 1.8
      vertex -87.43467874825001 -54.849999994039536 1.8
    endloop
  endfacet
  facet normal 0 0 1
    outer loop
      vertex -85.2139755487442 -53.37448661774397 1.8
      vertex -87.43467874825001 -54.849999994039536 1.8
      vertex -87.2093953564763 -55.187160424888134 1.8
    endloop
  endfacet
  facet normal 0 0 1
    outer loop
      vertex -85.03199530392885 -53.5819953083992 1.8
      vertex -85.2139755487442 -53.37448661774397 1.8
      vertex -87.2093953564763 -55.187160424888134 1.8
    endloop
  endfacet
  facet normal 0 0 1
    outer loop
      vertex -85.03199530392885 -53.5819953083992 1.8
      vertex -87.2093953564763 -55.187160424888134 1.8
      vertex -86.94203101843596 -55.49203101545572 1.8
    endloop
  endfacet
  facet normal 0 0 1
    outer loop
      vertex -85.03199530392885 -53.5819953083992 1.8
      vertex -86.94203101843596 -55.49203101545572 1.8
      vertex -86.63716042786837 -55.759395353496075 1.8
    endloop
  endfacet
  facet normal 0 0 1
    outer loop
      vertex -84.82448661327362 -53.76397555321455 1.8
      vertex -85.03199530392885 -53.5819953083992 1.8
      vertex -86.63716042786837 -55.759395353496075 1.8
    endloop
  endfacet
  facet normal 0 0 1
    outer loop
      vertex -84.82448661327362 -53.76397555321455 1.8
      vertex -86.63716042786837 -55.759395353496075 1.8
      vertex -86.29999999701977 -55.984678745269775 1.8
    endloop
  endfacet
  facet normal 0 0 1
    outer loop
      vertex -84.82448661327362 -53.76397555321455 1.8
      vertex -86.29999999701977 -55.984678745269775 1.8
      vertex -85.93631864339113 -56.16402655094862 1.8
    endloop
  endfacet
  facet normal 0 0 1
    outer loop
      vertex -84.5949999988079 -53.91731360554695 1.8
      vertex -84.82448661327362 -53.76397555321455 1.8
      vertex -85.93631864339113 -56.16402655094862 1.8
    endloop
  endfacet
  facet normal 0 0 1
    outer loop
      vertex -84.5949999988079 -53.91731360554695 1.8
      vertex -85.93631864339113 -56.16402655094862 1.8
      vertex -85.55233903974295 -56.29437005519867 1.8
    endloop
  endfacet
  facet normal 0 0 1
    outer loop
      vertex -84.5949999988079 -53.91731360554695 1.8
      vertex -85.55233903974295 -56.29437005519867 1.8
      vertex -85.15463119745255 -56.373479068279266 1.8
    endloop
  endfacet
  facet normal 0 0 1
    outer loop
      vertex -84.34746204316616 -54.039385817945 1.8
      vertex -84.5949999988079 -53.91731360554695 1.8
      vertex -85.15463119745255 -56.373479068279266 1.8
    endloop
  endfacet
  facet normal 0 0 1
    outer loop
      vertex -84.34746204316616 -54.039385817945 1.8
      vertex -85.15463119745255 -56.373479068279266 1.8
      vertex -84.75 -56.399999998509884 1.8
    endloop
  endfacet
  facet normal 0 0 1
    outer loop
      vertex -84.0861081853509 -54.128103494644165 1.8
      vertex -84.34746204316616 -54.039385817945 1.8
      vertex -84.75 -56.399999998509884 1.8
    endloop
  endfacet
  facet normal 0 0 1
    outer loop
      vertex -83.81541026383638 -54.1819486618042 1.8
      vertex -84.0861081853509 -54.128103494644165 1.8
      vertex -84.75 -56.399999998509884 1.8
    endloop
  endfacet
  facet normal 0 0 1
    outer loop
      vertex 84.75 -56.399999998509884 1.8
      vertex 83.81541026383638 -54.1819486618042 1.8
      vertex 83.53999999910593 -54.20000000298023 1.8
    endloop
  endfacet
  facet normal 0 0 1
    outer loop
      vertex -84.75 -56.399999998509884 1.8
      vertex 84.75 -56.399999998509884 1.8
      vertex 83.53999999910593 -54.20000000298023 1.8
    endloop
  endfacet
  facet normal 0 0 1
    outer loop
      vertex -84.75 -56.399999998509884 1.8
      vertex 83.53999999910593 -54.20000000298023 1.8
      vertex -83.53999999910593 -54.20000000298023 1.8
    endloop
  endfacet
  facet normal 0 0 1
    outer loop
      vertex -83.81541026383638 -54.1819486618042 1.8
      vertex -84.75 -56.399999998509884 1.8
      vertex -83.53999999910593 -54.20000000298023 1.8
    endloop
  endfacet
  facet normal 0 0 -1
    outer loop
      vertex 87.85000000149012 53.29999999701977 0
      vertex 85.64999999850988 52.09000000357628 0
      vertex 85.63194865733385 52.36541026830673 0
    endloop
  endfacet
  facet normal 0 0 -1
    outer loop
      vertex 87.85000000149012 53.29999999701977 0
      vertex 85.63194865733385 52.36541026830673 0
      vertex 85.57810349017382 52.63610818982124 0
    endloop
  endfacet
  facet normal 0 0 -1
    outer loop
      vertex 87.85000000149012 53.29999999701977 0
      vertex 85.57810349017382 52.63610818982124 0
      vertex 85.48938581347466 52.89746204763651 0
    endloop
  endfacet
  facet normal 0 0 -1
    outer loop
      vertex 85.64999999850988 52.09000000357628 0
      vertex 87.85000000149012 53.29999999701977 0
      vertex 87.85000000149012 -53.29999999701977 0
    endloop
  endfacet
  facet normal 0 0 -1
    outer loop
      vertex 87.8234790712595 53.70463119447231 0
      vertex 87.85000000149012 53.29999999701977 0
      vertex 85.48938581347466 52.89746204763651 0
    endloop
  endfacet
  facet normal 0 0 -1
    outer loop
      vertex 87.8234790712595 53.70463119447231 0
      vertex 85.48938581347466 52.89746204763651 0
      vertex 85.3673136010766 53.145000003278255 0
    endloop
  endfacet
  facet normal 0 0 -1
    outer loop
      vertex 87.7443700581789 54.102339036762714 0
      vertex 87.8234790712595 53.70463119447231 0
      vertex 85.3673136010766 53.145000003278255 0
    endloop
  endfacet
  facet normal 0 0 -1
    outer loop
      vertex 87.61402655392885 54.4863186404109 0
      vertex 87.7443700581789 54.102339036762714 0
      vertex 85.3673136010766 53.145000003278255 0
    endloop
  endfacet
  facet normal 0 0 -1
    outer loop
      vertex 87.61402655392885 54.4863186404109 0
      vertex 85.3673136010766 53.145000003278255 0
      vertex 85.2139755487442 53.37448661774397 0
    endloop
  endfacet
  facet normal 0 0 -1
    outer loop
      vertex 87.43467874825001 54.849999994039536 0
      vertex 87.61402655392885 54.4863186404109 0
      vertex 85.2139755487442 53.37448661774397 0
    endloop
  endfacet
  facet normal 0 0 -1
    outer loop
      vertex 87.2093953564763 55.187160424888134 0
      vertex 87.43467874825001 54.849999994039536 0
      vertex 85.2139755487442 53.37448661774397 0
    endloop
  endfacet
  facet normal 0 0 -1
    outer loop
      vertex 87.2093953564763 55.187160424888134 0
      vertex 85.2139755487442 53.37448661774397 0
      vertex 85.03199530392885 53.5819953083992 0
    endloop
  endfacet
  facet normal 0 0 -1
    outer loop
      vertex 86.94203101843596 55.49203101545572 0
      vertex 87.2093953564763 55.187160424888134 0
      vertex 85.03199530392885 53.5819953083992 0
    endloop
  endfacet
  facet normal 0 0 -1
    outer loop
      vertex 86.63716042786837 55.759395353496075 0
      vertex 86.94203101843596 55.49203101545572 0
      vertex 85.03199530392885 53.5819953083992 0
    endloop
  endfacet
  facet normal 0 0 -1
    outer loop
      vertex 86.63716042786837 55.759395353496075 0
      vertex 85.03199530392885 53.5819953083992 0
      vertex 84.82448661327362 53.76397555321455 0
    endloop
  endfacet
  facet normal 0 0 -1
    outer loop
      vertex 86.29999999701977 55.984678745269775 0
      vertex 86.63716042786837 55.759395353496075 0
      vertex 84.82448661327362 53.76397555321455 0
    endloop
  endfacet
  facet normal 0 0 -1
    outer loop
      vertex 85.93631864339113 56.16402655094862 0
      vertex 86.29999999701977 55.984678745269775 0
      vertex 84.82448661327362 53.76397555321455 0
    endloop
  endfacet
  facet normal 0 0 -1
    outer loop
      vertex 85.93631864339113 56.16402655094862 0
      vertex 84.82448661327362 53.76397555321455 0
      vertex 84.5949999988079 53.91731360554695 0
    endloop
  endfacet
  facet normal 0 0 -1
    outer loop
      vertex 85.55233903974295 56.29437005519867 0
      vertex 85.93631864339113 56.16402655094862 0
      vertex 84.5949999988079 53.91731360554695 0
    endloop
  endfacet
  facet normal 0 0 -1
    outer loop
      vertex 85.15463119745255 56.373479068279266 0
      vertex 85.55233903974295 56.29437005519867 0
      vertex 84.5949999988079 53.91731360554695 0
    endloop
  endfacet
  facet normal 0 0 -1
    outer loop
      vertex 85.15463119745255 56.373479068279266 0
      vertex 84.5949999988079 53.91731360554695 0
      vertex 84.34746204316616 54.039385817945 0
    endloop
  endfacet
  facet normal 0 0 -1
    outer loop
      vertex 84.75 56.399999998509884 0
      vertex 85.15463119745255 56.373479068279266 0
      vertex 84.34746204316616 54.039385817945 0
    endloop
  endfacet
  facet normal 0 0 -1
    outer loop
      vertex 84.75 56.399999998509884 0
      vertex 84.34746204316616 54.039385817945 0
      vertex 84.0861081853509 54.128103494644165 0
    endloop
  endfacet
  facet normal 0 0 -1
    outer loop
      vertex 84.75 56.399999998509884 0
      vertex 84.0861081853509 54.128103494644165 0
      vertex 83.81541026383638 54.1819486618042 0
    endloop
  endfacet
  facet normal 0 0 -1
    outer loop
      vertex 85.64999999850988 -52.09000000357628 0
      vertex 85.64999999850988 52.09000000357628 0
      vertex 87.85000000149012 -53.29999999701977 0
    endloop
  endfacet
  facet normal 0 0 -1
    outer loop
      vertex 85.63194865733385 -52.36541026830673 0
      vertex 85.64999999850988 -52.09000000357628 0
      vertex 87.85000000149012 -53.29999999701977 0
    endloop
  endfacet
  facet normal 0 0 -1
    outer loop
      vertex 85.57810349017382 -52.63610818982124 0
      vertex 85.63194865733385 -52.36541026830673 0
      vertex 87.85000000149012 -53.29999999701977 0
    endloop
  endfacet
  facet normal 0 0 -1
    outer loop
      vertex 85.48938581347466 -52.89746204763651 0
      vertex 85.57810349017382 -52.63610818982124 0
      vertex 87.85000000149012 -53.29999999701977 0
    endloop
  endfacet
  facet normal 0 0 -1
    outer loop
      vertex 85.48938581347466 -52.89746204763651 0
      vertex 87.85000000149012 -53.29999999701977 0
      vertex 87.8234790712595 -53.70463119447231 0
    endloop
  endfacet
  facet normal 0 0 -1
    outer loop
      vertex 85.3673136010766 -53.145000003278255 0
      vertex 85.48938581347466 -52.89746204763651 0
      vertex 87.8234790712595 -53.70463119447231 0
    endloop
  endfacet
  facet normal 0 0 -1
    outer loop
      vertex 85.3673136010766 -53.145000003278255 0
      vertex 87.8234790712595 -53.70463119447231 0
      vertex 87.7443700581789 -54.102339036762714 0
    endloop
  endfacet
  facet normal 0 0 -1
    outer loop
      vertex 85.3673136010766 -53.145000003278255 0
      vertex 87.7443700581789 -54.102339036762714 0
      vertex 87.61402655392885 -54.4863186404109 0
    endloop
  endfacet
  facet normal 0 0 -1
    outer loop
      vertex 85.2139755487442 -53.37448661774397 0
      vertex 85.3673136010766 -53.145000003278255 0
      vertex 87.61402655392885 -54.4863186404109 0
    endloop
  endfacet
  facet normal 0 0 -1
    outer loop
      vertex 85.2139755487442 -53.37448661774397 0
      vertex 87.61402655392885 -54.4863186404109 0
      vertex 87.43467874825001 -54.849999994039536 0
    endloop
  endfacet
  facet normal 0 0 -1
    outer loop
      vertex 85.2139755487442 -53.37448661774397 0
      vertex 87.43467874825001 -54.849999994039536 0
      vertex 87.2093953564763 -55.187160424888134 0
    endloop
  endfacet
  facet normal 0 0 -1
    outer loop
      vertex 85.03199530392885 -53.5819953083992 0
      vertex 85.2139755487442 -53.37448661774397 0
      vertex 87.2093953564763 -55.187160424888134 0
    endloop
  endfacet
  facet normal 0 0 -1
    outer loop
      vertex 85.03199530392885 -53.5819953083992 0
      vertex 87.2093953564763 -55.187160424888134 0
      vertex 86.94203101843596 -55.49203101545572 0
    endloop
  endfacet
  facet normal 0 0 -1
    outer loop
      vertex 85.03199530392885 -53.5819953083992 0
      vertex 86.94203101843596 -55.49203101545572 0
      vertex 86.63716042786837 -55.759395353496075 0
    endloop
  endfacet
  facet normal 0 0 -1
    outer loop
      vertex 84.82448661327362 -53.76397555321455 0
      vertex 85.03199530392885 -53.5819953083992 0
      vertex 86.63716042786837 -55.759395353496075 0
    endloop
  endfacet
  facet normal 0 0 -1
    outer loop
      vertex 84.82448661327362 -53.76397555321455 0
      vertex 86.63716042786837 -55.759395353496075 0
      vertex 86.29999999701977 -55.984678745269775 0
    endloop
  endfacet
  facet normal 0 0 -1
    outer loop
      vertex 84.82448661327362 -53.76397555321455 0
      vertex 86.29999999701977 -55.984678745269775 0
      vertex 85.93631864339113 -56.16402655094862 0
    endloop
  endfacet
  facet normal 0 0 -1
    outer loop
      vertex 84.5949999988079 -53.91731360554695 0
      vertex 84.82448661327362 -53.76397555321455 0
      vertex 85.93631864339113 -56.16402655094862 0
    endloop
  endfacet
  facet normal 0 0 -1
    outer loop
      vertex 84.5949999988079 -53.91731360554695 0
      vertex 85.93631864339113 -56.16402655094862 0
      vertex 85.55233903974295 -56.29437005519867 0
    endloop
  endfacet
  facet normal 0 0 -1
    outer loop
      vertex 84.5949999988079 -53.91731360554695 0
      vertex 85.55233903974295 -56.29437005519867 0
      vertex 85.15463119745255 -56.373479068279266 0
    endloop
  endfacet
  facet normal 0 0 -1
    outer loop
      vertex 84.34746204316616 -54.039385817945 0
      vertex 84.5949999988079 -53.91731360554695 0
      vertex 85.15463119745255 -56.373479068279266 0
    endloop
  endfacet
  facet normal 0 0 -1
    outer loop
      vertex 84.34746204316616 -54.039385817945 0
      vertex 85.15463119745255 -56.373479068279266 0
      vertex 84.75 -56.399999998509884 0
    endloop
  endfacet
  facet normal 0 0 -1
    outer loop
      vertex 84.0861081853509 -54.128103494644165 0
      vertex 84.34746204316616 -54.039385817945 0
      vertex 84.75 -56.399999998509884 0
    endloop
  endfacet
  facet normal 0 0 -1
    outer loop
      vertex 83.81541026383638 -54.1819486618042 0
      vertex 84.0861081853509 -54.128103494644165 0
      vertex 84.75 -56.399999998509884 0
    endloop
  endfacet
  facet normal 0 0 -1
    outer loop
      vertex 84.75 56.399999998509884 0
      vertex 83.81541026383638 54.1819486618042 0
      vertex 83.53999999910593 54.20000000298023 0
    endloop
  endfacet
  facet normal 0 0 -1
    outer loop
      vertex -84.75 56.399999998509884 0
      vertex 84.75 56.399999998509884 0
      vertex 83.53999999910593 54.20000000298023 0
    endloop
  endfacet
  facet normal 0 0 -1
    outer loop
      vertex -84.75 56.399999998509884 0
      vertex 83.53999999910593 54.20000000298023 0
      vertex -83.53999999910593 54.20000000298023 0
    endloop
  endfacet
  facet normal 0 0 -1
    outer loop
      vertex -84.75 56.399999998509884 0
      vertex -83.53999999910593 54.20000000298023 0
      vertex -83.81541026383638 54.1819486618042 0
    endloop
  endfacet
  facet normal 0 0 -1
    outer loop
      vertex -84.75 56.399999998509884 0
      vertex -83.81541026383638 54.1819486618042 0
      vertex -84.0861081853509 54.128103494644165 0
    endloop
  endfacet
  facet normal 0 0 -1
    outer loop
      vertex -84.75 56.399999998509884 0
      vertex -84.0861081853509 54.128103494644165 0
      vertex -84.34746204316616 54.039385817945 0
    endloop
  endfacet
  facet normal 0 0 -1
    outer loop
      vertex -85.15463119745255 56.373479068279266 0
      vertex -84.75 56.399999998509884 0
      vertex -84.34746204316616 54.039385817945 0
    endloop
  endfacet
  facet normal 0 0 -1
    outer loop
      vertex -85.15463119745255 56.373479068279266 0
      vertex -84.34746204316616 54.039385817945 0
      vertex -84.5949999988079 53.91731360554695 0
    endloop
  endfacet
  facet normal 0 0 -1
    outer loop
      vertex -85.55233903974295 56.29437005519867 0
      vertex -85.15463119745255 56.373479068279266 0
      vertex -84.5949999988079 53.91731360554695 0
    endloop
  endfacet
  facet normal 0 0 -1
    outer loop
      vertex -85.93631864339113 56.16402655094862 0
      vertex -85.55233903974295 56.29437005519867 0
      vertex -84.5949999988079 53.91731360554695 0
    endloop
  endfacet
  facet normal 0 0 -1
    outer loop
      vertex -85.93631864339113 56.16402655094862 0
      vertex -84.5949999988079 53.91731360554695 0
      vertex -84.82448661327362 53.76397555321455 0
    endloop
  endfacet
  facet normal 0 0 -1
    outer loop
      vertex -86.29999999701977 55.984678745269775 0
      vertex -85.93631864339113 56.16402655094862 0
      vertex -84.82448661327362 53.76397555321455 0
    endloop
  endfacet
  facet normal 0 0 -1
    outer loop
      vertex -86.63716042786837 55.759395353496075 0
      vertex -86.29999999701977 55.984678745269775 0
      vertex -84.82448661327362 53.76397555321455 0
    endloop
  endfacet
  facet normal 0 0 -1
    outer loop
      vertex -86.63716042786837 55.759395353496075 0
      vertex -84.82448661327362 53.76397555321455 0
      vertex -85.03199530392885 53.5819953083992 0
    endloop
  endfacet
  facet normal 0 0 -1
    outer loop
      vertex -86.94203101843596 55.49203101545572 0
      vertex -86.63716042786837 55.759395353496075 0
      vertex -85.03199530392885 53.5819953083992 0
    endloop
  endfacet
  facet normal 0 0 -1
    outer loop
      vertex -87.2093953564763 55.187160424888134 0
      vertex -86.94203101843596 55.49203101545572 0
      vertex -85.03199530392885 53.5819953083992 0
    endloop
  endfacet
  facet normal 0 0 -1
    outer loop
      vertex -87.2093953564763 55.187160424888134 0
      vertex -85.03199530392885 53.5819953083992 0
      vertex -85.2139755487442 53.37448661774397 0
    endloop
  endfacet
  facet normal 0 0 -1
    outer loop
      vertex -87.43467874825001 54.849999994039536 0
      vertex -87.2093953564763 55.187160424888134 0
      vertex -85.2139755487442 53.37448661774397 0
    endloop
  endfacet
  facet normal 0 0 -1
    outer loop
      vertex -87.61402655392885 54.4863186404109 0
      vertex -87.43467874825001 54.849999994039536 0
      vertex -85.2139755487442 53.37448661774397 0
    endloop
  endfacet
  facet normal 0 0 -1
    outer loop
      vertex -87.61402655392885 54.4863186404109 0
      vertex -85.2139755487442 53.37448661774397 0
      vertex -85.3673136010766 53.145000003278255 0
    endloop
  endfacet
  facet normal 0 0 -1
    outer loop
      vertex -87.7443700581789 54.102339036762714 0
      vertex -87.61402655392885 54.4863186404109 0
      vertex -85.3673136010766 53.145000003278255 0
    endloop
  endfacet
  facet normal 0 0 -1
    outer loop
      vertex -87.8234790712595 53.70463119447231 0
      vertex -87.7443700581789 54.102339036762714 0
      vertex -85.3673136010766 53.145000003278255 0
    endloop
  endfacet
  facet normal 0 0 -1
    outer loop
      vertex -87.8234790712595 53.70463119447231 0
      vertex -85.3673136010766 53.145000003278255 0
      vertex -85.48938581347466 52.89746204763651 0
    endloop
  endfacet
  facet normal 0 0 -1
    outer loop
      vertex -87.85000000149012 53.29999999701977 0
      vertex -87.8234790712595 53.70463119447231 0
      vertex -85.48938581347466 52.89746204763651 0
    endloop
  endfacet
  facet normal 0 0 -1
    outer loop
      vertex -87.85000000149012 53.29999999701977 0
      vertex -85.48938581347466 52.89746204763651 0
      vertex -85.57810349017382 52.63610818982124 0
    endloop
  endfacet
  facet normal 0 0 -1
    outer loop
      vertex -87.85000000149012 53.29999999701977 0
      vertex -85.57810349017382 52.63610818982124 0
      vertex -85.63194865733385 52.36541026830673 0
    endloop
  endfacet
  facet normal 0 0 -1
    outer loop
      vertex -87.85000000149012 53.29999999701977 0
      vertex -85.63194865733385 52.36541026830673 0
      vertex -85.64999999850988 52.09000000357628 0
    endloop
  endfacet
  facet normal 0 0 -1
    outer loop
      vertex -87.85000000149012 -53.29999999701977 0
      vertex -87.85000000149012 53.29999999701977 0
      vertex -85.64999999850988 52.09000000357628 0
    endloop
  endfacet
  facet normal 0 0 -1
    outer loop
      vertex -87.85000000149012 -53.29999999701977 0
      vertex -85.64999999850988 52.09000000357628 0
      vertex -85.64999999850988 -52.09000000357628 0
    endloop
  endfacet
  facet normal 0 0 -1
    outer loop
      vertex -87.85000000149012 -53.29999999701977 0
      vertex -85.64999999850988 -52.09000000357628 0
      vertex -85.63194865733385 -52.36541026830673 0
    endloop
  endfacet
  facet normal 0 0 -1
    outer loop
      vertex -87.85000000149012 -53.29999999701977 0
      vertex -85.63194865733385 -52.36541026830673 0
      vertex -85.57810349017382 -52.63610818982124 0
    endloop
  endfacet
  facet normal 0 0 -1
    outer loop
      vertex -87.85000000149012 -53.29999999701977 0
      vertex -85.57810349017382 -52.63610818982124 0
      vertex -85.48938581347466 -52.89746204763651 0
    endloop
  endfacet
  facet normal 0 0 -1
    outer loop
      vertex -87.8234790712595 -53.70463119447231 0
      vertex -87.85000000149012 -53.29999999701977 0
      vertex -85.48938581347466 -52.89746204763651 0
    endloop
  endfacet
  facet normal 0 0 -1
    outer loop
      vertex -87.8234790712595 -53.70463119447231 0
      vertex -85.48938581347466 -52.89746204763651 0
      vertex -85.3673136010766 -53.145000003278255 0
    endloop
  endfacet
  facet normal 0 0 -1
    outer loop
      vertex -87.7443700581789 -54.102339036762714 0
      vertex -87.8234790712595 -53.70463119447231 0
      vertex -85.3673136010766 -53.145000003278255 0
    endloop
  endfacet
  facet normal 0 0 -1
    outer loop
      vertex -87.61402655392885 -54.4863186404109 0
      vertex -87.7443700581789 -54.102339036762714 0
      vertex -85.3673136010766 -53.145000003278255 0
    endloop
  endfacet
  facet normal 0 0 -1
    outer loop
      vertex -87.61402655392885 -54.4863186404109 0
      vertex -85.3673136010766 -53.145000003278255 0
      vertex -85.2139755487442 -53.37448661774397 0
    endloop
  endfacet
  facet normal 0 0 -1
    outer loop
      vertex -87.43467874825001 -54.849999994039536 0
      vertex -87.61402655392885 -54.4863186404109 0
      vertex -85.2139755487442 -53.37448661774397 0
    endloop
  endfacet
  facet normal 0 0 -1
    outer loop
      vertex -87.2093953564763 -55.187160424888134 0
      vertex -87.43467874825001 -54.849999994039536 0
      vertex -85.2139755487442 -53.37448661774397 0
    endloop
  endfacet
  facet normal 0 0 -1
    outer loop
      vertex -87.2093953564763 -55.187160424888134 0
      vertex -85.2139755487442 -53.37448661774397 0
      vertex -85.03199530392885 -53.5819953083992 0
    endloop
  endfacet
  facet normal 0 0 -1
    outer loop
      vertex -86.94203101843596 -55.49203101545572 0
      vertex -87.2093953564763 -55.187160424888134 0
      vertex -85.03199530392885 -53.5819953083992 0
    endloop
  endfacet
  facet normal 0 0 -1
    outer loop
      vertex -86.63716042786837 -55.759395353496075 0
      vertex -86.94203101843596 -55.49203101545572 0
      vertex -85.03199530392885 -53.5819953083992 0
    endloop
  endfacet
  facet normal 0 0 -1
    outer loop
      vertex -86.63716042786837 -55.759395353496075 0
      vertex -85.03199530392885 -53.5819953083992 0
      vertex -84.82448661327362 -53.76397555321455 0
    endloop
  endfacet
  facet normal 0 0 -1
    outer loop
      vertex -86.29999999701977 -55.984678745269775 0
      vertex -86.63716042786837 -55.759395353496075 0
      vertex -84.82448661327362 -53.76397555321455 0
    endloop
  endfacet
  facet normal 0 0 -1
    outer loop
      vertex -85.93631864339113 -56.16402655094862 0
      vertex -86.29999999701977 -55.984678745269775 0
      vertex -84.82448661327362 -53.76397555321455 0
    endloop
  endfacet
  facet normal 0 0 -1
    outer loop
      vertex -85.93631864339113 -56.16402655094862 0
      vertex -84.82448661327362 -53.76397555321455 0
      vertex -84.5949999988079 -53.91731360554695 0
    endloop
  endfacet
  facet normal 0 0 -1
    outer loop
      vertex -85.55233903974295 -56.29437005519867 0
      vertex -85.93631864339113 -56.16402655094862 0
      vertex -84.5949999988079 -53.91731360554695 0
    endloop
  endfacet
  facet normal 0 0 -1
    outer loop
      vertex -85.15463119745255 -56.373479068279266 0
      vertex -85.55233903974295 -56.29437005519867 0
      vertex -84.5949999988079 -53.91731360554695 0
    endloop
  endfacet
  facet normal 0 0 -1
    outer loop
      vertex -85.15463119745255 -56.373479068279266 0
      vertex -84.5949999988079 -53.91731360554695 0
      vertex -84.34746204316616 -54.039385817945 0
    endloop
  endfacet
  facet normal 0 0 -1
    outer loop
      vertex -84.75 -56.399999998509884 0
      vertex -85.15463119745255 -56.373479068279266 0
      vertex -84.34746204316616 -54.039385817945 0
    endloop
  endfacet
  facet normal 0 0 -1
    outer loop
      vertex -84.75 -56.399999998509884 0
      vertex -84.34746204316616 -54.039385817945 0
      vertex -84.0861081853509 -54.128103494644165 0
    endloop
  endfacet
  facet normal 0 0 -1
    outer loop
      vertex -84.75 -56.399999998509884 0
      vertex -84.0861081853509 -54.128103494644165 0
      vertex -83.81541026383638 -54.1819486618042 0
    endloop
  endfacet
  facet normal 0 0 -1
    outer loop
      vertex 83.53999999910593 -54.20000000298023 0
      vertex 83.81541026383638 -54.1819486618042 0
      vertex 84.75 -56.399999998509884 0
    endloop
  endfacet
  facet normal 0 0 -1
    outer loop
      vertex 83.53999999910593 -54.20000000298023 0
      vertex 84.75 -56.399999998509884 0
      vertex -84.75 -56.399999998509884 0
    endloop
  endfacet
  facet normal 0 0 -1
    outer loop
      vertex -83.53999999910593 -54.20000000298023 0
      vertex 83.53999999910593 -54.20000000298023 0
      vertex -84.75 -56.399999998509884 0
    endloop
  endfacet
  facet normal 0 0 -1
    outer loop
      vertex -83.53999999910593 -54.20000000298023 0
      vertex -84.75 -56.399999998509884 0
      vertex -83.81541026383638 -54.1819486618042 0
    endloop
  endfacet
endsolid OpenSCAD_Model
