solid OpenSCAD_Model
  facet normal 0.19509031122733816 -0.9807852825492541 0
    outer loop
      vertex 79.85058285295963 -46.869110986590385 0
      vertex 79.69663143157959 -46.89973382651806 1.8
      vertex 79.69663143157959 -46.89973382651806 0
    endloop
  endfacet
  facet normal 0.19509031122733816 -0.9807852825492541 0
    outer loop
      vertex 79.85058285295963 -46.869110986590385 0
      vertex 79.85058285295963 -46.869110986590385 1.8
      vertex 79.69663143157959 -46.89973382651806 1.8
    endloop
  endfacet
  facet normal 0.3214394807323106 -0.9469301242576152 0
    outer loop
      vertex 79.9992201179266 -46.8186554312706 0
      vertex 79.85058285295963 -46.869110986590385 1.8
      vertex 79.85058285295963 -46.869110986590385 0
    endloop
  endfacet
  facet normal 0.3214394807323106 -0.9469301242576152 0
    outer loop
      vertex 79.9992201179266 -46.8186554312706 0
      vertex 79.9992201179266 -46.8186554312706 1.8
      vertex 79.85058285295963 -46.869110986590385 1.8
    endloop
  endfacet
  facet normal 0.44228866137177664 -0.8968727557585645 0
    outer loop
      vertex 80.14000000059605 -46.74923048168421 0
      vertex 79.9992201179266 -46.8186554312706 1.8
      vertex 79.9992201179266 -46.8186554312706 0
    endloop
  endfacet
  facet normal 0.44228866137177664 -0.8968727557585645 0
    outer loop
      vertex 80.14000000059605 -46.74923048168421 0
      vertex 80.14000000059605 -46.74923048168421 1.8
      vertex 79.9992201179266 -46.8186554312706 1.8
    endloop
  endfacet
  facet normal 0.5555702685318421 -0.8314695885740242 0
    outer loop
      vertex 80.27051371335983 -46.66202399879694 0
      vertex 80.14000000059605 -46.74923048168421 1.8
      vertex 80.14000000059605 -46.74923048168421 0
    endloop
  endfacet
  facet normal 0.5555702685318421 -0.8314695885740242 0
    outer loop
      vertex 80.27051371335983 -46.66202399879694 0
      vertex 80.27051371335983 -46.66202399879694 1.8
      vertex 80.14000000059605 -46.74923048168421 1.8
    endloop
  endfacet
  facet normal 0.6593457899178781 -0.7518398295631654 0
    outer loop
      vertex 80.38852813839912 -46.55852813273668 0
      vertex 80.27051371335983 -46.66202399879694 1.8
      vertex 80.27051371335983 -46.66202399879694 0
    endloop
  endfacet
  facet normal 0.6593457899178781 -0.7518398295631654 0
    outer loop
      vertex 80.38852813839912 -46.55852813273668 0
      vertex 80.38852813839912 -46.55852813273668 1.8
      vertex 80.27051371335983 -46.66202399879694 1.8
    endloop
  endfacet
  facet normal 0.7518398295631654 -0.6593457899178781 0
    outer loop
      vertex 80.49202400445938 -46.44051370769739 0
      vertex 80.38852813839912 -46.55852813273668 1.8
      vertex 80.38852813839912 -46.55852813273668 0
    endloop
  endfacet
  facet normal 0.7518398295631654 -0.6593457899178781 0
    outer loop
      vertex 80.49202400445938 -46.44051370769739 0
      vertex 80.49202400445938 -46.44051370769739 1.8
      vertex 80.38852813839912 -46.55852813273668 1.8
    endloop
  endfacet
  facet normal 0.8314695885740242 -0.5555702685318421 0
    outer loop
      vertex 80.57923048734665 -46.309999994933605 0
      vertex 80.49202400445938 -46.44051370769739 1.8
      vertex 80.49202400445938 -46.44051370769739 0
    endloop
  endfacet
  facet normal 0.8314695885740242 -0.5555702685318421 0
    outer loop
      vertex 80.57923048734665 -46.309999994933605 0
      vertex 80.57923048734665 -46.309999994933605 1.8
      vertex 80.49202400445938 -46.44051370769739 1.8
    endloop
  endfacet
  facet normal 0.8968727557585645 -0.44228866137177664 0
    outer loop
      vertex 80.64865543693304 -46.169220112264156 0
      vertex 80.57923048734665 -46.309999994933605 1.8
      vertex 80.57923048734665 -46.309999994933605 0
    endloop
  endfacet
  facet normal 0.8968727557585645 -0.44228866137177664 0
    outer loop
      vertex 80.64865543693304 -46.169220112264156 0
      vertex 80.64865543693304 -46.169220112264156 1.8
      vertex 80.57923048734665 -46.309999994933605 1.8
    endloop
  endfacet
  facet normal 0.9469301242576152 -0.3214394807323106 0
    outer loop
      vertex 80.69911099225283 -46.02058284729719 0
      vertex 80.64865543693304 -46.169220112264156 1.8
      vertex 80.64865543693304 -46.169220112264156 0
    endloop
  endfacet
  facet normal 0.9469301242576152 -0.3214394807323106 0
    outer loop
      vertex 80.69911099225283 -46.02058284729719 0
      vertex 80.69911099225283 -46.02058284729719 1.8
      vertex 80.64865543693304 -46.169220112264156 1.8
    endloop
  endfacet
  facet normal 0.9807852825492541 -0.19509031122733816 0
    outer loop
      vertex 80.7297338321805 -45.86663142591715 0
      vertex 80.69911099225283 -46.02058284729719 1.8
      vertex 80.69911099225283 -46.02058284729719 0
    endloop
  endfacet
  facet normal 0.9807852825492541 -0.19509031122733816 0
    outer loop
      vertex 80.7297338321805 -45.86663142591715 0
      vertex 80.7297338321805 -45.86663142591715 1.8
      vertex 80.69911099225283 -46.02058284729719 1.8
    endloop
  endfacet
  facet normal 0.9978589218101567 -0.0654031510240261 0
    outer loop
      vertex 80.74000000208616 -45.70999999344349 0
      vertex 80.7297338321805 -45.86663142591715 1.8
      vertex 80.7297338321805 -45.86663142591715 0
    endloop
  endfacet
  facet normal 0.9978589218101567 -0.0654031510240261 0
    outer loop
      vertex 80.74000000208616 -45.70999999344349 0
      vertex 80.74000000208616 -45.70999999344349 1.8
      vertex 80.7297338321805 -45.86663142591715 1.8
    endloop
  endfacet
  facet normal 1 0 0
    outer loop
      vertex 80.74000000208616 45.70999999344349 0
      vertex 80.74000000208616 -45.70999999344349 1.8
      vertex 80.74000000208616 -45.70999999344349 0
    endloop
  endfacet
  facet normal 1 0 0
    outer loop
      vertex 80.74000000208616 45.70999999344349 0
      vertex 80.74000000208616 45.70999999344349 1.8
      vertex 80.74000000208616 -45.70999999344349 1.8
    endloop
  endfacet
  facet normal 0.9978589218101567 0.0654031510240261 0
    outer loop
      vertex 80.7297338321805 45.86663142591715 0
      vertex 80.74000000208616 45.70999999344349 1.8
      vertex 80.74000000208616 45.70999999344349 0
    endloop
  endfacet
  facet normal 0.9978589218101567 0.0654031510240261 0
    outer loop
      vertex 80.7297338321805 45.86663142591715 0
      vertex 80.7297338321805 45.86663142591715 1.8
      vertex 80.74000000208616 45.70999999344349 1.8
    endloop
  endfacet
  facet normal 0.9807852825492541 0.19509031122733816 0
    outer loop
      vertex 80.69911099225283 46.02058284729719 0
      vertex 80.7297338321805 45.86663142591715 1.8
      vertex 80.7297338321805 45.86663142591715 0
    endloop
  endfacet
  facet normal 0.9807852825492541 0.19509031122733816 0
    outer loop
      vertex 80.69911099225283 46.02058284729719 0
      vertex 80.69911099225283 46.02058284729719 1.8
      vertex 80.7297338321805 45.86663142591715 1.8
    endloop
  endfacet
  facet normal 0.9469301242576152 0.3214394807323106 0
    outer loop
      vertex 80.64865543693304 46.169220112264156 0
      vertex 80.69911099225283 46.02058284729719 1.8
      vertex 80.69911099225283 46.02058284729719 0
    endloop
  endfacet
  facet normal 0.9469301242576152 0.3214394807323106 0
    outer loop
      vertex 80.64865543693304 46.169220112264156 0
      vertex 80.64865543693304 46.169220112264156 1.8
      vertex 80.69911099225283 46.02058284729719 1.8
    endloop
  endfacet
  facet normal 0.8968727557585645 0.44228866137177664 0
    outer loop
      vertex 80.57923048734665 46.309999994933605 0
      vertex 80.64865543693304 46.169220112264156 1.8
      vertex 80.64865543693304 46.169220112264156 0
    endloop
  endfacet
  facet normal 0.8968727557585645 0.44228866137177664 0
    outer loop
      vertex 80.57923048734665 46.309999994933605 0
      vertex 80.57923048734665 46.309999994933605 1.8
      vertex 80.64865543693304 46.169220112264156 1.8
    endloop
  endfacet
  facet normal 0.8314695885740242 0.5555702685318421 0
    outer loop
      vertex 80.49202400445938 46.44051370769739 0
      vertex 80.57923048734665 46.309999994933605 1.8
      vertex 80.57923048734665 46.309999994933605 0
    endloop
  endfacet
  facet normal 0.8314695885740242 0.5555702685318421 0
    outer loop
      vertex 80.49202400445938 46.44051370769739 0
      vertex 80.49202400445938 46.44051370769739 1.8
      vertex 80.57923048734665 46.309999994933605 1.8
    endloop
  endfacet
  facet normal 0.7518398295631654 0.6593457899178781 0
    outer loop
      vertex 80.38852813839912 46.55852813273668 0
      vertex 80.49202400445938 46.44051370769739 1.8
      vertex 80.49202400445938 46.44051370769739 0
    endloop
  endfacet
  facet normal 0.7518398295631654 0.6593457899178781 0
    outer loop
      vertex 80.38852813839912 46.55852813273668 0
      vertex 80.38852813839912 46.55852813273668 1.8
      vertex 80.49202400445938 46.44051370769739 1.8
    endloop
  endfacet
  facet normal 0.6593457899178781 0.7518398295631654 0
    outer loop
      vertex 80.27051371335983 46.66202399879694 0
      vertex 80.38852813839912 46.55852813273668 1.8
      vertex 80.38852813839912 46.55852813273668 0
    endloop
  endfacet
  facet normal 0.6593457899178781 0.7518398295631654 0
    outer loop
      vertex 80.27051371335983 46.66202399879694 0
      vertex 80.27051371335983 46.66202399879694 1.8
      vertex 80.38852813839912 46.55852813273668 1.8
    endloop
  endfacet
  facet normal 0.5555702685318421 0.8314695885740242 0
    outer loop
      vertex 80.14000000059605 46.74923048168421 0
      vertex 80.27051371335983 46.66202399879694 1.8
      vertex 80.27051371335983 46.66202399879694 0
    endloop
  endfacet
  facet normal 0.5555702685318421 0.8314695885740242 0
    outer loop
      vertex 80.14000000059605 46.74923048168421 0
      vertex 80.14000000059605 46.74923048168421 1.8
      vertex 80.27051371335983 46.66202399879694 1.8
    endloop
  endfacet
  facet normal 0.44228866137177664 0.8968727557585645 0
    outer loop
      vertex 79.9992201179266 46.8186554312706 0
      vertex 80.14000000059605 46.74923048168421 1.8
      vertex 80.14000000059605 46.74923048168421 0
    endloop
  endfacet
  facet normal 0.44228866137177664 0.8968727557585645 0
    outer loop
      vertex 79.9992201179266 46.8186554312706 0
      vertex 79.9992201179266 46.8186554312706 1.8
      vertex 80.14000000059605 46.74923048168421 1.8
    endloop
  endfacet
  facet normal 0.3214394807323106 0.9469301242576152 0
    outer loop
      vertex 79.85058285295963 46.869110986590385 0
      vertex 79.9992201179266 46.8186554312706 1.8
      vertex 79.9992201179266 46.8186554312706 0
    endloop
  endfacet
  facet normal 0.3214394807323106 0.9469301242576152 0
    outer loop
      vertex 79.85058285295963 46.869110986590385 0
      vertex 79.85058285295963 46.869110986590385 1.8
      vertex 79.9992201179266 46.8186554312706 1.8
    endloop
  endfacet
  facet normal 0.19509031122733816 0.9807852825492541 0
    outer loop
      vertex 79.69663143157959 46.89973382651806 0
      vertex 79.85058285295963 46.869110986590385 1.8
      vertex 79.85058285295963 46.869110986590385 0
    endloop
  endfacet
  facet normal 0.19509031122733816 0.9807852825492541 0
    outer loop
      vertex 79.69663143157959 46.89973382651806 0
      vertex 79.69663143157959 46.89973382651806 1.8
      vertex 79.85058285295963 46.869110986590385 1.8
    endloop
  endfacet
  facet normal 0.0654031510240261 0.9978589218101567 0
    outer loop
      vertex 79.53999999910593 46.90999999642372 0
      vertex 79.69663143157959 46.89973382651806 1.8
      vertex 79.69663143157959 46.89973382651806 0
    endloop
  endfacet
  facet normal 0.0654031510240261 0.9978589218101567 0
    outer loop
      vertex 79.53999999910593 46.90999999642372 0
      vertex 79.53999999910593 46.90999999642372 1.8
      vertex 79.69663143157959 46.89973382651806 1.8
    endloop
  endfacet
  facet normal 0 1 0
    outer loop
      vertex -79.53999999910593 46.90999999642372 0
      vertex 79.53999999910593 46.90999999642372 1.8
      vertex 79.53999999910593 46.90999999642372 0
    endloop
  endfacet
  facet normal 0 1 0
    outer loop
      vertex -79.53999999910593 46.90999999642372 0
      vertex -79.53999999910593 46.90999999642372 1.8
      vertex 79.53999999910593 46.90999999642372 1.8
    endloop
  endfacet
  facet normal -0.0654031510240261 0.9978589218101567 0
    outer loop
      vertex -79.69663143157959 46.89973382651806 0
      vertex -79.53999999910593 46.90999999642372 1.8
      vertex -79.53999999910593 46.90999999642372 0
    endloop
  endfacet
  facet normal -0.0654031510240261 0.9978589218101567 0
    outer loop
      vertex -79.69663143157959 46.89973382651806 0
      vertex -79.69663143157959 46.89973382651806 1.8
      vertex -79.53999999910593 46.90999999642372 1.8
    endloop
  endfacet
  facet normal -0.19509031122733816 0.9807852825492541 0
    outer loop
      vertex -79.85058285295963 46.869110986590385 0
      vertex -79.69663143157959 46.89973382651806 1.8
      vertex -79.69663143157959 46.89973382651806 0
    endloop
  endfacet
  facet normal -0.19509031122733816 0.9807852825492541 0
    outer loop
      vertex -79.85058285295963 46.869110986590385 0
      vertex -79.85058285295963 46.869110986590385 1.8
      vertex -79.69663143157959 46.89973382651806 1.8
    endloop
  endfacet
  facet normal -0.3214394807323106 0.9469301242576152 0
    outer loop
      vertex -79.9992201179266 46.8186554312706 0
      vertex -79.85058285295963 46.869110986590385 1.8
      vertex -79.85058285295963 46.869110986590385 0
    endloop
  endfacet
  facet normal -0.3214394807323106 0.9469301242576152 0
    outer loop
      vertex -79.9992201179266 46.8186554312706 0
      vertex -79.9992201179266 46.8186554312706 1.8
      vertex -79.85058285295963 46.869110986590385 1.8
    endloop
  endfacet
  facet normal -0.44228866137177664 0.8968727557585645 0
    outer loop
      vertex -80.14000000059605 46.74923048168421 0
      vertex -79.9992201179266 46.8186554312706 1.8
      vertex -79.9992201179266 46.8186554312706 0
    endloop
  endfacet
  facet normal -0.44228866137177664 0.8968727557585645 0
    outer loop
      vertex -80.14000000059605 46.74923048168421 0
      vertex -80.14000000059605 46.74923048168421 1.8
      vertex -79.9992201179266 46.8186554312706 1.8
    endloop
  endfacet
  facet normal -0.5555702685318421 0.8314695885740242 0
    outer loop
      vertex -80.27051371335983 46.66202399879694 0
      vertex -80.14000000059605 46.74923048168421 1.8
      vertex -80.14000000059605 46.74923048168421 0
    endloop
  endfacet
  facet normal -0.5555702685318421 0.8314695885740242 0
    outer loop
      vertex -80.27051371335983 46.66202399879694 0
      vertex -80.27051371335983 46.66202399879694 1.8
      vertex -80.14000000059605 46.74923048168421 1.8
    endloop
  endfacet
  facet normal -0.6593457899178781 0.7518398295631654 0
    outer loop
      vertex -80.38852813839912 46.55852813273668 0
      vertex -80.27051371335983 46.66202399879694 1.8
      vertex -80.27051371335983 46.66202399879694 0
    endloop
  endfacet
  facet normal -0.6593457899178781 0.7518398295631654 0
    outer loop
      vertex -80.38852813839912 46.55852813273668 0
      vertex -80.38852813839912 46.55852813273668 1.8
      vertex -80.27051371335983 46.66202399879694 1.8
    endloop
  endfacet
  facet normal -0.7518398295631654 0.6593457899178781 0
    outer loop
      vertex -80.49202400445938 46.44051370769739 0
      vertex -80.38852813839912 46.55852813273668 1.8
      vertex -80.38852813839912 46.55852813273668 0
    endloop
  endfacet
  facet normal -0.7518398295631654 0.6593457899178781 0
    outer loop
      vertex -80.49202400445938 46.44051370769739 0
      vertex -80.49202400445938 46.44051370769739 1.8
      vertex -80.38852813839912 46.55852813273668 1.8
    endloop
  endfacet
  facet normal -0.8314695885740242 0.5555702685318421 0
    outer loop
      vertex -80.57923048734665 46.309999994933605 0
      vertex -80.49202400445938 46.44051370769739 1.8
      vertex -80.49202400445938 46.44051370769739 0
    endloop
  endfacet
  facet normal -0.8314695885740242 0.5555702685318421 0
    outer loop
      vertex -80.57923048734665 46.309999994933605 0
      vertex -80.57923048734665 46.309999994933605 1.8
      vertex -80.49202400445938 46.44051370769739 1.8
    endloop
  endfacet
  facet normal -0.8968727557585645 0.44228866137177664 0
    outer loop
      vertex -80.64865543693304 46.169220112264156 0
      vertex -80.57923048734665 46.309999994933605 1.8
      vertex -80.57923048734665 46.309999994933605 0
    endloop
  endfacet
  facet normal -0.8968727557585645 0.44228866137177664 0
    outer loop
      vertex -80.64865543693304 46.169220112264156 0
      vertex -80.64865543693304 46.169220112264156 1.8
      vertex -80.57923048734665 46.309999994933605 1.8
    endloop
  endfacet
  facet normal -0.9469301242576152 0.3214394807323106 0
    outer loop
      vertex -80.69911099225283 46.02058284729719 0
      vertex -80.64865543693304 46.169220112264156 1.8
      vertex -80.64865543693304 46.169220112264156 0
    endloop
  endfacet
  facet normal -0.9469301242576152 0.3214394807323106 0
    outer loop
      vertex -80.69911099225283 46.02058284729719 0
      vertex -80.69911099225283 46.02058284729719 1.8
      vertex -80.64865543693304 46.169220112264156 1.8
    endloop
  endfacet
  facet normal -0.9807852825492541 0.19509031122733816 0
    outer loop
      vertex -80.7297338321805 45.86663142591715 0
      vertex -80.69911099225283 46.02058284729719 1.8
      vertex -80.69911099225283 46.02058284729719 0
    endloop
  endfacet
  facet normal -0.9807852825492541 0.19509031122733816 0
    outer loop
      vertex -80.7297338321805 45.86663142591715 0
      vertex -80.7297338321805 45.86663142591715 1.8
      vertex -80.69911099225283 46.02058284729719 1.8
    endloop
  endfacet
  facet normal -0.9978589218101567 0.0654031510240261 0
    outer loop
      vertex -80.74000000208616 45.70999999344349 0
      vertex -80.7297338321805 45.86663142591715 1.8
      vertex -80.7297338321805 45.86663142591715 0
    endloop
  endfacet
  facet normal -0.9978589218101567 0.0654031510240261 0
    outer loop
      vertex -80.74000000208616 45.70999999344349 0
      vertex -80.74000000208616 45.70999999344349 1.8
      vertex -80.7297338321805 45.86663142591715 1.8
    endloop
  endfacet
  facet normal -1 0 0
    outer loop
      vertex -80.74000000208616 -45.70999999344349 0
      vertex -80.74000000208616 45.70999999344349 1.8
      vertex -80.74000000208616 45.70999999344349 0
    endloop
  endfacet
  facet normal -1 0 0
    outer loop
      vertex -80.74000000208616 -45.70999999344349 0
      vertex -80.74000000208616 -45.70999999344349 1.8
      vertex -80.74000000208616 45.70999999344349 1.8
    endloop
  endfacet
  facet normal -0.9978589218101567 -0.0654031510240261 0
    outer loop
      vertex -80.7297338321805 -45.86663142591715 0
      vertex -80.74000000208616 -45.70999999344349 1.8
      vertex -80.74000000208616 -45.70999999344349 0
    endloop
  endfacet
  facet normal -0.9978589218101567 -0.0654031510240261 0
    outer loop
      vertex -80.7297338321805 -45.86663142591715 0
      vertex -80.7297338321805 -45.86663142591715 1.8
      vertex -80.74000000208616 -45.70999999344349 1.8
    endloop
  endfacet
  facet normal -0.9807852825492541 -0.19509031122733816 0
    outer loop
      vertex -80.69911099225283 -46.02058284729719 0
      vertex -80.7297338321805 -45.86663142591715 1.8
      vertex -80.7297338321805 -45.86663142591715 0
    endloop
  endfacet
  facet normal -0.9807852825492541 -0.19509031122733816 0
    outer loop
      vertex -80.69911099225283 -46.02058284729719 0
      vertex -80.69911099225283 -46.02058284729719 1.8
      vertex -80.7297338321805 -45.86663142591715 1.8
    endloop
  endfacet
  facet normal -0.9469301242576152 -0.3214394807323106 0
    outer loop
      vertex -80.64865543693304 -46.169220112264156 0
      vertex -80.69911099225283 -46.02058284729719 1.8
      vertex -80.69911099225283 -46.02058284729719 0
    endloop
  endfacet
  facet normal -0.9469301242576152 -0.3214394807323106 0
    outer loop
      vertex -80.64865543693304 -46.169220112264156 0
      vertex -80.64865543693304 -46.169220112264156 1.8
      vertex -80.69911099225283 -46.02058284729719 1.8
    endloop
  endfacet
  facet normal -0.8968727557585645 -0.44228866137177664 0
    outer loop
      vertex -80.57923048734665 -46.309999994933605 0
      vertex -80.64865543693304 -46.169220112264156 1.8
      vertex -80.64865543693304 -46.169220112264156 0
    endloop
  endfacet
  facet normal -0.8968727557585645 -0.44228866137177664 0
    outer loop
      vertex -80.57923048734665 -46.309999994933605 0
      vertex -80.57923048734665 -46.309999994933605 1.8
      vertex -80.64865543693304 -46.169220112264156 1.8
    endloop
  endfacet
  facet normal -0.8314695885740242 -0.5555702685318421 0
    outer loop
      vertex -80.49202400445938 -46.44051370769739 0
      vertex -80.57923048734665 -46.309999994933605 1.8
      vertex -80.57923048734665 -46.309999994933605 0
    endloop
  endfacet
  facet normal -0.8314695885740242 -0.5555702685318421 0
    outer loop
      vertex -80.49202400445938 -46.44051370769739 0
      vertex -80.49202400445938 -46.44051370769739 1.8
      vertex -80.57923048734665 -46.309999994933605 1.8
    endloop
  endfacet
  facet normal -0.7518398295631654 -0.6593457899178781 0
    outer loop
      vertex -80.38852813839912 -46.55852813273668 0
      vertex -80.49202400445938 -46.44051370769739 1.8
      vertex -80.49202400445938 -46.44051370769739 0
    endloop
  endfacet
  facet normal -0.7518398295631654 -0.6593457899178781 0
    outer loop
      vertex -80.38852813839912 -46.55852813273668 0
      vertex -80.38852813839912 -46.55852813273668 1.8
      vertex -80.49202400445938 -46.44051370769739 1.8
    endloop
  endfacet
  facet normal -0.6593457899178781 -0.7518398295631654 0
    outer loop
      vertex -80.27051371335983 -46.66202399879694 0
      vertex -80.38852813839912 -46.55852813273668 1.8
      vertex -80.38852813839912 -46.55852813273668 0
    endloop
  endfacet
  facet normal -0.6593457899178781 -0.7518398295631654 0
    outer loop
      vertex -80.27051371335983 -46.66202399879694 0
      vertex -80.27051371335983 -46.66202399879694 1.8
      vertex -80.38852813839912 -46.55852813273668 1.8
    endloop
  endfacet
  facet normal -0.5555702685318421 -0.8314695885740242 0
    outer loop
      vertex -80.14000000059605 -46.74923048168421 0
      vertex -80.27051371335983 -46.66202399879694 1.8
      vertex -80.27051371335983 -46.66202399879694 0
    endloop
  endfacet
  facet normal -0.5555702685318421 -0.8314695885740242 0
    outer loop
      vertex -80.14000000059605 -46.74923048168421 0
      vertex -80.14000000059605 -46.74923048168421 1.8
      vertex -80.27051371335983 -46.66202399879694 1.8
    endloop
  endfacet
  facet normal -0.44228866137177664 -0.8968727557585645 0
    outer loop
      vertex -79.9992201179266 -46.8186554312706 0
      vertex -80.14000000059605 -46.74923048168421 1.8
      vertex -80.14000000059605 -46.74923048168421 0
    endloop
  endfacet
  facet normal -0.44228866137177664 -0.8968727557585645 0
    outer loop
      vertex -79.9992201179266 -46.8186554312706 0
      vertex -79.9992201179266 -46.8186554312706 1.8
      vertex -80.14000000059605 -46.74923048168421 1.8
    endloop
  endfacet
  facet normal -0.3214394807323106 -0.9469301242576152 0
    outer loop
      vertex -79.85058285295963 -46.869110986590385 0
      vertex -79.9992201179266 -46.8186554312706 1.8
      vertex -79.9992201179266 -46.8186554312706 0
    endloop
  endfacet
  facet normal -0.3214394807323106 -0.9469301242576152 0
    outer loop
      vertex -79.85058285295963 -46.869110986590385 0
      vertex -79.85058285295963 -46.869110986590385 1.8
      vertex -79.9992201179266 -46.8186554312706 1.8
    endloop
  endfacet
  facet normal -0.19509031122733816 -0.9807852825492541 0
    outer loop
      vertex -79.69663143157959 -46.89973382651806 0
      vertex -79.85058285295963 -46.869110986590385 1.8
      vertex -79.85058285295963 -46.869110986590385 0
    endloop
  endfacet
  facet normal -0.19509031122733816 -0.9807852825492541 0
    outer loop
      vertex -79.69663143157959 -46.89973382651806 0
      vertex -79.69663143157959 -46.89973382651806 1.8
      vertex -79.85058285295963 -46.869110986590385 1.8
    endloop
  endfacet
  facet normal -0.0654031510240261 -0.9978589218101567 0
    outer loop
      vertex -79.53999999910593 -46.90999999642372 0
      vertex -79.69663143157959 -46.89973382651806 1.8
      vertex -79.69663143157959 -46.89973382651806 0
    endloop
  endfacet
  facet normal -0.0654031510240261 -0.9978589218101567 0
    outer loop
      vertex -79.53999999910593 -46.90999999642372 0
      vertex -79.53999999910593 -46.90999999642372 1.8
      vertex -79.69663143157959 -46.89973382651806 1.8
    endloop
  endfacet
  facet normal 0 -1 0
    outer loop
      vertex 79.53999999910593 -46.90999999642372 0
      vertex -79.53999999910593 -46.90999999642372 1.8
      vertex -79.53999999910593 -46.90999999642372 0
    endloop
  endfacet
  facet normal 0 -1 0
    outer loop
      vertex 79.53999999910593 -46.90999999642372 0
      vertex 79.53999999910593 -46.90999999642372 1.8
      vertex -79.53999999910593 -46.90999999642372 1.8
    endloop
  endfacet
  facet normal 0.0654031510240261 -0.9978589218101567 0
    outer loop
      vertex 79.69663143157959 -46.89973382651806 0
      vertex 79.53999999910593 -46.90999999642372 1.8
      vertex 79.53999999910593 -46.90999999642372 0
    endloop
  endfacet
  facet normal 0.0654031510240261 -0.9978589218101567 0
    outer loop
      vertex 79.69663143157959 -46.89973382651806 0
      vertex 79.69663143157959 -46.89973382651806 1.8
      vertex 79.53999999910593 -46.90999999642372 1.8
    endloop
  endfacet
  facet normal 0.06540305340084454 0.9978589282087154 0
    outer loop
      vertex -78.1922104805708 -44.7065779492259 0
      vertex -78.1922104805708 -44.7065779492259 1.8
      vertex -78.14000000059605 -44.71000000089407 0
    endloop
  endfacet
  facet normal 0.06540305340084454 0.9978589282087154 0
    outer loop
      vertex -78.14000000059605 -44.71000000089407 1.8
      vertex -78.14000000059605 -44.71000000089407 0
      vertex -78.1922104805708 -44.7065779492259 1.8
    endloop
  endfacet
  facet normal 0.19509035688653092 0.9807852734670754 0
    outer loop
      vertex -78.24352762103081 -44.69637033343315 0
      vertex -78.24352762103081 -44.69637033343315 1.8
      vertex -78.1922104805708 -44.7065779492259 0
    endloop
  endfacet
  facet normal 0.19509035688653092 0.9807852734670754 0
    outer loop
      vertex -78.1922104805708 -44.7065779492259 1.8
      vertex -78.1922104805708 -44.7065779492259 0
      vertex -78.24352762103081 -44.69637033343315 1.8
    endloop
  endfacet
  facet normal 0.3214394670661981 0.9469301288966355 0
    outer loop
      vertex -78.29307337105274 -44.67955181747675 0
      vertex -78.29307337105274 -44.67955181747675 1.8
      vertex -78.24352762103081 -44.69637033343315 0
    endloop
  endfacet
  facet normal 0.3214394670661981 0.9469301288966355 0
    outer loop
      vertex -78.24352762103081 -44.69637033343315 1.8
      vertex -78.24352762103081 -44.69637033343315 0
      vertex -78.29307337105274 -44.67955181747675 1.8
    endloop
  endfacet
  facet normal 0.4422886618952023 0.8968727555004397 0
    outer loop
      vertex -78.34000000357628 -44.65641016513109 0
      vertex -78.34000000357628 -44.65641016513109 1.8
      vertex -78.29307337105274 -44.67955181747675 0
    endloop
  endfacet
  facet normal 0.4422886618952023 0.8968727555004397 0
    outer loop
      vertex -78.29307337105274 -44.67955181747675 1.8
      vertex -78.29307337105274 -44.67955181747675 0
      vertex -78.34000000357628 -44.65641016513109 1.8
    endloop
  endfacet
  facet normal 0.5555703123844805 0.8314695592726233 0
    outer loop
      vertex -78.38350456953049 -44.627341337502 0
      vertex -78.38350456953049 -44.627341337502 1.8
      vertex -78.34000000357628 -44.65641016513109 0
    endloop
  endfacet
  facet normal 0.5555703123844805 0.8314695592726233 0
    outer loop
      vertex -78.34000000357628 -44.65641016513109 1.8
      vertex -78.34000000357628 -44.65641016513109 0
      vertex -78.38350456953049 -44.627341337502 1.8
    endloop
  endfacet
  facet normal 0.6593458167485153 0.7518398060333287 0
    outer loop
      vertex -78.42284271121025 -44.59284271299839 0
      vertex -78.42284271121025 -44.59284271299839 1.8
      vertex -78.38350456953049 -44.627341337502 0
    endloop
  endfacet
  facet normal 0.6593458167485153 0.7518398060333287 0
    outer loop
      vertex -78.38350456953049 -44.627341337502 1.8
      vertex -78.38350456953049 -44.627341337502 0
      vertex -78.42284271121025 -44.59284271299839 1.8
    endloop
  endfacet
  facet normal 0.7518398060333287 0.6593458167485153 0
    outer loop
      vertex -78.45734133571386 -44.553504571318626 0
      vertex -78.45734133571386 -44.553504571318626 1.8
      vertex -78.42284271121025 -44.59284271299839 0
    endloop
  endfacet
  facet normal 0.7518398060333287 0.6593458167485153 0
    outer loop
      vertex -78.42284271121025 -44.59284271299839 1.8
      vertex -78.42284271121025 -44.59284271299839 0
      vertex -78.45734133571386 -44.553504571318626 1.8
    endloop
  endfacet
  facet normal 0.8314695592726233 0.5555703123844805 0
    outer loop
      vertex -78.48641016334295 -44.51000000536442 0
      vertex -78.48641016334295 -44.51000000536442 1.8
      vertex -78.45734133571386 -44.553504571318626 0
    endloop
  endfacet
  facet normal 0.8314695592726233 0.5555703123844805 0
    outer loop
      vertex -78.45734133571386 -44.553504571318626 1.8
      vertex -78.45734133571386 -44.553504571318626 0
      vertex -78.48641016334295 -44.51000000536442 1.8
    endloop
  endfacet
  facet normal 0.8968727555004397 0.4422886618952023 0
    outer loop
      vertex -78.50955181568861 -44.46307337284088 0
      vertex -78.50955181568861 -44.46307337284088 1.8
      vertex -78.48641016334295 -44.51000000536442 0
    endloop
  endfacet
  facet normal 0.8968727555004397 0.4422886618952023 0
    outer loop
      vertex -78.48641016334295 -44.51000000536442 1.8
      vertex -78.48641016334295 -44.51000000536442 0
      vertex -78.50955181568861 -44.46307337284088 1.8
    endloop
  endfacet
  facet normal 0.9469301288966355 0.3214394670661981 0
    outer loop
      vertex -78.52637033164501 -44.41352762281895 0
      vertex -78.52637033164501 -44.41352762281895 1.8
      vertex -78.50955181568861 -44.46307337284088 0
    endloop
  endfacet
  facet normal 0.9469301288966355 0.3214394670661981 0
    outer loop
      vertex -78.50955181568861 -44.46307337284088 1.8
      vertex -78.50955181568861 -44.46307337284088 0
      vertex -78.52637033164501 -44.41352762281895 1.8
    endloop
  endfacet
  facet normal 0.9807852734670754 0.19509035688653092 0
    outer loop
      vertex -78.53657794743776 -44.36221048235893 0
      vertex -78.53657794743776 -44.36221048235893 1.8
      vertex -78.52637033164501 -44.41352762281895 0
    endloop
  endfacet
  facet normal 0.9807852734670754 0.19509035688653092 0
    outer loop
      vertex -78.52637033164501 -44.41352762281895 1.8
      vertex -78.52637033164501 -44.41352762281895 0
      vertex -78.53657794743776 -44.36221048235893 1.8
    endloop
  endfacet
  facet normal 0.9978589282087154 0.06540305340084454 0
    outer loop
      vertex -78.53999999910593 -44.310000002384186 0
      vertex -78.53999999910593 -44.310000002384186 1.8
      vertex -78.53657794743776 -44.36221048235893 0
    endloop
  endfacet
  facet normal 0.9978589282087154 0.06540305340084454 0
    outer loop
      vertex -78.53657794743776 -44.36221048235893 1.8
      vertex -78.53657794743776 -44.36221048235893 0
      vertex -78.53999999910593 -44.310000002384186 1.8
    endloop
  endfacet
  facet normal 1 0 0
    outer loop
      vertex -78.53999999910593 44.310000002384186 0
      vertex -78.53999999910593 44.310000002384186 1.8
      vertex -78.53999999910593 -44.310000002384186 0
    endloop
  endfacet
  facet normal 1 0 0
    outer loop
      vertex -78.53999999910593 -44.310000002384186 1.8
      vertex -78.53999999910593 -44.310000002384186 0
      vertex -78.53999999910593 44.310000002384186 1.8
    endloop
  endfacet
  facet normal 0.9978589282087154 -0.06540305340084454 0
    outer loop
      vertex -78.53657794743776 44.36221048235893 0
      vertex -78.53657794743776 44.36221048235893 1.8
      vertex -78.53999999910593 44.310000002384186 0
    endloop
  endfacet
  facet normal 0.9978589282087154 -0.06540305340084454 0
    outer loop
      vertex -78.53999999910593 44.310000002384186 1.8
      vertex -78.53999999910593 44.310000002384186 0
      vertex -78.53657794743776 44.36221048235893 1.8
    endloop
  endfacet
  facet normal 0.9807852734670754 -0.19509035688653092 0
    outer loop
      vertex -78.52637033164501 44.41352762281895 0
      vertex -78.52637033164501 44.41352762281895 1.8
      vertex -78.53657794743776 44.36221048235893 0
    endloop
  endfacet
  facet normal 0.9807852734670754 -0.19509035688653092 0
    outer loop
      vertex -78.53657794743776 44.36221048235893 1.8
      vertex -78.53657794743776 44.36221048235893 0
      vertex -78.52637033164501 44.41352762281895 1.8
    endloop
  endfacet
  facet normal 0.9469301288966355 -0.3214394670661981 0
    outer loop
      vertex -78.50955181568861 44.46307337284088 0
      vertex -78.50955181568861 44.46307337284088 1.8
      vertex -78.52637033164501 44.41352762281895 0
    endloop
  endfacet
  facet normal 0.9469301288966355 -0.3214394670661981 0
    outer loop
      vertex -78.52637033164501 44.41352762281895 1.8
      vertex -78.52637033164501 44.41352762281895 0
      vertex -78.50955181568861 44.46307337284088 1.8
    endloop
  endfacet
  facet normal 0.8968727555004397 -0.4422886618952023 0
    outer loop
      vertex -78.48641016334295 44.51000000536442 0
      vertex -78.48641016334295 44.51000000536442 1.8
      vertex -78.50955181568861 44.46307337284088 0
    endloop
  endfacet
  facet normal 0.8968727555004397 -0.4422886618952023 0
    outer loop
      vertex -78.50955181568861 44.46307337284088 1.8
      vertex -78.50955181568861 44.46307337284088 0
      vertex -78.48641016334295 44.51000000536442 1.8
    endloop
  endfacet
  facet normal 0.8314695592726233 -0.5555703123844805 0
    outer loop
      vertex -78.45734133571386 44.553504571318626 0
      vertex -78.45734133571386 44.553504571318626 1.8
      vertex -78.48641016334295 44.51000000536442 0
    endloop
  endfacet
  facet normal 0.8314695592726233 -0.5555703123844805 0
    outer loop
      vertex -78.48641016334295 44.51000000536442 1.8
      vertex -78.48641016334295 44.51000000536442 0
      vertex -78.45734133571386 44.553504571318626 1.8
    endloop
  endfacet
  facet normal 0.7518398060333287 -0.6593458167485153 0
    outer loop
      vertex -78.42284271121025 44.59284271299839 0
      vertex -78.42284271121025 44.59284271299839 1.8
      vertex -78.45734133571386 44.553504571318626 0
    endloop
  endfacet
  facet normal 0.7518398060333287 -0.6593458167485153 0
    outer loop
      vertex -78.45734133571386 44.553504571318626 1.8
      vertex -78.45734133571386 44.553504571318626 0
      vertex -78.42284271121025 44.59284271299839 1.8
    endloop
  endfacet
  facet normal 0.6593458167485153 -0.7518398060333287 0
    outer loop
      vertex -78.38350456953049 44.627341337502 0
      vertex -78.38350456953049 44.627341337502 1.8
      vertex -78.42284271121025 44.59284271299839 0
    endloop
  endfacet
  facet normal 0.6593458167485153 -0.7518398060333287 0
    outer loop
      vertex -78.42284271121025 44.59284271299839 1.8
      vertex -78.42284271121025 44.59284271299839 0
      vertex -78.38350456953049 44.627341337502 1.8
    endloop
  endfacet
  facet normal 0.5555703123844805 -0.8314695592726233 0
    outer loop
      vertex -78.34000000357628 44.65641016513109 0
      vertex -78.34000000357628 44.65641016513109 1.8
      vertex -78.38350456953049 44.627341337502 0
    endloop
  endfacet
  facet normal 0.5555703123844805 -0.8314695592726233 0
    outer loop
      vertex -78.38350456953049 44.627341337502 1.8
      vertex -78.38350456953049 44.627341337502 0
      vertex -78.34000000357628 44.65641016513109 1.8
    endloop
  endfacet
  facet normal 0.4422886618952023 -0.8968727555004397 0
    outer loop
      vertex -78.29307337105274 44.67955181747675 0
      vertex -78.29307337105274 44.67955181747675 1.8
      vertex -78.34000000357628 44.65641016513109 0
    endloop
  endfacet
  facet normal 0.4422886618952023 -0.8968727555004397 0
    outer loop
      vertex -78.34000000357628 44.65641016513109 1.8
      vertex -78.34000000357628 44.65641016513109 0
      vertex -78.29307337105274 44.67955181747675 1.8
    endloop
  endfacet
  facet normal 0.3214394670661981 -0.9469301288966355 0
    outer loop
      vertex -78.24352762103081 44.69637033343315 0
      vertex -78.24352762103081 44.69637033343315 1.8
      vertex -78.29307337105274 44.67955181747675 0
    endloop
  endfacet
  facet normal 0.3214394670661981 -0.9469301288966355 0
    outer loop
      vertex -78.29307337105274 44.67955181747675 1.8
      vertex -78.29307337105274 44.67955181747675 0
      vertex -78.24352762103081 44.69637033343315 1.8
    endloop
  endfacet
  facet normal 0.19509035688653092 -0.9807852734670754 0
    outer loop
      vertex -78.1922104805708 44.7065779492259 0
      vertex -78.1922104805708 44.7065779492259 1.8
      vertex -78.24352762103081 44.69637033343315 0
    endloop
  endfacet
  facet normal 0.19509035688653092 -0.9807852734670754 0
    outer loop
      vertex -78.24352762103081 44.69637033343315 1.8
      vertex -78.24352762103081 44.69637033343315 0
      vertex -78.1922104805708 44.7065779492259 1.8
    endloop
  endfacet
  facet normal 0.06540305340084454 -0.9978589282087154 0
    outer loop
      vertex -78.14000000059605 44.71000000089407 0
      vertex -78.14000000059605 44.71000000089407 1.8
      vertex -78.1922104805708 44.7065779492259 0
    endloop
  endfacet
  facet normal 0.06540305340084454 -0.9978589282087154 0
    outer loop
      vertex -78.1922104805708 44.7065779492259 1.8
      vertex -78.1922104805708 44.7065779492259 0
      vertex -78.14000000059605 44.71000000089407 1.8
    endloop
  endfacet
  facet normal 0 -1 0
    outer loop
      vertex 78.14000000059605 44.71000000089407 0
      vertex 78.14000000059605 44.71000000089407 1.8
      vertex -78.14000000059605 44.71000000089407 0
    endloop
  endfacet
  facet normal 0 -1 0
    outer loop
      vertex -78.14000000059605 44.71000000089407 1.8
      vertex -78.14000000059605 44.71000000089407 0
      vertex 78.14000000059605 44.71000000089407 1.8
    endloop
  endfacet
  facet normal -0.06540305340084454 -0.9978589282087154 0
    outer loop
      vertex 78.1922104805708 44.7065779492259 0
      vertex 78.1922104805708 44.7065779492259 1.8
      vertex 78.14000000059605 44.71000000089407 0
    endloop
  endfacet
  facet normal -0.06540305340084454 -0.9978589282087154 0
    outer loop
      vertex 78.14000000059605 44.71000000089407 1.8
      vertex 78.14000000059605 44.71000000089407 0
      vertex 78.1922104805708 44.7065779492259 1.8
    endloop
  endfacet
  facet normal -0.19509035688653092 -0.9807852734670754 0
    outer loop
      vertex 78.24352762103081 44.69637033343315 0
      vertex 78.24352762103081 44.69637033343315 1.8
      vertex 78.1922104805708 44.7065779492259 0
    endloop
  endfacet
  facet normal -0.19509035688653092 -0.9807852734670754 0
    outer loop
      vertex 78.1922104805708 44.7065779492259 1.8
      vertex 78.1922104805708 44.7065779492259 0
      vertex 78.24352762103081 44.69637033343315 1.8
    endloop
  endfacet
  facet normal -0.3214394670661981 -0.9469301288966355 0
    outer loop
      vertex 78.29307337105274 44.67955181747675 0
      vertex 78.29307337105274 44.67955181747675 1.8
      vertex 78.24352762103081 44.69637033343315 0
    endloop
  endfacet
  facet normal -0.3214394670661981 -0.9469301288966355 0
    outer loop
      vertex 78.24352762103081 44.69637033343315 1.8
      vertex 78.24352762103081 44.69637033343315 0
      vertex 78.29307337105274 44.67955181747675 1.8
    endloop
  endfacet
  facet normal -0.4422886618952023 -0.8968727555004397 0
    outer loop
      vertex 78.34000000357628 44.65641016513109 0
      vertex 78.34000000357628 44.65641016513109 1.8
      vertex 78.29307337105274 44.67955181747675 0
    endloop
  endfacet
  facet normal -0.4422886618952023 -0.8968727555004397 0
    outer loop
      vertex 78.29307337105274 44.67955181747675 1.8
      vertex 78.29307337105274 44.67955181747675 0
      vertex 78.34000000357628 44.65641016513109 1.8
    endloop
  endfacet
  facet normal -0.5555703123844805 -0.8314695592726233 0
    outer loop
      vertex 78.38350456953049 44.627341337502 0
      vertex 78.38350456953049 44.627341337502 1.8
      vertex 78.34000000357628 44.65641016513109 0
    endloop
  endfacet
  facet normal -0.5555703123844805 -0.8314695592726233 0
    outer loop
      vertex 78.34000000357628 44.65641016513109 1.8
      vertex 78.34000000357628 44.65641016513109 0
      vertex 78.38350456953049 44.627341337502 1.8
    endloop
  endfacet
  facet normal -0.6593458167485153 -0.7518398060333287 0
    outer loop
      vertex 78.42284271121025 44.59284271299839 0
      vertex 78.42284271121025 44.59284271299839 1.8
      vertex 78.38350456953049 44.627341337502 0
    endloop
  endfacet
  facet normal -0.6593458167485153 -0.7518398060333287 0
    outer loop
      vertex 78.38350456953049 44.627341337502 1.8
      vertex 78.38350456953049 44.627341337502 0
      vertex 78.42284271121025 44.59284271299839 1.8
    endloop
  endfacet
  facet normal -0.7518398060333287 -0.6593458167485153 0
    outer loop
      vertex 78.45734133571386 44.553504571318626 0
      vertex 78.45734133571386 44.553504571318626 1.8
      vertex 78.42284271121025 44.59284271299839 0
    endloop
  endfacet
  facet normal -0.7518398060333287 -0.6593458167485153 0
    outer loop
      vertex 78.42284271121025 44.59284271299839 1.8
      vertex 78.42284271121025 44.59284271299839 0
      vertex 78.45734133571386 44.553504571318626 1.8
    endloop
  endfacet
  facet normal -0.8314695592726233 -0.5555703123844805 0
    outer loop
      vertex 78.48641016334295 44.51000000536442 0
      vertex 78.48641016334295 44.51000000536442 1.8
      vertex 78.45734133571386 44.553504571318626 0
    endloop
  endfacet
  facet normal -0.8314695592726233 -0.5555703123844805 0
    outer loop
      vertex 78.45734133571386 44.553504571318626 1.8
      vertex 78.45734133571386 44.553504571318626 0
      vertex 78.48641016334295 44.51000000536442 1.8
    endloop
  endfacet
  facet normal -0.8968727555004397 -0.4422886618952023 0
    outer loop
      vertex 78.50955181568861 44.46307337284088 0
      vertex 78.50955181568861 44.46307337284088 1.8
      vertex 78.48641016334295 44.51000000536442 0
    endloop
  endfacet
  facet normal -0.8968727555004397 -0.4422886618952023 0
    outer loop
      vertex 78.48641016334295 44.51000000536442 1.8
      vertex 78.48641016334295 44.51000000536442 0
      vertex 78.50955181568861 44.46307337284088 1.8
    endloop
  endfacet
  facet normal -0.9469301288966355 -0.3214394670661981 0
    outer loop
      vertex 78.52637033164501 44.41352762281895 0
      vertex 78.52637033164501 44.41352762281895 1.8
      vertex 78.50955181568861 44.46307337284088 0
    endloop
  endfacet
  facet normal -0.9469301288966355 -0.3214394670661981 0
    outer loop
      vertex 78.50955181568861 44.46307337284088 1.8
      vertex 78.50955181568861 44.46307337284088 0
      vertex 78.52637033164501 44.41352762281895 1.8
    endloop
  endfacet
  facet normal -0.9807852734670754 -0.19509035688653092 0
    outer loop
      vertex 78.53657794743776 44.36221048235893 0
      vertex 78.53657794743776 44.36221048235893 1.8
      vertex 78.52637033164501 44.41352762281895 0
    endloop
  endfacet
  facet normal -0.9807852734670754 -0.19509035688653092 0
    outer loop
      vertex 78.52637033164501 44.41352762281895 1.8
      vertex 78.52637033164501 44.41352762281895 0
      vertex 78.53657794743776 44.36221048235893 1.8
    endloop
  endfacet
  facet normal -0.9978589282087154 -0.06540305340084454 0
    outer loop
      vertex 78.53999999910593 44.310000002384186 0
      vertex 78.53999999910593 44.310000002384186 1.8
      vertex 78.53657794743776 44.36221048235893 0
    endloop
  endfacet
  facet normal -0.9978589282087154 -0.06540305340084454 0
    outer loop
      vertex 78.53657794743776 44.36221048235893 1.8
      vertex 78.53657794743776 44.36221048235893 0
      vertex 78.53999999910593 44.310000002384186 1.8
    endloop
  endfacet
  facet normal -1 0 0
    outer loop
      vertex 78.53999999910593 -44.310000002384186 0
      vertex 78.53999999910593 -44.310000002384186 1.8
      vertex 78.53999999910593 44.310000002384186 0
    endloop
  endfacet
  facet normal -1 0 0
    outer loop
      vertex 78.53999999910593 44.310000002384186 1.8
      vertex 78.53999999910593 44.310000002384186 0
      vertex 78.53999999910593 -44.310000002384186 1.8
    endloop
  endfacet
  facet normal -0.9978589282087154 0.06540305340084454 0
    outer loop
      vertex 78.53657794743776 -44.36221048235893 0
      vertex 78.53657794743776 -44.36221048235893 1.8
      vertex 78.53999999910593 -44.310000002384186 0
    endloop
  endfacet
  facet normal -0.9978589282087154 0.06540305340084454 0
    outer loop
      vertex 78.53999999910593 -44.310000002384186 1.8
      vertex 78.53999999910593 -44.310000002384186 0
      vertex 78.53657794743776 -44.36221048235893 1.8
    endloop
  endfacet
  facet normal -0.9807852734670754 0.19509035688653092 0
    outer loop
      vertex 78.52637033164501 -44.41352762281895 0
      vertex 78.52637033164501 -44.41352762281895 1.8
      vertex 78.53657794743776 -44.36221048235893 0
    endloop
  endfacet
  facet normal -0.9807852734670754 0.19509035688653092 0
    outer loop
      vertex 78.53657794743776 -44.36221048235893 1.8
      vertex 78.53657794743776 -44.36221048235893 0
      vertex 78.52637033164501 -44.41352762281895 1.8
    endloop
  endfacet
  facet normal -0.9469301288966355 0.3214394670661981 0
    outer loop
      vertex 78.50955181568861 -44.46307337284088 0
      vertex 78.50955181568861 -44.46307337284088 1.8
      vertex 78.52637033164501 -44.41352762281895 0
    endloop
  endfacet
  facet normal -0.9469301288966355 0.3214394670661981 0
    outer loop
      vertex 78.52637033164501 -44.41352762281895 1.8
      vertex 78.52637033164501 -44.41352762281895 0
      vertex 78.50955181568861 -44.46307337284088 1.8
    endloop
  endfacet
  facet normal -0.8968727555004397 0.4422886618952023 0
    outer loop
      vertex 78.48641016334295 -44.51000000536442 0
      vertex 78.48641016334295 -44.51000000536442 1.8
      vertex 78.50955181568861 -44.46307337284088 0
    endloop
  endfacet
  facet normal -0.8968727555004397 0.4422886618952023 0
    outer loop
      vertex 78.50955181568861 -44.46307337284088 1.8
      vertex 78.50955181568861 -44.46307337284088 0
      vertex 78.48641016334295 -44.51000000536442 1.8
    endloop
  endfacet
  facet normal -0.8314695592726233 0.5555703123844805 0
    outer loop
      vertex 78.45734133571386 -44.553504571318626 0
      vertex 78.45734133571386 -44.553504571318626 1.8
      vertex 78.48641016334295 -44.51000000536442 0
    endloop
  endfacet
  facet normal -0.8314695592726233 0.5555703123844805 0
    outer loop
      vertex 78.48641016334295 -44.51000000536442 1.8
      vertex 78.48641016334295 -44.51000000536442 0
      vertex 78.45734133571386 -44.553504571318626 1.8
    endloop
  endfacet
  facet normal -0.7518398060333287 0.6593458167485153 0
    outer loop
      vertex 78.42284271121025 -44.59284271299839 0
      vertex 78.42284271121025 -44.59284271299839 1.8
      vertex 78.45734133571386 -44.553504571318626 0
    endloop
  endfacet
  facet normal -0.7518398060333287 0.6593458167485153 0
    outer loop
      vertex 78.45734133571386 -44.553504571318626 1.8
      vertex 78.45734133571386 -44.553504571318626 0
      vertex 78.42284271121025 -44.59284271299839 1.8
    endloop
  endfacet
  facet normal -0.6593458167485153 0.7518398060333287 0
    outer loop
      vertex 78.38350456953049 -44.627341337502 0
      vertex 78.38350456953049 -44.627341337502 1.8
      vertex 78.42284271121025 -44.59284271299839 0
    endloop
  endfacet
  facet normal -0.6593458167485153 0.7518398060333287 0
    outer loop
      vertex 78.42284271121025 -44.59284271299839 1.8
      vertex 78.42284271121025 -44.59284271299839 0
      vertex 78.38350456953049 -44.627341337502 1.8
    endloop
  endfacet
  facet normal -0.5555703123844805 0.8314695592726233 0
    outer loop
      vertex 78.34000000357628 -44.65641016513109 0
      vertex 78.34000000357628 -44.65641016513109 1.8
      vertex 78.38350456953049 -44.627341337502 0
    endloop
  endfacet
  facet normal -0.5555703123844805 0.8314695592726233 0
    outer loop
      vertex 78.38350456953049 -44.627341337502 1.8
      vertex 78.38350456953049 -44.627341337502 0
      vertex 78.34000000357628 -44.65641016513109 1.8
    endloop
  endfacet
  facet normal -0.4422886618952023 0.8968727555004397 0
    outer loop
      vertex 78.29307337105274 -44.67955181747675 0
      vertex 78.29307337105274 -44.67955181747675 1.8
      vertex 78.34000000357628 -44.65641016513109 0
    endloop
  endfacet
  facet normal -0.4422886618952023 0.8968727555004397 0
    outer loop
      vertex 78.34000000357628 -44.65641016513109 1.8
      vertex 78.34000000357628 -44.65641016513109 0
      vertex 78.29307337105274 -44.67955181747675 1.8
    endloop
  endfacet
  facet normal -0.3214394670661981 0.9469301288966355 0
    outer loop
      vertex 78.24352762103081 -44.69637033343315 0
      vertex 78.24352762103081 -44.69637033343315 1.8
      vertex 78.29307337105274 -44.67955181747675 0
    endloop
  endfacet
  facet normal -0.3214394670661981 0.9469301288966355 0
    outer loop
      vertex 78.29307337105274 -44.67955181747675 1.8
      vertex 78.29307337105274 -44.67955181747675 0
      vertex 78.24352762103081 -44.69637033343315 1.8
    endloop
  endfacet
  facet normal -0.19509035688653092 0.9807852734670754 0
    outer loop
      vertex 78.1922104805708 -44.7065779492259 0
      vertex 78.1922104805708 -44.7065779492259 1.8
      vertex 78.24352762103081 -44.69637033343315 0
    endloop
  endfacet
  facet normal -0.19509035688653092 0.9807852734670754 0
    outer loop
      vertex 78.24352762103081 -44.69637033343315 1.8
      vertex 78.24352762103081 -44.69637033343315 0
      vertex 78.1922104805708 -44.7065779492259 1.8
    endloop
  endfacet
  facet normal -0.06540305340084454 0.9978589282087154 0
    outer loop
      vertex 78.14000000059605 -44.71000000089407 0
      vertex 78.14000000059605 -44.71000000089407 1.8
      vertex 78.1922104805708 -44.7065779492259 0
    endloop
  endfacet
  facet normal -0.06540305340084454 0.9978589282087154 0
    outer loop
      vertex 78.1922104805708 -44.7065779492259 1.8
      vertex 78.1922104805708 -44.7065779492259 0
      vertex 78.14000000059605 -44.71000000089407 1.8
    endloop
  endfacet
  facet normal 0 1 0
    outer loop
      vertex -78.14000000059605 -44.71000000089407 0
      vertex -78.14000000059605 -44.71000000089407 1.8
      vertex 78.14000000059605 -44.71000000089407 0
    endloop
  endfacet
  facet normal 0 1 0
    outer loop
      vertex 78.14000000059605 -44.71000000089407 1.8
      vertex 78.14000000059605 -44.71000000089407 0
      vertex -78.14000000059605 -44.71000000089407 1.8
    endloop
  endfacet
  facet normal 0 0 1
    outer loop
      vertex 78.53657794743776 44.36221048235893 1.8
      vertex 78.53999999910593 44.310000002384186 1.8
      vertex 80.74000000208616 45.70999999344349 1.8
    endloop
  endfacet
  facet normal 0 0 1
    outer loop
      vertex 78.52637033164501 44.41352762281895 1.8
      vertex 78.53657794743776 44.36221048235893 1.8
      vertex 80.74000000208616 45.70999999344349 1.8
    endloop
  endfacet
  facet normal 0 0 1
    outer loop
      vertex 78.50955181568861 44.46307337284088 1.8
      vertex 78.52637033164501 44.41352762281895 1.8
      vertex 80.74000000208616 45.70999999344349 1.8
    endloop
  endfacet
  facet normal 0 0 1
    outer loop
      vertex 78.48641016334295 44.51000000536442 1.8
      vertex 78.50955181568861 44.46307337284088 1.8
      vertex 80.74000000208616 45.70999999344349 1.8
    endloop
  endfacet
  facet normal 0 0 1
    outer loop
      vertex 80.74000000208616 -45.70999999344349 1.8
      vertex 80.74000000208616 45.70999999344349 1.8
      vertex 78.53999999910593 44.310000002384186 1.8
    endloop
  endfacet
  facet normal 0 0 1
    outer loop
      vertex 80.74000000208616 -45.70999999344349 1.8
      vertex 78.53999999910593 44.310000002384186 1.8
      vertex 78.53999999910593 -44.310000002384186 1.8
    endloop
  endfacet
  facet normal 0 0 1
    outer loop
      vertex 80.74000000208616 -45.70999999344349 1.8
      vertex 78.53999999910593 -44.310000002384186 1.8
      vertex 78.53657794743776 -44.36221048235893 1.8
    endloop
  endfacet
  facet normal 0 0 1
    outer loop
      vertex 80.74000000208616 -45.70999999344349 1.8
      vertex 78.53657794743776 -44.36221048235893 1.8
      vertex 78.52637033164501 -44.41352762281895 1.8
    endloop
  endfacet
  facet normal 0 0 1
    outer loop
      vertex 80.74000000208616 -45.70999999344349 1.8
      vertex 78.52637033164501 -44.41352762281895 1.8
      vertex 78.50955181568861 -44.46307337284088 1.8
    endloop
  endfacet
  facet normal 0 0 1
    outer loop
      vertex 80.74000000208616 -45.70999999344349 1.8
      vertex 78.50955181568861 -44.46307337284088 1.8
      vertex 78.48641016334295 -44.51000000536442 1.8
    endloop
  endfacet
  facet normal 0 0 1
    outer loop
      vertex 78.45734133571386 44.553504571318626 1.8
      vertex 78.48641016334295 44.51000000536442 1.8
      vertex 80.74000000208616 45.70999999344349 1.8
    endloop
  endfacet
  facet normal 0 0 1
    outer loop
      vertex 80.74000000208616 -45.70999999344349 1.8
      vertex 78.48641016334295 -44.51000000536442 1.8
      vertex 78.45734133571386 -44.553504571318626 1.8
    endloop
  endfacet
  facet normal 0 0 1
    outer loop
      vertex 78.42284271121025 44.59284271299839 1.8
      vertex 78.45734133571386 44.553504571318626 1.8
      vertex 80.74000000208616 45.70999999344349 1.8
    endloop
  endfacet
  facet normal 0 0 1
    outer loop
      vertex 80.74000000208616 -45.70999999344349 1.8
      vertex 78.45734133571386 -44.553504571318626 1.8
      vertex 78.42284271121025 -44.59284271299839 1.8
    endloop
  endfacet
  facet normal 0 0 1
    outer loop
      vertex 78.42284271121025 44.59284271299839 1.8
      vertex 80.74000000208616 45.70999999344349 1.8
      vertex 80.7297338321805 45.86663142591715 1.8
    endloop
  endfacet
  facet normal 0 0 1
    outer loop
      vertex 78.42284271121025 44.59284271299839 1.8
      vertex 80.7297338321805 45.86663142591715 1.8
      vertex 80.69911099225283 46.02058284729719 1.8
    endloop
  endfacet
  facet normal 0 0 1
    outer loop
      vertex 78.42284271121025 44.59284271299839 1.8
      vertex 80.69911099225283 46.02058284729719 1.8
      vertex 80.64865543693304 46.169220112264156 1.8
    endloop
  endfacet
  facet normal 0 0 1
    outer loop
      vertex 78.42284271121025 44.59284271299839 1.8
      vertex 80.64865543693304 46.169220112264156 1.8
      vertex 80.57923048734665 46.309999994933605 1.8
    endloop
  endfacet
  facet normal 0 0 1
    outer loop
      vertex 78.42284271121025 44.59284271299839 1.8
      vertex 80.57923048734665 46.309999994933605 1.8
      vertex 80.49202400445938 46.44051370769739 1.8
    endloop
  endfacet
  facet normal 0 0 1
    outer loop
      vertex 78.42284271121025 44.59284271299839 1.8
      vertex 80.49202400445938 46.44051370769739 1.8
      vertex 80.38852813839912 46.55852813273668 1.8
    endloop
  endfacet
  facet normal 0 0 1
    outer loop
      vertex 78.38350456953049 44.627341337502 1.8
      vertex 78.42284271121025 44.59284271299839 1.8
      vertex 80.38852813839912 46.55852813273668 1.8
    endloop
  endfacet
  facet normal 0 0 1
    outer loop
      vertex 78.38350456953049 44.627341337502 1.8
      vertex 80.38852813839912 46.55852813273668 1.8
      vertex 80.27051371335983 46.66202399879694 1.8
    endloop
  endfacet
  facet normal 0 0 1
    outer loop
      vertex 78.34000000357628 44.65641016513109 1.8
      vertex 78.38350456953049 44.627341337502 1.8
      vertex 80.27051371335983 46.66202399879694 1.8
    endloop
  endfacet
  facet normal 0 0 1
    outer loop
      vertex 78.34000000357628 44.65641016513109 1.8
      vertex 80.27051371335983 46.66202399879694 1.8
      vertex 80.14000000059605 46.74923048168421 1.8
    endloop
  endfacet
  facet normal 0 0 1
    outer loop
      vertex 78.34000000357628 44.65641016513109 1.8
      vertex 80.14000000059605 46.74923048168421 1.8
      vertex 79.9992201179266 46.8186554312706 1.8
    endloop
  endfacet
  facet normal 0 0 1
    outer loop
      vertex 78.34000000357628 44.65641016513109 1.8
      vertex 79.9992201179266 46.8186554312706 1.8
      vertex 79.85058285295963 46.869110986590385 1.8
    endloop
  endfacet
  facet normal 0 0 1
    outer loop
      vertex 78.34000000357628 44.65641016513109 1.8
      vertex 79.85058285295963 46.869110986590385 1.8
      vertex 79.69663143157959 46.89973382651806 1.8
    endloop
  endfacet
  facet normal 0 0 1
    outer loop
      vertex 78.34000000357628 44.65641016513109 1.8
      vertex 79.69663143157959 46.89973382651806 1.8
      vertex 79.53999999910593 46.90999999642372 1.8
    endloop
  endfacet
  facet normal 0 0 1
    outer loop
      vertex 78.29307337105274 44.67955181747675 1.8
      vertex 78.34000000357628 44.65641016513109 1.8
      vertex 79.53999999910593 46.90999999642372 1.8
    endloop
  endfacet
  facet normal 0 0 1
    outer loop
      vertex 78.24352762103081 44.69637033343315 1.8
      vertex 78.29307337105274 44.67955181747675 1.8
      vertex 79.53999999910593 46.90999999642372 1.8
    endloop
  endfacet
  facet normal 0 0 1
    outer loop
      vertex 78.1922104805708 44.7065779492259 1.8
      vertex 78.24352762103081 44.69637033343315 1.8
      vertex 79.53999999910593 46.90999999642372 1.8
    endloop
  endfacet
  facet normal 0 0 1
    outer loop
      vertex 80.7297338321805 -45.86663142591715 1.8
      vertex 80.74000000208616 -45.70999999344349 1.8
      vertex 78.42284271121025 -44.59284271299839 1.8
    endloop
  endfacet
  facet normal 0 0 1
    outer loop
      vertex 80.69911099225283 -46.02058284729719 1.8
      vertex 80.7297338321805 -45.86663142591715 1.8
      vertex 78.42284271121025 -44.59284271299839 1.8
    endloop
  endfacet
  facet normal 0 0 1
    outer loop
      vertex 80.64865543693304 -46.169220112264156 1.8
      vertex 80.69911099225283 -46.02058284729719 1.8
      vertex 78.42284271121025 -44.59284271299839 1.8
    endloop
  endfacet
  facet normal 0 0 1
    outer loop
      vertex 80.57923048734665 -46.309999994933605 1.8
      vertex 80.64865543693304 -46.169220112264156 1.8
      vertex 78.42284271121025 -44.59284271299839 1.8
    endloop
  endfacet
  facet normal 0 0 1
    outer loop
      vertex 80.49202400445938 -46.44051370769739 1.8
      vertex 80.57923048734665 -46.309999994933605 1.8
      vertex 78.42284271121025 -44.59284271299839 1.8
    endloop
  endfacet
  facet normal 0 0 1
    outer loop
      vertex 80.38852813839912 -46.55852813273668 1.8
      vertex 80.49202400445938 -46.44051370769739 1.8
      vertex 78.42284271121025 -44.59284271299839 1.8
    endloop
  endfacet
  facet normal 0 0 1
    outer loop
      vertex 80.38852813839912 -46.55852813273668 1.8
      vertex 78.42284271121025 -44.59284271299839 1.8
      vertex 78.38350456953049 -44.627341337502 1.8
    endloop
  endfacet
  facet normal 0 0 1
    outer loop
      vertex 80.27051371335983 -46.66202399879694 1.8
      vertex 80.38852813839912 -46.55852813273668 1.8
      vertex 78.38350456953049 -44.627341337502 1.8
    endloop
  endfacet
  facet normal 0 0 1
    outer loop
      vertex 80.27051371335983 -46.66202399879694 1.8
      vertex 78.38350456953049 -44.627341337502 1.8
      vertex 78.34000000357628 -44.65641016513109 1.8
    endloop
  endfacet
  facet normal 0 0 1
    outer loop
      vertex 80.14000000059605 -46.74923048168421 1.8
      vertex 80.27051371335983 -46.66202399879694 1.8
      vertex 78.34000000357628 -44.65641016513109 1.8
    endloop
  endfacet
  facet normal 0 0 1
    outer loop
      vertex 79.9992201179266 -46.8186554312706 1.8
      vertex 80.14000000059605 -46.74923048168421 1.8
      vertex 78.34000000357628 -44.65641016513109 1.8
    endloop
  endfacet
  facet normal 0 0 1
    outer loop
      vertex 79.85058285295963 -46.869110986590385 1.8
      vertex 79.9992201179266 -46.8186554312706 1.8
      vertex 78.34000000357628 -44.65641016513109 1.8
    endloop
  endfacet
  facet normal 0 0 1
    outer loop
      vertex 79.69663143157959 -46.89973382651806 1.8
      vertex 79.85058285295963 -46.869110986590385 1.8
      vertex 78.34000000357628 -44.65641016513109 1.8
    endloop
  endfacet
  facet normal 0 0 1
    outer loop
      vertex 79.53999999910593 -46.90999999642372 1.8
      vertex 79.69663143157959 -46.89973382651806 1.8
      vertex 78.34000000357628 -44.65641016513109 1.8
    endloop
  endfacet
  facet normal 0 0 1
    outer loop
      vertex 79.53999999910593 -46.90999999642372 1.8
      vertex 78.34000000357628 -44.65641016513109 1.8
      vertex 78.29307337105274 -44.67955181747675 1.8
    endloop
  endfacet
  facet normal 0 0 1
    outer loop
      vertex 79.53999999910593 -46.90999999642372 1.8
      vertex 78.29307337105274 -44.67955181747675 1.8
      vertex 78.24352762103081 -44.69637033343315 1.8
    endloop
  endfacet
  facet normal 0 0 1
    outer loop
      vertex 79.53999999910593 -46.90999999642372 1.8
      vertex 78.24352762103081 -44.69637033343315 1.8
      vertex 78.1922104805708 -44.7065779492259 1.8
    endloop
  endfacet
  facet normal 0 0 1
    outer loop
      vertex 78.14000000059605 44.71000000089407 1.8
      vertex 78.1922104805708 44.7065779492259 1.8
      vertex 79.53999999910593 46.90999999642372 1.8
    endloop
  endfacet
  facet normal 0 0 1
    outer loop
      vertex 78.14000000059605 44.71000000089407 1.8
      vertex 79.53999999910593 46.90999999642372 1.8
      vertex -79.53999999910593 46.90999999642372 1.8
    endloop
  endfacet
  facet normal 0 0 1
    outer loop
      vertex -78.14000000059605 44.71000000089407 1.8
      vertex 78.14000000059605 44.71000000089407 1.8
      vertex -79.53999999910593 46.90999999642372 1.8
    endloop
  endfacet
  facet normal 0 0 1
    outer loop
      vertex -78.1922104805708 44.7065779492259 1.8
      vertex -78.14000000059605 44.71000000089407 1.8
      vertex -79.53999999910593 46.90999999642372 1.8
    endloop
  endfacet
  facet normal 0 0 1
    outer loop
      vertex -78.24352762103081 44.69637033343315 1.8
      vertex -78.1922104805708 44.7065779492259 1.8
      vertex -79.53999999910593 46.90999999642372 1.8
    endloop
  endfacet
  facet normal 0 0 1
    outer loop
      vertex -78.29307337105274 44.67955181747675 1.8
      vertex -78.24352762103081 44.69637033343315 1.8
      vertex -79.53999999910593 46.90999999642372 1.8
    endloop
  endfacet
  facet normal 0 0 1
    outer loop
      vertex -78.34000000357628 44.65641016513109 1.8
      vertex -78.29307337105274 44.67955181747675 1.8
      vertex -79.53999999910593 46.90999999642372 1.8
    endloop
  endfacet
  facet normal 0 0 1
    outer loop
      vertex -78.38350456953049 44.627341337502 1.8
      vertex -78.34000000357628 44.65641016513109 1.8
      vertex -79.53999999910593 46.90999999642372 1.8
    endloop
  endfacet
  facet normal 0 0 1
    outer loop
      vertex -78.42284271121025 44.59284271299839 1.8
      vertex -78.38350456953049 44.627341337502 1.8
      vertex -79.53999999910593 46.90999999642372 1.8
    endloop
  endfacet
  facet normal 0 0 1
    outer loop
      vertex -78.42284271121025 44.59284271299839 1.8
      vertex -79.53999999910593 46.90999999642372 1.8
      vertex -79.69663143157959 46.89973382651806 1.8
    endloop
  endfacet
  facet normal 0 0 1
    outer loop
      vertex -78.42284271121025 44.59284271299839 1.8
      vertex -79.69663143157959 46.89973382651806 1.8
      vertex -79.85058285295963 46.869110986590385 1.8
    endloop
  endfacet
  facet normal 0 0 1
    outer loop
      vertex -78.42284271121025 44.59284271299839 1.8
      vertex -79.85058285295963 46.869110986590385 1.8
      vertex -79.9992201179266 46.8186554312706 1.8
    endloop
  endfacet
  facet normal 0 0 1
    outer loop
      vertex -78.42284271121025 44.59284271299839 1.8
      vertex -79.9992201179266 46.8186554312706 1.8
      vertex -80.14000000059605 46.74923048168421 1.8
    endloop
  endfacet
  facet normal 0 0 1
    outer loop
      vertex -78.42284271121025 44.59284271299839 1.8
      vertex -80.14000000059605 46.74923048168421 1.8
      vertex -80.27051371335983 46.66202399879694 1.8
    endloop
  endfacet
  facet normal 0 0 1
    outer loop
      vertex -78.42284271121025 44.59284271299839 1.8
      vertex -80.27051371335983 46.66202399879694 1.8
      vertex -80.38852813839912 46.55852813273668 1.8
    endloop
  endfacet
  facet normal 0 0 1
    outer loop
      vertex -78.45734133571386 44.553504571318626 1.8
      vertex -78.42284271121025 44.59284271299839 1.8
      vertex -80.38852813839912 46.55852813273668 1.8
    endloop
  endfacet
  facet normal 0 0 1
    outer loop
      vertex -78.45734133571386 44.553504571318626 1.8
      vertex -80.38852813839912 46.55852813273668 1.8
      vertex -80.49202400445938 46.44051370769739 1.8
    endloop
  endfacet
  facet normal 0 0 1
    outer loop
      vertex -78.48641016334295 44.51000000536442 1.8
      vertex -78.45734133571386 44.553504571318626 1.8
      vertex -80.49202400445938 46.44051370769739 1.8
    endloop
  endfacet
  facet normal 0 0 1
    outer loop
      vertex -78.48641016334295 44.51000000536442 1.8
      vertex -80.49202400445938 46.44051370769739 1.8
      vertex -80.57923048734665 46.309999994933605 1.8
    endloop
  endfacet
  facet normal 0 0 1
    outer loop
      vertex -78.48641016334295 44.51000000536442 1.8
      vertex -80.57923048734665 46.309999994933605 1.8
      vertex -80.64865543693304 46.169220112264156 1.8
    endloop
  endfacet
  facet normal 0 0 1
    outer loop
      vertex -78.48641016334295 44.51000000536442 1.8
      vertex -80.64865543693304 46.169220112264156 1.8
      vertex -80.69911099225283 46.02058284729719 1.8
    endloop
  endfacet
  facet normal 0 0 1
    outer loop
      vertex -78.48641016334295 44.51000000536442 1.8
      vertex -80.69911099225283 46.02058284729719 1.8
      vertex -80.7297338321805 45.86663142591715 1.8
    endloop
  endfacet
  facet normal 0 0 1
    outer loop
      vertex -78.48641016334295 44.51000000536442 1.8
      vertex -80.7297338321805 45.86663142591715 1.8
      vertex -80.74000000208616 45.70999999344349 1.8
    endloop
  endfacet
  facet normal 0 0 1
    outer loop
      vertex -78.50955181568861 44.46307337284088 1.8
      vertex -78.48641016334295 44.51000000536442 1.8
      vertex -80.74000000208616 45.70999999344349 1.8
    endloop
  endfacet
  facet normal 0 0 1
    outer loop
      vertex -78.52637033164501 44.41352762281895 1.8
      vertex -78.50955181568861 44.46307337284088 1.8
      vertex -80.74000000208616 45.70999999344349 1.8
    endloop
  endfacet
  facet normal 0 0 1
    outer loop
      vertex -78.53657794743776 44.36221048235893 1.8
      vertex -78.52637033164501 44.41352762281895 1.8
      vertex -80.74000000208616 45.70999999344349 1.8
    endloop
  endfacet
  facet normal 0 0 1
    outer loop
      vertex -78.53999999910593 44.310000002384186 1.8
      vertex -78.53657794743776 44.36221048235893 1.8
      vertex -80.74000000208616 45.70999999344349 1.8
    endloop
  endfacet
  facet normal 0 0 1
    outer loop
      vertex -78.53999999910593 44.310000002384186 1.8
      vertex -80.74000000208616 45.70999999344349 1.8
      vertex -80.74000000208616 -45.70999999344349 1.8
    endloop
  endfacet
  facet normal 0 0 1
    outer loop
      vertex -78.53999999910593 -44.310000002384186 1.8
      vertex -78.53999999910593 44.310000002384186 1.8
      vertex -80.74000000208616 -45.70999999344349 1.8
    endloop
  endfacet
  facet normal 0 0 1
    outer loop
      vertex -78.53657794743776 -44.36221048235893 1.8
      vertex -78.53999999910593 -44.310000002384186 1.8
      vertex -80.74000000208616 -45.70999999344349 1.8
    endloop
  endfacet
  facet normal 0 0 1
    outer loop
      vertex -78.52637033164501 -44.41352762281895 1.8
      vertex -78.53657794743776 -44.36221048235893 1.8
      vertex -80.74000000208616 -45.70999999344349 1.8
    endloop
  endfacet
  facet normal 0 0 1
    outer loop
      vertex -78.50955181568861 -44.46307337284088 1.8
      vertex -78.52637033164501 -44.41352762281895 1.8
      vertex -80.74000000208616 -45.70999999344349 1.8
    endloop
  endfacet
  facet normal 0 0 1
    outer loop
      vertex -78.48641016334295 -44.51000000536442 1.8
      vertex -78.50955181568861 -44.46307337284088 1.8
      vertex -80.74000000208616 -45.70999999344349 1.8
    endloop
  endfacet
  facet normal 0 0 1
    outer loop
      vertex -78.45734133571386 -44.553504571318626 1.8
      vertex -78.48641016334295 -44.51000000536442 1.8
      vertex -80.74000000208616 -45.70999999344349 1.8
    endloop
  endfacet
  facet normal 0 0 1
    outer loop
      vertex -78.42284271121025 -44.59284271299839 1.8
      vertex -78.45734133571386 -44.553504571318626 1.8
      vertex -80.74000000208616 -45.70999999344349 1.8
    endloop
  endfacet
  facet normal 0 0 1
    outer loop
      vertex -78.42284271121025 -44.59284271299839 1.8
      vertex -80.74000000208616 -45.70999999344349 1.8
      vertex -80.7297338321805 -45.86663142591715 1.8
    endloop
  endfacet
  facet normal 0 0 1
    outer loop
      vertex -78.42284271121025 -44.59284271299839 1.8
      vertex -80.7297338321805 -45.86663142591715 1.8
      vertex -80.69911099225283 -46.02058284729719 1.8
    endloop
  endfacet
  facet normal 0 0 1
    outer loop
      vertex -78.42284271121025 -44.59284271299839 1.8
      vertex -80.69911099225283 -46.02058284729719 1.8
      vertex -80.64865543693304 -46.169220112264156 1.8
    endloop
  endfacet
  facet normal 0 0 1
    outer loop
      vertex -78.42284271121025 -44.59284271299839 1.8
      vertex -80.64865543693304 -46.169220112264156 1.8
      vertex -80.57923048734665 -46.309999994933605 1.8
    endloop
  endfacet
  facet normal 0 0 1
    outer loop
      vertex -78.42284271121025 -44.59284271299839 1.8
      vertex -80.57923048734665 -46.309999994933605 1.8
      vertex -80.49202400445938 -46.44051370769739 1.8
    endloop
  endfacet
  facet normal 0 0 1
    outer loop
      vertex -78.42284271121025 -44.59284271299839 1.8
      vertex -80.49202400445938 -46.44051370769739 1.8
      vertex -80.38852813839912 -46.55852813273668 1.8
    endloop
  endfacet
  facet normal 0 0 1
    outer loop
      vertex -78.38350456953049 -44.627341337502 1.8
      vertex -78.42284271121025 -44.59284271299839 1.8
      vertex -80.38852813839912 -46.55852813273668 1.8
    endloop
  endfacet
  facet normal 0 0 1
    outer loop
      vertex -78.38350456953049 -44.627341337502 1.8
      vertex -80.38852813839912 -46.55852813273668 1.8
      vertex -80.27051371335983 -46.66202399879694 1.8
    endloop
  endfacet
  facet normal 0 0 1
    outer loop
      vertex -78.34000000357628 -44.65641016513109 1.8
      vertex -78.38350456953049 -44.627341337502 1.8
      vertex -80.27051371335983 -46.66202399879694 1.8
    endloop
  endfacet
  facet normal 0 0 1
    outer loop
      vertex -78.34000000357628 -44.65641016513109 1.8
      vertex -80.27051371335983 -46.66202399879694 1.8
      vertex -80.14000000059605 -46.74923048168421 1.8
    endloop
  endfacet
  facet normal 0 0 1
    outer loop
      vertex -78.34000000357628 -44.65641016513109 1.8
      vertex -80.14000000059605 -46.74923048168421 1.8
      vertex -79.9992201179266 -46.8186554312706 1.8
    endloop
  endfacet
  facet normal 0 0 1
    outer loop
      vertex -78.34000000357628 -44.65641016513109 1.8
      vertex -79.9992201179266 -46.8186554312706 1.8
      vertex -79.85058285295963 -46.869110986590385 1.8
    endloop
  endfacet
  facet normal 0 0 1
    outer loop
      vertex -78.34000000357628 -44.65641016513109 1.8
      vertex -79.85058285295963 -46.869110986590385 1.8
      vertex -79.69663143157959 -46.89973382651806 1.8
    endloop
  endfacet
  facet normal 0 0 1
    outer loop
      vertex -78.34000000357628 -44.65641016513109 1.8
      vertex -79.69663143157959 -46.89973382651806 1.8
      vertex -79.53999999910593 -46.90999999642372 1.8
    endloop
  endfacet
  facet normal 0 0 1
    outer loop
      vertex -78.29307337105274 -44.67955181747675 1.8
      vertex -78.34000000357628 -44.65641016513109 1.8
      vertex -79.53999999910593 -46.90999999642372 1.8
    endloop
  endfacet
  facet normal 0 0 1
    outer loop
      vertex -78.24352762103081 -44.69637033343315 1.8
      vertex -78.29307337105274 -44.67955181747675 1.8
      vertex -79.53999999910593 -46.90999999642372 1.8
    endloop
  endfacet
  facet normal 0 0 1
    outer loop
      vertex -78.1922104805708 -44.7065779492259 1.8
      vertex -78.24352762103081 -44.69637033343315 1.8
      vertex -79.53999999910593 -46.90999999642372 1.8
    endloop
  endfacet
  facet normal 0 0 1
    outer loop
      vertex 79.53999999910593 -46.90999999642372 1.8
      vertex 78.1922104805708 -44.7065779492259 1.8
      vertex 78.14000000059605 -44.71000000089407 1.8
    endloop
  endfacet
  facet normal 0 0 1
    outer loop
      vertex -79.53999999910593 -46.90999999642372 1.8
      vertex 79.53999999910593 -46.90999999642372 1.8
      vertex 78.14000000059605 -44.71000000089407 1.8
    endloop
  endfacet
  facet normal 0 0 1
    outer loop
      vertex -79.53999999910593 -46.90999999642372 1.8
      vertex 78.14000000059605 -44.71000000089407 1.8
      vertex -78.14000000059605 -44.71000000089407 1.8
    endloop
  endfacet
  facet normal 0 0 1
    outer loop
      vertex -78.1922104805708 -44.7065779492259 1.8
      vertex -79.53999999910593 -46.90999999642372 1.8
      vertex -78.14000000059605 -44.71000000089407 1.8
    endloop
  endfacet
  facet normal 0 0 -1
    outer loop
      vertex 80.74000000208616 45.70999999344349 0
      vertex 78.53999999910593 44.310000002384186 0
      vertex 78.53657794743776 44.36221048235893 0
    endloop
  endfacet
  facet normal 0 0 -1
    outer loop
      vertex 80.74000000208616 45.70999999344349 0
      vertex 78.53657794743776 44.36221048235893 0
      vertex 78.52637033164501 44.41352762281895 0
    endloop
  endfacet
  facet normal 0 0 -1
    outer loop
      vertex 80.74000000208616 45.70999999344349 0
      vertex 78.52637033164501 44.41352762281895 0
      vertex 78.50955181568861 44.46307337284088 0
    endloop
  endfacet
  facet normal 0 0 -1
    outer loop
      vertex 80.74000000208616 45.70999999344349 0
      vertex 78.50955181568861 44.46307337284088 0
      vertex 78.48641016334295 44.51000000536442 0
    endloop
  endfacet
  facet normal 0 0 -1
    outer loop
      vertex 78.53999999910593 44.310000002384186 0
      vertex 80.74000000208616 45.70999999344349 0
      vertex 80.74000000208616 -45.70999999344349 0
    endloop
  endfacet
  facet normal 0 0 -1
    outer loop
      vertex 78.53999999910593 -44.310000002384186 0
      vertex 78.53999999910593 44.310000002384186 0
      vertex 80.74000000208616 -45.70999999344349 0
    endloop
  endfacet
  facet normal 0 0 -1
    outer loop
      vertex 78.53657794743776 -44.36221048235893 0
      vertex 78.53999999910593 -44.310000002384186 0
      vertex 80.74000000208616 -45.70999999344349 0
    endloop
  endfacet
  facet normal 0 0 -1
    outer loop
      vertex 78.52637033164501 -44.41352762281895 0
      vertex 78.53657794743776 -44.36221048235893 0
      vertex 80.74000000208616 -45.70999999344349 0
    endloop
  endfacet
  facet normal 0 0 -1
    outer loop
      vertex 78.50955181568861 -44.46307337284088 0
      vertex 78.52637033164501 -44.41352762281895 0
      vertex 80.74000000208616 -45.70999999344349 0
    endloop
  endfacet
  facet normal 0 0 -1
    outer loop
      vertex 78.48641016334295 -44.51000000536442 0
      vertex 78.50955181568861 -44.46307337284088 0
      vertex 80.74000000208616 -45.70999999344349 0
    endloop
  endfacet
  facet normal 0 0 -1
    outer loop
      vertex 80.74000000208616 45.70999999344349 0
      vertex 78.48641016334295 44.51000000536442 0
      vertex 78.45734133571386 44.553504571318626 0
    endloop
  endfacet
  facet normal 0 0 -1
    outer loop
      vertex 78.45734133571386 -44.553504571318626 0
      vertex 78.48641016334295 -44.51000000536442 0
      vertex 80.74000000208616 -45.70999999344349 0
    endloop
  endfacet
  facet normal 0 0 -1
    outer loop
      vertex 80.74000000208616 45.70999999344349 0
      vertex 78.45734133571386 44.553504571318626 0
      vertex 78.42284271121025 44.59284271299839 0
    endloop
  endfacet
  facet normal 0 0 -1
    outer loop
      vertex 78.42284271121025 -44.59284271299839 0
      vertex 78.45734133571386 -44.553504571318626 0
      vertex 80.74000000208616 -45.70999999344349 0
    endloop
  endfacet
  facet normal 0 0 -1
    outer loop
      vertex 80.7297338321805 45.86663142591715 0
      vertex 80.74000000208616 45.70999999344349 0
      vertex 78.42284271121025 44.59284271299839 0
    endloop
  endfacet
  facet normal 0 0 -1
    outer loop
      vertex 80.69911099225283 46.02058284729719 0
      vertex 80.7297338321805 45.86663142591715 0
      vertex 78.42284271121025 44.59284271299839 0
    endloop
  endfacet
  facet normal 0 0 -1
    outer loop
      vertex 80.64865543693304 46.169220112264156 0
      vertex 80.69911099225283 46.02058284729719 0
      vertex 78.42284271121025 44.59284271299839 0
    endloop
  endfacet
  facet normal 0 0 -1
    outer loop
      vertex 80.57923048734665 46.309999994933605 0
      vertex 80.64865543693304 46.169220112264156 0
      vertex 78.42284271121025 44.59284271299839 0
    endloop
  endfacet
  facet normal 0 0 -1
    outer loop
      vertex 80.49202400445938 46.44051370769739 0
      vertex 80.57923048734665 46.309999994933605 0
      vertex 78.42284271121025 44.59284271299839 0
    endloop
  endfacet
  facet normal 0 0 -1
    outer loop
      vertex 80.38852813839912 46.55852813273668 0
      vertex 80.49202400445938 46.44051370769739 0
      vertex 78.42284271121025 44.59284271299839 0
    endloop
  endfacet
  facet normal 0 0 -1
    outer loop
      vertex 80.38852813839912 46.55852813273668 0
      vertex 78.42284271121025 44.59284271299839 0
      vertex 78.38350456953049 44.627341337502 0
    endloop
  endfacet
  facet normal 0 0 -1
    outer loop
      vertex 80.27051371335983 46.66202399879694 0
      vertex 80.38852813839912 46.55852813273668 0
      vertex 78.38350456953049 44.627341337502 0
    endloop
  endfacet
  facet normal 0 0 -1
    outer loop
      vertex 80.27051371335983 46.66202399879694 0
      vertex 78.38350456953049 44.627341337502 0
      vertex 78.34000000357628 44.65641016513109 0
    endloop
  endfacet
  facet normal 0 0 -1
    outer loop
      vertex 80.14000000059605 46.74923048168421 0
      vertex 80.27051371335983 46.66202399879694 0
      vertex 78.34000000357628 44.65641016513109 0
    endloop
  endfacet
  facet normal 0 0 -1
    outer loop
      vertex 79.9992201179266 46.8186554312706 0
      vertex 80.14000000059605 46.74923048168421 0
      vertex 78.34000000357628 44.65641016513109 0
    endloop
  endfacet
  facet normal 0 0 -1
    outer loop
      vertex 79.85058285295963 46.869110986590385 0
      vertex 79.9992201179266 46.8186554312706 0
      vertex 78.34000000357628 44.65641016513109 0
    endloop
  endfacet
  facet normal 0 0 -1
    outer loop
      vertex 79.69663143157959 46.89973382651806 0
      vertex 79.85058285295963 46.869110986590385 0
      vertex 78.34000000357628 44.65641016513109 0
    endloop
  endfacet
  facet normal 0 0 -1
    outer loop
      vertex 79.53999999910593 46.90999999642372 0
      vertex 79.69663143157959 46.89973382651806 0
      vertex 78.34000000357628 44.65641016513109 0
    endloop
  endfacet
  facet normal 0 0 -1
    outer loop
      vertex 79.53999999910593 46.90999999642372 0
      vertex 78.34000000357628 44.65641016513109 0
      vertex 78.29307337105274 44.67955181747675 0
    endloop
  endfacet
  facet normal 0 0 -1
    outer loop
      vertex 79.53999999910593 46.90999999642372 0
      vertex 78.29307337105274 44.67955181747675 0
      vertex 78.24352762103081 44.69637033343315 0
    endloop
  endfacet
  facet normal 0 0 -1
    outer loop
      vertex 79.53999999910593 46.90999999642372 0
      vertex 78.24352762103081 44.69637033343315 0
      vertex 78.1922104805708 44.7065779492259 0
    endloop
  endfacet
  facet normal 0 0 -1
    outer loop
      vertex 78.42284271121025 -44.59284271299839 0
      vertex 80.74000000208616 -45.70999999344349 0
      vertex 80.7297338321805 -45.86663142591715 0
    endloop
  endfacet
  facet normal 0 0 -1
    outer loop
      vertex 78.42284271121025 -44.59284271299839 0
      vertex 80.7297338321805 -45.86663142591715 0
      vertex 80.69911099225283 -46.02058284729719 0
    endloop
  endfacet
  facet normal 0 0 -1
    outer loop
      vertex 78.42284271121025 -44.59284271299839 0
      vertex 80.69911099225283 -46.02058284729719 0
      vertex 80.64865543693304 -46.169220112264156 0
    endloop
  endfacet
  facet normal 0 0 -1
    outer loop
      vertex 78.42284271121025 -44.59284271299839 0
      vertex 80.64865543693304 -46.169220112264156 0
      vertex 80.57923048734665 -46.309999994933605 0
    endloop
  endfacet
  facet normal 0 0 -1
    outer loop
      vertex 78.42284271121025 -44.59284271299839 0
      vertex 80.57923048734665 -46.309999994933605 0
      vertex 80.49202400445938 -46.44051370769739 0
    endloop
  endfacet
  facet normal 0 0 -1
    outer loop
      vertex 78.42284271121025 -44.59284271299839 0
      vertex 80.49202400445938 -46.44051370769739 0
      vertex 80.38852813839912 -46.55852813273668 0
    endloop
  endfacet
  facet normal 0 0 -1
    outer loop
      vertex 78.38350456953049 -44.627341337502 0
      vertex 78.42284271121025 -44.59284271299839 0
      vertex 80.38852813839912 -46.55852813273668 0
    endloop
  endfacet
  facet normal 0 0 -1
    outer loop
      vertex 78.38350456953049 -44.627341337502 0
      vertex 80.38852813839912 -46.55852813273668 0
      vertex 80.27051371335983 -46.66202399879694 0
    endloop
  endfacet
  facet normal 0 0 -1
    outer loop
      vertex 78.34000000357628 -44.65641016513109 0
      vertex 78.38350456953049 -44.627341337502 0
      vertex 80.27051371335983 -46.66202399879694 0
    endloop
  endfacet
  facet normal 0 0 -1
    outer loop
      vertex 78.34000000357628 -44.65641016513109 0
      vertex 80.27051371335983 -46.66202399879694 0
      vertex 80.14000000059605 -46.74923048168421 0
    endloop
  endfacet
  facet normal 0 0 -1
    outer loop
      vertex 78.34000000357628 -44.65641016513109 0
      vertex 80.14000000059605 -46.74923048168421 0
      vertex 79.9992201179266 -46.8186554312706 0
    endloop
  endfacet
  facet normal 0 0 -1
    outer loop
      vertex 78.34000000357628 -44.65641016513109 0
      vertex 79.9992201179266 -46.8186554312706 0
      vertex 79.85058285295963 -46.869110986590385 0
    endloop
  endfacet
  facet normal 0 0 -1
    outer loop
      vertex 78.34000000357628 -44.65641016513109 0
      vertex 79.85058285295963 -46.869110986590385 0
      vertex 79.69663143157959 -46.89973382651806 0
    endloop
  endfacet
  facet normal 0 0 -1
    outer loop
      vertex 78.34000000357628 -44.65641016513109 0
      vertex 79.69663143157959 -46.89973382651806 0
      vertex 79.53999999910593 -46.90999999642372 0
    endloop
  endfacet
  facet normal 0 0 -1
    outer loop
      vertex 78.29307337105274 -44.67955181747675 0
      vertex 78.34000000357628 -44.65641016513109 0
      vertex 79.53999999910593 -46.90999999642372 0
    endloop
  endfacet
  facet normal 0 0 -1
    outer loop
      vertex 78.24352762103081 -44.69637033343315 0
      vertex 78.29307337105274 -44.67955181747675 0
      vertex 79.53999999910593 -46.90999999642372 0
    endloop
  endfacet
  facet normal 0 0 -1
    outer loop
      vertex 78.1922104805708 -44.7065779492259 0
      vertex 78.24352762103081 -44.69637033343315 0
      vertex 79.53999999910593 -46.90999999642372 0
    endloop
  endfacet
  facet normal 0 0 -1
    outer loop
      vertex 79.53999999910593 46.90999999642372 0
      vertex 78.1922104805708 44.7065779492259 0
      vertex 78.14000000059605 44.71000000089407 0
    endloop
  endfacet
  facet normal 0 0 -1
    outer loop
      vertex -79.53999999910593 46.90999999642372 0
      vertex 79.53999999910593 46.90999999642372 0
      vertex 78.14000000059605 44.71000000089407 0
    endloop
  endfacet
  facet normal 0 0 -1
    outer loop
      vertex -79.53999999910593 46.90999999642372 0
      vertex 78.14000000059605 44.71000000089407 0
      vertex -78.14000000059605 44.71000000089407 0
    endloop
  endfacet
  facet normal 0 0 -1
    outer loop
      vertex -79.53999999910593 46.90999999642372 0
      vertex -78.14000000059605 44.71000000089407 0
      vertex -78.1922104805708 44.7065779492259 0
    endloop
  endfacet
  facet normal 0 0 -1
    outer loop
      vertex -79.53999999910593 46.90999999642372 0
      vertex -78.1922104805708 44.7065779492259 0
      vertex -78.24352762103081 44.69637033343315 0
    endloop
  endfacet
  facet normal 0 0 -1
    outer loop
      vertex -79.53999999910593 46.90999999642372 0
      vertex -78.24352762103081 44.69637033343315 0
      vertex -78.29307337105274 44.67955181747675 0
    endloop
  endfacet
  facet normal 0 0 -1
    outer loop
      vertex -79.53999999910593 46.90999999642372 0
      vertex -78.29307337105274 44.67955181747675 0
      vertex -78.34000000357628 44.65641016513109 0
    endloop
  endfacet
  facet normal 0 0 -1
    outer loop
      vertex -79.53999999910593 46.90999999642372 0
      vertex -78.34000000357628 44.65641016513109 0
      vertex -78.38350456953049 44.627341337502 0
    endloop
  endfacet
  facet normal 0 0 -1
    outer loop
      vertex -79.53999999910593 46.90999999642372 0
      vertex -78.38350456953049 44.627341337502 0
      vertex -78.42284271121025 44.59284271299839 0
    endloop
  endfacet
  facet normal 0 0 -1
    outer loop
      vertex -79.69663143157959 46.89973382651806 0
      vertex -79.53999999910593 46.90999999642372 0
      vertex -78.42284271121025 44.59284271299839 0
    endloop
  endfacet
  facet normal 0 0 -1
    outer loop
      vertex -79.85058285295963 46.869110986590385 0
      vertex -79.69663143157959 46.89973382651806 0
      vertex -78.42284271121025 44.59284271299839 0
    endloop
  endfacet
  facet normal 0 0 -1
    outer loop
      vertex -79.9992201179266 46.8186554312706 0
      vertex -79.85058285295963 46.869110986590385 0
      vertex -78.42284271121025 44.59284271299839 0
    endloop
  endfacet
  facet normal 0 0 -1
    outer loop
      vertex -80.14000000059605 46.74923048168421 0
      vertex -79.9992201179266 46.8186554312706 0
      vertex -78.42284271121025 44.59284271299839 0
    endloop
  endfacet
  facet normal 0 0 -1
    outer loop
      vertex -80.27051371335983 46.66202399879694 0
      vertex -80.14000000059605 46.74923048168421 0
      vertex -78.42284271121025 44.59284271299839 0
    endloop
  endfacet
  facet normal 0 0 -1
    outer loop
      vertex -80.38852813839912 46.55852813273668 0
      vertex -80.27051371335983 46.66202399879694 0
      vertex -78.42284271121025 44.59284271299839 0
    endloop
  endfacet
  facet normal 0 0 -1
    outer loop
      vertex -80.38852813839912 46.55852813273668 0
      vertex -78.42284271121025 44.59284271299839 0
      vertex -78.45734133571386 44.553504571318626 0
    endloop
  endfacet
  facet normal 0 0 -1
    outer loop
      vertex -80.49202400445938 46.44051370769739 0
      vertex -80.38852813839912 46.55852813273668 0
      vertex -78.45734133571386 44.553504571318626 0
    endloop
  endfacet
  facet normal 0 0 -1
    outer loop
      vertex -80.49202400445938 46.44051370769739 0
      vertex -78.45734133571386 44.553504571318626 0
      vertex -78.48641016334295 44.51000000536442 0
    endloop
  endfacet
  facet normal 0 0 -1
    outer loop
      vertex -80.57923048734665 46.309999994933605 0
      vertex -80.49202400445938 46.44051370769739 0
      vertex -78.48641016334295 44.51000000536442 0
    endloop
  endfacet
  facet normal 0 0 -1
    outer loop
      vertex -80.64865543693304 46.169220112264156 0
      vertex -80.57923048734665 46.309999994933605 0
      vertex -78.48641016334295 44.51000000536442 0
    endloop
  endfacet
  facet normal 0 0 -1
    outer loop
      vertex -80.69911099225283 46.02058284729719 0
      vertex -80.64865543693304 46.169220112264156 0
      vertex -78.48641016334295 44.51000000536442 0
    endloop
  endfacet
  facet normal 0 0 -1
    outer loop
      vertex -80.7297338321805 45.86663142591715 0
      vertex -80.69911099225283 46.02058284729719 0
      vertex -78.48641016334295 44.51000000536442 0
    endloop
  endfacet
  facet normal 0 0 -1
    outer loop
      vertex -80.74000000208616 45.70999999344349 0
      vertex -80.7297338321805 45.86663142591715 0
      vertex -78.48641016334295 44.51000000536442 0
    endloop
  endfacet
  facet normal 0 0 -1
    outer loop
      vertex -80.74000000208616 45.70999999344349 0
      vertex -78.48641016334295 44.51000000536442 0
      vertex -78.50955181568861 44.46307337284088 0
    endloop
  endfacet
  facet normal 0 0 -1
    outer loop
      vertex -80.74000000208616 45.70999999344349 0
      vertex -78.50955181568861 44.46307337284088 0
      vertex -78.52637033164501 44.41352762281895 0
    endloop
  endfacet
  facet normal 0 0 -1
    outer loop
      vertex -80.74000000208616 45.70999999344349 0
      vertex -78.52637033164501 44.41352762281895 0
      vertex -78.53657794743776 44.36221048235893 0
    endloop
  endfacet
  facet normal 0 0 -1
    outer loop
      vertex -80.74000000208616 45.70999999344349 0
      vertex -78.53657794743776 44.36221048235893 0
      vertex -78.53999999910593 44.310000002384186 0
    endloop
  endfacet
  facet normal 0 0 -1
    outer loop
      vertex -80.74000000208616 -45.70999999344349 0
      vertex -80.74000000208616 45.70999999344349 0
      vertex -78.53999999910593 44.310000002384186 0
    endloop
  endfacet
  facet normal 0 0 -1
    outer loop
      vertex -80.74000000208616 -45.70999999344349 0
      vertex -78.53999999910593 44.310000002384186 0
      vertex -78.53999999910593 -44.310000002384186 0
    endloop
  endfacet
  facet normal 0 0 -1
    outer loop
      vertex -80.74000000208616 -45.70999999344349 0
      vertex -78.53999999910593 -44.310000002384186 0
      vertex -78.53657794743776 -44.36221048235893 0
    endloop
  endfacet
  facet normal 0 0 -1
    outer loop
      vertex -80.74000000208616 -45.70999999344349 0
      vertex -78.53657794743776 -44.36221048235893 0
      vertex -78.52637033164501 -44.41352762281895 0
    endloop
  endfacet
  facet normal 0 0 -1
    outer loop
      vertex -80.74000000208616 -45.70999999344349 0
      vertex -78.52637033164501 -44.41352762281895 0
      vertex -78.50955181568861 -44.46307337284088 0
    endloop
  endfacet
  facet normal 0 0 -1
    outer loop
      vertex -80.74000000208616 -45.70999999344349 0
      vertex -78.50955181568861 -44.46307337284088 0
      vertex -78.48641016334295 -44.51000000536442 0
    endloop
  endfacet
  facet normal 0 0 -1
    outer loop
      vertex -80.74000000208616 -45.70999999344349 0
      vertex -78.48641016334295 -44.51000000536442 0
      vertex -78.45734133571386 -44.553504571318626 0
    endloop
  endfacet
  facet normal 0 0 -1
    outer loop
      vertex -80.74000000208616 -45.70999999344349 0
      vertex -78.45734133571386 -44.553504571318626 0
      vertex -78.42284271121025 -44.59284271299839 0
    endloop
  endfacet
  facet normal 0 0 -1
    outer loop
      vertex -80.7297338321805 -45.86663142591715 0
      vertex -80.74000000208616 -45.70999999344349 0
      vertex -78.42284271121025 -44.59284271299839 0
    endloop
  endfacet
  facet normal 0 0 -1
    outer loop
      vertex -80.69911099225283 -46.02058284729719 0
      vertex -80.7297338321805 -45.86663142591715 0
      vertex -78.42284271121025 -44.59284271299839 0
    endloop
  endfacet
  facet normal 0 0 -1
    outer loop
      vertex -80.64865543693304 -46.169220112264156 0
      vertex -80.69911099225283 -46.02058284729719 0
      vertex -78.42284271121025 -44.59284271299839 0
    endloop
  endfacet
  facet normal 0 0 -1
    outer loop
      vertex -80.57923048734665 -46.309999994933605 0
      vertex -80.64865543693304 -46.169220112264156 0
      vertex -78.42284271121025 -44.59284271299839 0
    endloop
  endfacet
  facet normal 0 0 -1
    outer loop
      vertex -80.49202400445938 -46.44051370769739 0
      vertex -80.57923048734665 -46.309999994933605 0
      vertex -78.42284271121025 -44.59284271299839 0
    endloop
  endfacet
  facet normal 0 0 -1
    outer loop
      vertex -80.38852813839912 -46.55852813273668 0
      vertex -80.49202400445938 -46.44051370769739 0
      vertex -78.42284271121025 -44.59284271299839 0
    endloop
  endfacet
  facet normal 0 0 -1
    outer loop
      vertex -80.38852813839912 -46.55852813273668 0
      vertex -78.42284271121025 -44.59284271299839 0
      vertex -78.38350456953049 -44.627341337502 0
    endloop
  endfacet
  facet normal 0 0 -1
    outer loop
      vertex -80.27051371335983 -46.66202399879694 0
      vertex -80.38852813839912 -46.55852813273668 0
      vertex -78.38350456953049 -44.627341337502 0
    endloop
  endfacet
  facet normal 0 0 -1
    outer loop
      vertex -80.27051371335983 -46.66202399879694 0
      vertex -78.38350456953049 -44.627341337502 0
      vertex -78.34000000357628 -44.65641016513109 0
    endloop
  endfacet
  facet normal 0 0 -1
    outer loop
      vertex -80.14000000059605 -46.74923048168421 0
      vertex -80.27051371335983 -46.66202399879694 0
      vertex -78.34000000357628 -44.65641016513109 0
    endloop
  endfacet
  facet normal 0 0 -1
    outer loop
      vertex -79.9992201179266 -46.8186554312706 0
      vertex -80.14000000059605 -46.74923048168421 0
      vertex -78.34000000357628 -44.65641016513109 0
    endloop
  endfacet
  facet normal 0 0 -1
    outer loop
      vertex -79.85058285295963 -46.869110986590385 0
      vertex -79.9992201179266 -46.8186554312706 0
      vertex -78.34000000357628 -44.65641016513109 0
    endloop
  endfacet
  facet normal 0 0 -1
    outer loop
      vertex -79.69663143157959 -46.89973382651806 0
      vertex -79.85058285295963 -46.869110986590385 0
      vertex -78.34000000357628 -44.65641016513109 0
    endloop
  endfacet
  facet normal 0 0 -1
    outer loop
      vertex -79.53999999910593 -46.90999999642372 0
      vertex -79.69663143157959 -46.89973382651806 0
      vertex -78.34000000357628 -44.65641016513109 0
    endloop
  endfacet
  facet normal 0 0 -1
    outer loop
      vertex -79.53999999910593 -46.90999999642372 0
      vertex -78.34000000357628 -44.65641016513109 0
      vertex -78.29307337105274 -44.67955181747675 0
    endloop
  endfacet
  facet normal 0 0 -1
    outer loop
      vertex -79.53999999910593 -46.90999999642372 0
      vertex -78.29307337105274 -44.67955181747675 0
      vertex -78.24352762103081 -44.69637033343315 0
    endloop
  endfacet
  facet normal 0 0 -1
    outer loop
      vertex -79.53999999910593 -46.90999999642372 0
      vertex -78.24352762103081 -44.69637033343315 0
      vertex -78.1922104805708 -44.7065779492259 0
    endloop
  endfacet
  facet normal 0 0 -1
    outer loop
      vertex 78.14000000059605 -44.71000000089407 0
      vertex 78.1922104805708 -44.7065779492259 0
      vertex 79.53999999910593 -46.90999999642372 0
    endloop
  endfacet
  facet normal 0 0 -1
    outer loop
      vertex 78.14000000059605 -44.71000000089407 0
      vertex 79.53999999910593 -46.90999999642372 0
      vertex -79.53999999910593 -46.90999999642372 0
    endloop
  endfacet
  facet normal 0 0 -1
    outer loop
      vertex -78.14000000059605 -44.71000000089407 0
      vertex 78.14000000059605 -44.71000000089407 0
      vertex -79.53999999910593 -46.90999999642372 0
    endloop
  endfacet
  facet normal 0 0 -1
    outer loop
      vertex -78.14000000059605 -44.71000000089407 0
      vertex -79.53999999910593 -46.90999999642372 0
      vertex -78.1922104805708 -44.7065779492259 0
    endloop
  endfacet
endsolid OpenSCAD_Model
